Cutive-Mono-Bold.ufo
<glyph name="exclam" format="1">
  <advance width="2048"/>
  <unicode hex="0021"/>
  <outline>
    <contour>
      <point x="1161.5" y="1587" type="curve" smooth="yes"/>
      <point x="1161.5" y="1249"/>
      <point x="1087.5" y="917"/>
      <point x="1087.5" y="557" type="curve" smooth="yes"/>
      <point x="1087.5" y="523"/>
      <point x="1059.5" y="496"/>
      <point x="1026.5" y="496" type="curve" smooth="yes"/>
      <point x="992.5" y="496"/>
      <point x="964.5" y="523"/>
      <point x="964.5" y="557" type="curve" smooth="yes"/>
      <point x="964.5" y="920"/>
      <point x="890.5" y="1249"/>
      <point x="890.5" y="1591" type="curve" smooth="yes"/>
      <point x="890.5" y="1685"/>
      <point x="947.5" y="1739"/>
      <point x="1026.5" y="1739" type="curve" smooth="yes"/>
      <point x="1107.5" y="1739"/>
      <point x="1161.5" y="1685"/>
    </contour>
    <contour>
      <point x="1024.5" y="-25" type="curve" smooth="yes"/>
      <point x="924.5" y="-25"/>
      <point x="847.5" y="52"/>
      <point x="847.5" y="152" type="curve" smooth="yes"/>
      <point x="847.5" y="252"/>
      <point x="924.5" y="328"/>
      <point x="1024.5" y="328" type="curve" smooth="yes"/>
      <point x="1124.5" y="328"/>
      <point x="1200.5" y="252"/>
      <point x="1200.5" y="152" type="curve" smooth="yes"/>
      <point x="1200.5" y="52"/>
      <point x="1124.5" y="-25"/>
    </contour>
  </outline>
</glyph>
<glyph name="numbersign" format="1">
  <advance width="2048"/>
  <unicode hex="0023"/>
  <outline>
    <contour>
      <point x="1022" y="732" type="line"/>
      <point x="1081" y="965" type="line"/>
      <point x="666" y="965" type="line"/>
      <point x="607" y="732" type="line"/>
    </contour>
    <contour>
      <point x="802" y="1989" type="curve" smooth="yes"/>
      <point x="847" y="1989"/>
      <point x="901" y="1962"/>
      <point x="901" y="1910" type="curve" smooth="yes"/>
      <point x="901" y="1905"/>
      <point x="900" y="1901"/>
      <point x="899" y="1896" type="curve" smooth="yes"/>
      <point x="708" y="1133" type="line"/>
      <point x="1123" y="1133" type="line"/>
      <point x="1326" y="1935" type="line"/>
      <point x="1333" y="1968"/>
      <point x="1358" y="1988"/>
      <point x="1400" y="1988" type="curve" smooth="yes"/>
      <point x="1443" y="1988"/>
      <point x="1498" y="1961"/>
      <point x="1498" y="1910" type="curve" smooth="yes"/>
      <point x="1498" y="1905"/>
      <point x="1498" y="1900"/>
      <point x="1496" y="1894" type="curve" smooth="yes"/>
      <point x="1304" y="1133" type="line"/>
      <point x="1561" y="1133" type="line" smooth="yes"/>
      <point x="1607" y="1133"/>
      <point x="1645" y="1095"/>
      <point x="1645" y="1049" type="curve" smooth="yes"/>
      <point x="1645" y="1002"/>
      <point x="1608" y="965"/>
      <point x="1562" y="965" type="curve" smooth="yes"/>
      <point x="1262" y="965" type="line"/>
      <point x="1203" y="732" type="line"/>
      <point x="1499" y="732" type="line" smooth="yes"/>
      <point x="1545" y="732"/>
      <point x="1583" y="694"/>
      <point x="1583" y="648" type="curve" smooth="yes"/>
      <point x="1583" y="601"/>
      <point x="1546" y="564"/>
      <point x="1500" y="564" type="curve" smooth="yes"/>
      <point x="1161" y="564" type="line"/>
      <point x="936" y="-327" type="line" smooth="yes"/>
      <point x="926" y="-364"/>
      <point x="908" y="-390"/>
      <point x="860" y="-390" type="curve" smooth="yes"/>
      <point x="815" y="-390"/>
      <point x="759" y="-363"/>
      <point x="759" y="-313" type="curve" smooth="yes"/>
      <point x="759" y="-307"/>
      <point x="760" y="-300"/>
      <point x="762" y="-294" type="curve" smooth="yes"/>
      <point x="979" y="564" type="line"/>
      <point x="565" y="564" type="line"/>
      <point x="344" y="-320" type="line" smooth="yes"/>
      <point x="334" y="-357"/>
      <point x="316" y="-383"/>
      <point x="268" y="-383" type="curve" smooth="yes"/>
      <point x="223" y="-383"/>
      <point x="167" y="-357"/>
      <point x="167" y="-306" type="curve" smooth="yes"/>
      <point x="167" y="-300"/>
      <point x="168" y="-294"/>
      <point x="170" y="-287" type="curve" smooth="yes"/>
      <point x="384" y="564" type="line"/>
      <point x="168" y="564" type="line" smooth="yes"/>
      <point x="122" y="564"/>
      <point x="84" y="601"/>
      <point x="84" y="648" type="curve" smooth="yes"/>
      <point x="84" y="694"/>
      <point x="122" y="732"/>
      <point x="168" y="732" type="curve" smooth="yes"/>
      <point x="426" y="732" type="line"/>
      <point x="485" y="965" type="line"/>
      <point x="230" y="965" type="line" smooth="yes"/>
      <point x="184" y="965"/>
      <point x="146" y="1002"/>
      <point x="146" y="1049" type="curve" smooth="yes"/>
      <point x="146" y="1095"/>
      <point x="184" y="1133"/>
      <point x="230" y="1133" type="curve" smooth="yes"/>
      <point x="527" y="1133" type="line"/>
      <point x="729" y="1936" type="line"/>
      <point x="735" y="1969"/>
      <point x="761" y="1989"/>
    </contour>
  </outline>
</glyph>
<glyph name="percent" format="1">
  <advance width="2048"/>
  <unicode hex="0025"/>
  <outline>
    <contour>
      <point x="79" y="1157" type="curve" smooth="yes"/>
      <point x="79" y="1420"/>
      <point x="255" y="1726"/>
      <point x="517" y="1726" type="curve" smooth="yes"/>
      <point x="601" y="1726" type="line" smooth="yes"/>
      <point x="1029" y="1726"/>
      <point x="1300" y="1771"/>
      <point x="1492" y="2009" type="curve"/>
      <point x="1507" y="2040"/>
      <point x="1532" y="2056"/>
      <point x="1566" y="2056" type="curve" smooth="yes"/>
      <point x="1614" y="2056"/>
      <point x="1652" y="2018"/>
      <point x="1652" y="1972" type="curve" smooth="yes"/>
      <point x="1652" y="1962"/>
      <point x="1649" y="1951"/>
      <point x="1644" y="1937" type="curve"/>
      <point x="534" y="-420" type="line"/>
      <point x="518" y="-451"/>
      <point x="492" y="-467"/>
      <point x="458" y="-467" type="curve" smooth="yes"/>
      <point x="411" y="-467"/>
      <point x="374" y="-428"/>
      <point x="374" y="-383" type="curve" smooth="yes"/>
      <point x="374" y="-371"/>
      <point x="376" y="-358"/>
      <point x="380" y="-346" type="curve"/>
      <point x="1336" y="1681" type="line"/>
      <point x="1161" y="1611"/>
      <point x="945" y="1577"/>
      <point x="702" y="1577" type="curve"/>
      <point x="743" y="1529"/>
      <point x="769" y="1460"/>
      <point x="769" y="1378" type="curve" smooth="yes"/>
      <point x="769" y="1109"/>
      <point x="591" y="813"/>
      <point x="331" y="813" type="curve" smooth="yes"/>
      <point x="156" y="813"/>
      <point x="79" y="981"/>
    </contour>
    <contour>
      <point x="1525" y="-49" type="curve" smooth="yes"/>
      <point x="1350" y="-49"/>
      <point x="1273" y="119"/>
      <point x="1273" y="295" type="curve" smooth="yes"/>
      <point x="1273" y="558"/>
      <point x="1449" y="864"/>
      <point x="1711" y="864" type="curve" smooth="yes"/>
      <point x="1886" y="864"/>
      <point x="1963" y="693"/>
      <point x="1963" y="516" type="curve" smooth="yes"/>
      <point x="1963" y="247"/>
      <point x="1785" y="-49"/>
    </contour>
    <contour>
      <point x="1562" y="127" type="curve" smooth="yes"/>
      <point x="1713" y="127"/>
      <point x="1805" y="334"/>
      <point x="1805" y="492" type="curve" smooth="yes"/>
      <point x="1805" y="589"/>
      <point x="1764" y="688"/>
      <point x="1674" y="688" type="curve" smooth="yes"/>
      <point x="1520" y="688"/>
      <point x="1431" y="475"/>
      <point x="1431" y="319" type="curve" smooth="yes"/>
      <point x="1431" y="221"/>
      <point x="1472" y="127"/>
    </contour>
    <contour>
      <point x="368" y="989" type="curve" smooth="yes"/>
      <point x="519" y="989"/>
      <point x="611" y="1196"/>
      <point x="611" y="1354" type="curve" smooth="yes"/>
      <point x="611" y="1451"/>
      <point x="570" y="1550"/>
      <point x="480" y="1550" type="curve" smooth="yes"/>
      <point x="326" y="1550"/>
      <point x="237" y="1338"/>
      <point x="237" y="1182" type="curve" smooth="yes"/>
      <point x="237" y="1084"/>
      <point x="278" y="989"/>
    </contour>
  </outline>
</glyph>
<glyph name="ampersand" format="1">
  <advance width="2048"/>
  <unicode hex="0026"/>
  <outline>
    <contour>
      <point x="395" y="932" type="curve"/>
      <point x="319" y="1057"/>
      <point x="216" y="1207"/>
      <point x="216" y="1370" type="curve" smooth="yes"/>
      <point x="216" y="1589"/>
      <point x="350" y="1741"/>
      <point x="562" y="1741" type="curve" smooth="yes"/>
      <point x="787" y="1741"/>
      <point x="927" y="1586"/>
      <point x="927" y="1366" type="curve" smooth="yes"/>
      <point x="927" y="1128"/>
      <point x="792" y="1014"/>
      <point x="645" y="912" type="curve"/>
      <point x="683" y="864"/>
      <point x="722" y="820"/>
      <point x="757" y="780" type="curve"/>
      <point x="861" y="653"/>
      <point x="980" y="531"/>
      <point x="1112" y="423" type="curve"/>
      <point x="1180" y="532"/>
      <point x="1221" y="664"/>
      <point x="1229" y="797" type="curve"/>
      <point x="1093" y="797" type="line" smooth="yes"/>
      <point x="1046" y="797"/>
      <point x="1019" y="837"/>
      <point x="1019" y="881" type="curve" smooth="yes"/>
      <point x="1019" y="931"/>
      <point x="1040" y="973"/>
      <point x="1091" y="973" type="curve" smooth="yes"/>
      <point x="1566" y="973" type="line" smooth="yes"/>
      <point x="1617" y="973"/>
      <point x="1637" y="931"/>
      <point x="1637" y="881" type="curve" smooth="yes"/>
      <point x="1637" y="837"/>
      <point x="1611" y="797"/>
      <point x="1564" y="797" type="curve" smooth="yes"/>
      <point x="1403" y="797" type="line"/>
      <point x="1394" y="609"/>
      <point x="1330" y="448"/>
      <point x="1243" y="323" type="curve"/>
      <point x="1334" y="259"/>
      <point x="1430" y="202"/>
      <point x="1531" y="154" type="curve" smooth="yes"/>
      <point x="1588" y="126"/>
      <point x="1652" y="125"/>
      <point x="1652" y="43" type="curve" smooth="yes"/>
      <point x="1652" y="-20"/>
      <point x="1595" y="-53"/>
      <point x="1535" y="-53" type="curve" smooth="yes"/>
      <point x="1510" y="-53"/>
      <point x="1490" y="-49"/>
      <point x="1472" y="-39" type="curve"/>
      <point x="1347" y="22"/>
      <point x="1226" y="93"/>
      <point x="1112" y="173" type="curve"/>
      <point x="993" y="64"/>
      <point x="829" y="-27"/>
      <point x="630" y="-27" type="curve" smooth="yes"/>
      <point x="304" y="-27"/>
      <point x="87" y="191"/>
      <point x="87" y="510" type="curve" smooth="yes"/>
      <point x="87" y="733"/>
      <point x="238" y="836"/>
    </contour>
    <contour>
      <point x="482" y="798" type="curve"/>
      <point x="403" y="737"/>
      <point x="314" y="662"/>
      <point x="314" y="528" type="curve" smooth="yes"/>
      <point x="314" y="298"/>
      <point x="446" y="156"/>
      <point x="669" y="156" type="curve" smooth="yes"/>
      <point x="790" y="156"/>
      <point x="895" y="200"/>
      <point x="981" y="271" type="curve"/>
      <point x="789" y="423"/>
      <point x="620" y="601"/>
    </contour>
    <contour>
      <point x="555" y="1034" type="curve"/>
      <point x="660" y="1110"/>
      <point x="740" y="1202"/>
      <point x="740" y="1356" type="curve" smooth="yes"/>
      <point x="740" y="1463"/>
      <point x="681" y="1573"/>
      <point x="577" y="1573" type="curve" smooth="yes"/>
      <point x="478" y="1573"/>
      <point x="433" y="1479"/>
      <point x="433" y="1382" type="curve" smooth="yes"/>
      <point x="433" y="1257"/>
      <point x="486" y="1139"/>
    </contour>
  </outline>
</glyph>
<glyph name="quotesingle" format="1">
  <advance width="2048"/>
  <unicode hex="0027"/>
  <outline>
    <contour>
      <point x="1090" y="1377" type="line" smooth="yes"/>
      <point x="1086" y="1338"/>
      <point x="1051" y="1319"/>
      <point x="1026" y="1319" type="curve" smooth="yes"/>
      <point x="1000" y="1319"/>
      <point x="964" y="1338"/>
      <point x="960" y="1377" type="curve" smooth="yes"/>
      <point x="906" y="1924" type="line" smooth="yes"/>
      <point x="905" y="1929"/>
      <point x="905" y="1935"/>
      <point x="905" y="1941" type="curve" smooth="yes"/>
      <point x="905" y="2020"/>
      <point x="963" y="2058"/>
      <point x="1021" y="2058" type="curve" smooth="yes"/>
      <point x="1082" y="2058"/>
      <point x="1143" y="2017"/>
      <point x="1143" y="1938" type="curve" smooth="yes"/>
      <point x="1143" y="1932"/>
      <point x="1143" y="1927"/>
      <point x="1142" y="1922" type="curve" smooth="yes"/>
    </contour>
  </outline>
</glyph>
<glyph name="parenleft" format="1">
  <advance width="2048"/>
  <unicode hex="0028"/>
  <outline>
    <contour>
      <point x="715" y="-432" type="curve" smooth="yes"/>
      <point x="715" y="-486"/>
      <point x="665" y="-526"/>
      <point x="611" y="-526" type="curve" smooth="yes"/>
      <point x="588" y="-526"/>
      <point x="558" y="-511"/>
      <point x="523" y="-480" type="curve" smooth="yes"/>
      <point x="250" y="-239"/>
      <point x="82" y="271"/>
      <point x="82" y="776" type="curve" smooth="yes"/>
      <point x="82" y="1239"/>
      <point x="224" y="1627"/>
      <point x="413" y="1902" type="curve" smooth="yes"/>
      <point x="459" y="1969"/>
      <point x="533" y="2079"/>
      <point x="611" y="2079" type="curve" smooth="yes"/>
      <point x="665" y="2079"/>
      <point x="715" y="2039"/>
      <point x="715" y="1985" type="curve" smooth="yes"/>
      <point x="715" y="1962"/>
      <point x="705" y="1938"/>
      <point x="686" y="1915" type="curve" smooth="yes"/>
      <point x="466" y="1660"/>
      <point x="305" y="1243"/>
      <point x="305" y="776" type="curve" smooth="yes"/>
      <point x="305" y="308"/>
      <point x="467" y="-107"/>
      <point x="686" y="-362" type="curve" smooth="yes"/>
      <point x="705" y="-385"/>
      <point x="715" y="-409"/>
    </contour>
  </outline>
</glyph>
<glyph name="asterisk" format="1">
  <advance width="2048"/>
  <unicode hex="002A"/>
  <outline>
    <contour>
      <point x="1601.5" y="1104" type="line"/>
      <point x="1661.5" y="1104"/>
      <point x="1691.5" y="1042"/>
      <point x="1691.5" y="983" type="curve" smooth="yes"/>
      <point x="1691.5" y="924"/>
      <point x="1661.5" y="862"/>
      <point x="1601.5" y="862" type="curve"/>
      <point x="1239.5" y="905" type="line"/>
      <point x="1192.5" y="909"/>
      <point x="1165.5" y="939"/>
      <point x="1165.5" y="983" type="curve" smooth="yes"/>
      <point x="1165.5" y="1027"/>
      <point x="1192.5" y="1057"/>
      <point x="1239.5" y="1061" type="curve"/>
    </contour>
    <contour>
      <point x="446.5" y="862" type="line"/>
      <point x="386.5" y="862"/>
      <point x="356.5" y="924"/>
      <point x="356.5" y="983" type="curve" smooth="yes"/>
      <point x="356.5" y="1042"/>
      <point x="386.5" y="1104"/>
      <point x="446.5" y="1104" type="curve"/>
      <point x="808.5" y="1061" type="line"/>
      <point x="855.5" y="1057"/>
      <point x="882.5" y="1027"/>
      <point x="882.5" y="983" type="curve" smooth="yes"/>
      <point x="882.5" y="939"/>
      <point x="855.5" y="909"/>
      <point x="808.5" y="905" type="curve"/>
    </contour>
    <contour>
      <point x="1425.5" y="504" type="curve" smooth="yes"/>
      <point x="1425.5" y="435"/>
      <point x="1345.5" y="381"/>
      <point x="1277.5" y="381" type="curve" smooth="yes"/>
      <point x="1242.5" y="381"/>
      <point x="1216.5" y="396"/>
      <point x="1204.5" y="422" type="curve" smooth="yes"/>
      <point x="1062.5" y="758" type="line" smooth="yes"/>
      <point x="1057.5" y="770"/>
      <point x="1054.5" y="783"/>
      <point x="1054.5" y="797" type="curve" smooth="yes"/>
      <point x="1054.5" y="840"/>
      <point x="1091.5" y="870"/>
      <point x="1132.5" y="870" type="curve" smooth="yes"/>
      <point x="1164.5" y="870"/>
      <point x="1181.5" y="857"/>
      <point x="1198.5" y="834" type="curve" smooth="yes"/>
      <point x="1415.5" y="541" type="line"/>
      <point x="1422.5" y="527"/>
      <point x="1425.5" y="515"/>
    </contour>
    <contour>
      <point x="622.5" y="1462" type="curve" smooth="yes"/>
      <point x="622.5" y="1532"/>
      <point x="700.5" y="1585"/>
      <point x="770.5" y="1585" type="curve" smooth="yes"/>
      <point x="804.5" y="1585"/>
      <point x="828.5" y="1571"/>
      <point x="843.5" y="1544" type="curve"/>
      <point x="985.5" y="1208" type="line" smooth="yes"/>
      <point x="990.5" y="1196"/>
      <point x="993.5" y="1183"/>
      <point x="993.5" y="1169" type="curve" smooth="yes"/>
      <point x="993.5" y="1137"/>
      <point x="974.5" y="1119"/>
      <point x="954.5" y="1106" type="curve"/>
      <point x="933.5" y="1098" type="line" smooth="yes"/>
      <point x="926.5" y="1095"/>
      <point x="920.5" y="1094"/>
      <point x="913.5" y="1094" type="curve" smooth="yes"/>
      <point x="890.5" y="1094"/>
      <point x="868.5" y="1107"/>
      <point x="849.5" y="1133" type="curve" smooth="yes"/>
      <point x="632.5" y="1425" type="line"/>
      <point x="625.5" y="1439"/>
      <point x="622.5" y="1451"/>
    </contour>
    <contour>
      <point x="768.5" y="381" type="curve" smooth="yes"/>
      <point x="697.5" y="381"/>
      <point x="620.5" y="434"/>
      <point x="620.5" y="504" type="curve" smooth="yes"/>
      <point x="620.5" y="515"/>
      <point x="623.5" y="527"/>
      <point x="630.5" y="541" type="curve"/>
      <point x="847.5" y="834" type="line" smooth="yes"/>
      <point x="864.5" y="857"/>
      <point x="879.5" y="870"/>
      <point x="911.5" y="870" type="curve" smooth="yes"/>
      <point x="953.5" y="870"/>
      <point x="991.5" y="840"/>
      <point x="991.5" y="797" type="curve" smooth="yes"/>
      <point x="991.5" y="783"/>
      <point x="988.5" y="770"/>
      <point x="983.5" y="758" type="curve" smooth="yes"/>
      <point x="841.5" y="422" type="line"/>
      <point x="826.5" y="395"/>
      <point x="802.5" y="381"/>
    </contour>
    <contour>
      <point x="1275.5" y="1585" type="curve" smooth="yes"/>
      <point x="1344.5" y="1585"/>
      <point x="1423.5" y="1529"/>
      <point x="1423.5" y="1462" type="curve" smooth="yes"/>
      <point x="1423.5" y="1451"/>
      <point x="1420.5" y="1439"/>
      <point x="1413.5" y="1425" type="curve"/>
      <point x="1196.5" y="1133" type="line" smooth="yes"/>
      <point x="1177.5" y="1107"/>
      <point x="1155.5" y="1094"/>
      <point x="1130.5" y="1094" type="curve" smooth="yes"/>
      <point x="1089.5" y="1094"/>
      <point x="1052.5" y="1127"/>
      <point x="1052.5" y="1169" type="curve" smooth="yes"/>
      <point x="1052.5" y="1183"/>
      <point x="1055.5" y="1196"/>
      <point x="1060.5" y="1208" type="curve" smooth="yes"/>
      <point x="1202.5" y="1544" type="line" smooth="yes"/>
      <point x="1214.5" y="1570"/>
      <point x="1240.5" y="1585"/>
    </contour>
  </outline>
</glyph>
<glyph name="slash" format="1">
  <advance width="2048"/>
  <unicode hex="002F"/>
  <outline>
    <contour>
      <point x="170" y="-314" type="curve" smooth="yes"/>
      <point x="123" y="-314"/>
      <point x="65" y="-276"/>
      <point x="65" y="-228" type="curve" smooth="yes"/>
      <point x="65" y="-217"/>
      <point x="68" y="-207"/>
      <point x="73" y="-197" type="curve" smooth="yes"/>
      <point x="1059" y="1851" type="line"/>
      <point x="1070" y="1877"/>
      <point x="1091" y="1890"/>
      <point x="1121" y="1890" type="curve" smooth="yes"/>
      <point x="1167" y="1890"/>
      <point x="1223" y="1854"/>
      <point x="1223" y="1804" type="curve" smooth="yes"/>
      <point x="1223" y="1794"/>
      <point x="1222" y="1786"/>
      <point x="1217" y="1776" type="curve" smooth="yes"/>
      <point x="237" y="-266" type="line" smooth="yes"/>
      <point x="222" y="-295"/>
      <point x="205" y="-314"/>
    </contour>
  </outline>
</glyph>
<glyph name="two" format="1">
  <advance width="2048"/>
  <unicode hex="0032"/>
  <outline>
    <contour>
      <point x="1131" y="1288" type="curve" smooth="yes"/>
      <point x="1131" y="845"/>
      <point x="494" y="655"/>
      <point x="342" y="225" type="curve"/>
      <point x="981" y="225" type="line"/>
      <point x="1068" y="422" type="line"/>
      <point x="1083" y="463"/>
      <point x="1116" y="496"/>
      <point x="1165" y="496" type="curve" smooth="yes"/>
      <point x="1206" y="496"/>
      <point x="1237" y="469"/>
      <point x="1237" y="424" type="curve" smooth="yes"/>
      <point x="1237" y="411"/>
      <point x="1234" y="400"/>
      <point x="1232" y="388" type="curve" smooth="yes"/>
      <point x="1169" y="109" type="line"/>
      <point x="1157" y="63"/>
      <point x="1136" y="35"/>
      <point x="1090" y="35" type="curve" smooth="yes"/>
      <point x="155" y="35" type="line"/>
      <point x="146" y="174" type="line"/>
      <point x="146" y="246"/>
      <point x="164" y="319"/>
      <point x="200" y="393" type="curve" smooth="yes"/>
      <point x="328" y="660"/>
      <point x="898" y="1046"/>
      <point x="898" y="1294" type="curve" smooth="yes"/>
      <point x="898" y="1449"/>
      <point x="746" y="1514"/>
      <point x="599" y="1514" type="curve" smooth="yes"/>
      <point x="459" y="1514"/>
      <point x="385" y="1468"/>
      <point x="310" y="1412" type="curve" smooth="yes"/>
      <point x="293" y="1400"/>
      <point x="274" y="1393"/>
      <point x="253" y="1393" type="curve" smooth="yes"/>
      <point x="202" y="1393"/>
      <point x="161" y="1426"/>
      <point x="161" y="1479" type="curve" smooth="yes"/>
      <point x="161" y="1500"/>
      <point x="173" y="1525"/>
      <point x="199" y="1551" type="curve" smooth="yes"/>
      <point x="285" y="1639"/>
      <point x="453" y="1701"/>
      <point x="630" y="1704" type="curve"/>
      <point x="644" y="1704" type="line" smooth="yes"/>
      <point x="937" y="1704"/>
      <point x="1131" y="1542"/>
    </contour>
  </outline>
</glyph>
<glyph name="three" format="1">
  <advance width="2048"/>
  <unicode hex="0033"/>
  <outline>
    <contour>
      <point x="976" y="569" type="curve" smooth="yes"/>
      <point x="976" y="738"/>
      <point x="874" y="855"/>
      <point x="704" y="855" type="curve" smooth="yes"/>
      <point x="659" y="855"/>
      <point x="623" y="843"/>
      <point x="578" y="843" type="curve" smooth="yes"/>
      <point x="528" y="843"/>
      <point x="493" y="876"/>
      <point x="493" y="931" type="curve" smooth="yes"/>
      <point x="493" y="948"/>
      <point x="504" y="964"/>
      <point x="525" y="981" type="curve" smooth="yes"/>
      <point x="640" y="1075"/>
      <point x="911" y="1149"/>
      <point x="911" y="1348" type="curve" smooth="yes"/>
      <point x="911" y="1455"/>
      <point x="821" y="1533"/>
      <point x="710" y="1533" type="curve" smooth="yes"/>
      <point x="571" y="1533"/>
      <point x="473" y="1463"/>
      <point x="386" y="1407" type="curve" smooth="yes"/>
      <point x="371" y="1397"/>
      <point x="353" y="1391"/>
      <point x="334" y="1391" type="curve" smooth="yes"/>
      <point x="294" y="1391"/>
      <point x="262" y="1419"/>
      <point x="262" y="1459" type="curve" smooth="yes"/>
      <point x="262" y="1600"/>
      <point x="562" y="1707"/>
      <point x="713" y="1707" type="curve" smooth="yes"/>
      <point x="932" y="1707"/>
      <point x="1106" y="1587"/>
      <point x="1106" y="1374" type="curve" smooth="yes"/>
      <point x="1106" y="1147"/>
      <point x="943" y="1078"/>
      <point x="796" y="993" type="curve"/>
      <point x="776" y="981" type="line"/>
      <point x="1036" y="964"/>
      <point x="1204" y="830"/>
      <point x="1204" y="561" type="curve" smooth="yes"/>
      <point x="1204" y="237"/>
      <point x="950" y="9"/>
      <point x="617" y="9" type="curve" smooth="yes"/>
      <point x="465" y="9"/>
      <point x="174" y="56"/>
      <point x="174" y="197" type="curve" smooth="yes"/>
      <point x="174" y="242"/>
      <point x="208" y="270"/>
      <point x="254" y="270" type="curve" smooth="yes"/>
      <point x="273" y="270"/>
      <point x="293" y="267"/>
      <point x="312" y="257" type="curve" smooth="yes"/>
      <point x="391" y="218"/>
      <point x="495" y="186"/>
      <point x="613" y="186" type="curve" smooth="yes"/>
      <point x="832" y="186"/>
      <point x="976" y="353"/>
    </contour>
  </outline>
</glyph>
<glyph name="four" format="1">
  <advance width="2048"/>
  <unicode hex="0034"/>
  <outline>
    <contour>
      <point x="850" y="1376" type="line"/>
      <point x="319" y="713" type="line"/>
      <point x="850" y="713" type="line"/>
    </contour>
    <contour>
      <point x="1351" y="117" type="curve" smooth="yes"/>
      <point x="1351" y="76"/>
      <point x="1326" y="34"/>
      <point x="1281" y="34" type="curve" smooth="yes"/>
      <point x="578" y="34" type="line" smooth="yes"/>
      <point x="533" y="34"/>
      <point x="508" y="76"/>
      <point x="508" y="117" type="curve" smooth="yes"/>
      <point x="508" y="166"/>
      <point x="528" y="204"/>
      <point x="577" y="204" type="curve" smooth="yes"/>
      <point x="850" y="204" type="line"/>
      <point x="850" y="562" type="line"/>
      <point x="157" y="562" type="line" smooth="yes"/>
      <point x="117" y="562"/>
      <point x="94" y="598"/>
      <point x="94" y="634" type="curve" smooth="yes"/>
      <point x="94" y="662"/>
      <point x="102" y="686"/>
      <point x="115" y="699" type="curve"/>
      <point x="388" y="1039"/>
      <point x="664" y="1373"/>
      <point x="941" y="1708" type="curve" smooth="yes"/>
      <point x="951" y="1721"/>
      <point x="997" y="1730"/>
      <point x="1014" y="1730" type="curve" smooth="yes"/>
      <point x="1055" y="1730"/>
      <point x="1051" y="1688"/>
      <point x="1051" y="1647" type="curve" smooth="yes"/>
      <point x="1051" y="713" type="line"/>
      <point x="1347" y="713" type="line" smooth="yes"/>
      <point x="1392" y="713"/>
      <point x="1408" y="679"/>
      <point x="1408" y="634" type="curve" smooth="yes"/>
      <point x="1408" y="598"/>
      <point x="1384" y="562"/>
      <point x="1344" y="562" type="curve" smooth="yes"/>
      <point x="1051" y="562" type="line"/>
      <point x="1051" y="204" type="line"/>
      <point x="1283" y="204" type="line" smooth="yes"/>
      <point x="1332" y="204"/>
      <point x="1351" y="166"/>
    </contour>
  </outline>
</glyph>
<glyph name="six" format="1">
  <advance width="2048"/>
  <unicode hex="0036"/>
  <outline>
    <contour>
      <point x="1280" y="522" type="curve" smooth="yes"/>
      <point x="1280" y="188"/>
      <point x="1056" y="-25"/>
      <point x="725" y="-25" type="curve" smooth="yes"/>
      <point x="334" y="-25"/>
      <point x="153" y="234"/>
      <point x="153" y="623" type="curve" smooth="yes"/>
      <point x="153" y="1180"/>
      <point x="436" y="1536"/>
      <point x="741" y="1817" type="curve"/>
      <point x="761" y="1837"/>
      <point x="793" y="1860"/>
      <point x="833" y="1860" type="curve" smooth="yes"/>
      <point x="898" y="1860"/>
      <point x="936" y="1835"/>
      <point x="936" y="1769" type="curve" smooth="yes"/>
      <point x="936" y="1738"/>
      <point x="924" y="1712"/>
      <point x="899" y="1692" type="curve" smooth="yes"/>
      <point x="673" y="1502"/>
      <point x="487" y="1247"/>
      <point x="387" y="924" type="curve"/>
      <point x="472" y="1013"/>
      <point x="594" y="1085"/>
      <point x="754" y="1085" type="curve" smooth="yes"/>
      <point x="1083" y="1085"/>
      <point x="1280" y="853"/>
    </contour>
    <contour>
      <point x="725" y="127" type="curve" smooth="yes"/>
      <point x="950" y="127"/>
      <point x="1075" y="291"/>
      <point x="1075" y="518" type="curve" smooth="yes"/>
      <point x="1075" y="747"/>
      <point x="954" y="909"/>
      <point x="729" y="909" type="curve" smooth="yes"/>
      <point x="504" y="909"/>
      <point x="375" y="745"/>
      <point x="375" y="518" type="curve" smooth="yes"/>
      <point x="375" y="288"/>
      <point x="500" y="127"/>
    </contour>
  </outline>
</glyph>
<glyph name="seven" format="1">
  <advance width="2048"/>
  <unicode hex="0037"/>
  <outline>
    <contour>
      <point x="508" y="123" type="curve" smooth="yes"/>
      <point x="508" y="749"/>
      <point x="801" y="1095"/>
      <point x="1022" y="1518" type="curve"/>
      <point x="324" y="1518" type="line"/>
      <point x="289" y="1343" type="line"/>
      <point x="272" y="1301"/>
      <point x="237" y="1268"/>
      <point x="187" y="1268" type="curve" smooth="yes"/>
      <point x="138" y="1268"/>
      <point x="92" y="1292"/>
      <point x="92" y="1341" type="curve" smooth="yes"/>
      <point x="92" y="1355"/>
      <point x="94" y="1368"/>
      <point x="98" y="1380" type="curve"/>
      <point x="150" y="1635" type="line"/>
      <point x="164" y="1683"/>
      <point x="184" y="1713"/>
      <point x="232" y="1713" type="curve" smooth="yes"/>
      <point x="1180" y="1712" type="line" smooth="yes"/>
      <point x="1220" y="1712"/>
      <point x="1266" y="1683"/>
      <point x="1266" y="1637" type="curve" smooth="yes"/>
      <point x="1266" y="1629"/>
      <point x="1265" y="1621"/>
      <point x="1262" y="1612" type="curve" smooth="yes"/>
      <point x="1103" y="1101"/>
      <point x="750" y="801"/>
      <point x="750" y="121" type="curve" smooth="yes"/>
      <point x="750" y="32"/>
      <point x="710" y="-25"/>
      <point x="631" y="-25" type="curve" smooth="yes"/>
      <point x="549" y="-25"/>
      <point x="508" y="35"/>
    </contour>
  </outline>
</glyph>
<glyph name="semicolon" format="1">
  <advance width="2048"/>
  <unicode hex="003B"/>
  <outline>
    <contour>
      <point x="1005" y="367" type="curve" smooth="yes"/>
      <point x="1115" y="367"/>
      <point x="1210" y="292"/>
      <point x="1210" y="145" type="curve" smooth="yes"/>
      <point x="1210" y="-67"/>
      <point x="1087" y="-200"/>
      <point x="936" y="-276" type="curve" smooth="yes"/>
      <point x="920" y="-285"/>
      <point x="904" y="-289"/>
      <point x="889" y="-289" type="curve" smooth="yes"/>
      <point x="846" y="-289"/>
      <point x="814" y="-256"/>
      <point x="814" y="-222" type="curve" smooth="yes"/>
      <point x="814" y="-203"/>
      <point x="824" y="-184"/>
      <point x="845" y="-169" type="curve" smooth="yes"/>
      <point x="922" y="-118"/>
      <point x="1023" y="-52"/>
      <point x="1023" y="62" type="curve"/>
      <point x="915" y="62"/>
      <point x="835" y="109"/>
      <point x="835" y="212" type="curve" smooth="yes"/>
      <point x="835" y="315"/>
      <point x="918" y="367"/>
    </contour>
    <contour>
      <point x="1024" y="760" type="curve" smooth="yes"/>
      <point x="899" y="760"/>
      <point x="809" y="851"/>
      <point x="809" y="975" type="curve" smooth="yes"/>
      <point x="809" y="1099"/>
      <point x="901" y="1190"/>
      <point x="1024" y="1190" type="curve" smooth="yes"/>
      <point x="1147" y="1190"/>
      <point x="1239" y="1097"/>
      <point x="1239" y="975" type="curve" smooth="yes"/>
      <point x="1239" y="851"/>
      <point x="1147" y="760"/>
    </contour>
  </outline>
</glyph>
<glyph name="less" format="1">
  <advance width="2048"/>
  <unicode hex="003C"/>
  <outline>
    <contour>
      <point x="1577" y="183" type="curve" smooth="yes"/>
      <point x="128" y="713" type="line"/>
      <point x="76" y="736"/>
      <point x="46" y="754"/>
      <point x="46" y="807" type="curve" smooth="yes"/>
      <point x="46" y="859"/>
      <point x="80" y="882"/>
      <point x="128" y="900" type="curve" smooth="yes"/>
      <point x="1559" y="1430" type="line" smooth="yes"/>
      <point x="1577" y="1437"/>
      <point x="1595" y="1440"/>
      <point x="1611" y="1440" type="curve" smooth="yes"/>
      <point x="1680" y="1440"/>
      <point x="1724" y="1383"/>
      <point x="1724" y="1325" type="curve" smooth="yes"/>
      <point x="1724" y="1280"/>
      <point x="1698" y="1235"/>
      <point x="1637" y="1213" type="curve" smooth="yes"/>
      <point x="431" y="779" type="line"/>
      <point x="1637" y="367" type="line" smooth="yes"/>
      <point x="1700" y="345"/>
      <point x="1727" y="303"/>
      <point x="1727" y="264" type="curve" smooth="yes"/>
      <point x="1727" y="217"/>
      <point x="1689" y="173"/>
      <point x="1629" y="173" type="curve" smooth="yes"/>
      <point x="1613" y="173"/>
      <point x="1596" y="176"/>
    </contour>
  </outline>
</glyph>
<glyph name="equal" format="1">
  <advance width="2048"/>
  <unicode hex="003D"/>
  <outline>
    <contour>
      <point x="1477.5" y="213" type="line" smooth="yes"/>
      <point x="1535.5" y="213"/>
      <point x="1583.5" y="165"/>
      <point x="1583.5" y="107" type="curve" smooth="yes"/>
      <point x="1583.5" y="48"/>
      <point x="1535.5" y="1"/>
      <point x="1477.5" y="1" type="curve" smooth="yes"/>
      <point x="570.5" y="1" type="line" smooth="yes"/>
      <point x="511.5" y="1"/>
      <point x="464.5" y="48"/>
      <point x="464.5" y="107" type="curve" smooth="yes"/>
      <point x="464.5" y="165"/>
      <point x="511.5" y="213"/>
      <point x="570.5" y="213" type="curve" smooth="yes"/>
    </contour>
    <contour>
      <point x="1477.5" y="736" type="line" smooth="yes"/>
      <point x="1535.5" y="736"/>
      <point x="1583.5" y="688"/>
      <point x="1583.5" y="630" type="curve" smooth="yes"/>
      <point x="1583.5" y="571"/>
      <point x="1535.5" y="524"/>
      <point x="1477.5" y="524" type="curve" smooth="yes"/>
      <point x="570.5" y="524" type="line" smooth="yes"/>
      <point x="511.5" y="524"/>
      <point x="464.5" y="571"/>
      <point x="464.5" y="630" type="curve" smooth="yes"/>
      <point x="464.5" y="688"/>
      <point x="511.5" y="736"/>
      <point x="570.5" y="736" type="curve" smooth="yes"/>
    </contour>
  </outline>
</glyph>
<glyph name="greater" format="1">
  <advance width="2048"/>
  <unicode hex="003E"/>
  <outline>
    <contour>
      <point x="196" y="1430" type="curve" smooth="yes"/>
      <point x="1645" y="901" type="line"/>
      <point x="1697" y="878"/>
      <point x="1727" y="860"/>
      <point x="1727" y="807" type="curve" smooth="yes"/>
      <point x="1727" y="755"/>
      <point x="1693" y="732"/>
      <point x="1645" y="714" type="curve" smooth="yes"/>
      <point x="214" y="183" type="line" smooth="yes"/>
      <point x="195" y="177"/>
      <point x="178" y="173"/>
      <point x="162" y="173" type="curve" smooth="yes"/>
      <point x="93" y="173"/>
      <point x="49" y="230"/>
      <point x="49" y="288" type="curve" smooth="yes"/>
      <point x="49" y="333"/>
      <point x="75" y="379"/>
      <point x="136" y="401" type="curve" smooth="yes"/>
      <point x="1342" y="835" type="line"/>
      <point x="136" y="1247" type="line" smooth="yes"/>
      <point x="72" y="1269"/>
      <point x="46" y="1310"/>
      <point x="46" y="1350" type="curve" smooth="yes"/>
      <point x="46" y="1397"/>
      <point x="84" y="1440"/>
      <point x="144" y="1440" type="curve" smooth="yes"/>
      <point x="160" y="1440"/>
      <point x="177" y="1437"/>
    </contour>
  </outline>
</glyph>
<glyph name="at" format="1">
  <advance width="2048"/>
  <unicode hex="0040"/>
  <outline>
    <contour>
      <point x="1469" y="1208" type="curve"/>
      <point x="1489" y="1266"/>
      <point x="1527" y="1360"/>
      <point x="1602" y="1360" type="curve" smooth="yes"/>
      <point x="1632" y="1360"/>
      <point x="1651" y="1366"/>
      <point x="1674" y="1366" type="curve" smooth="yes"/>
      <point x="1681" y="1366"/>
      <point x="1684" y="1363"/>
      <point x="1684" y="1356" type="curve" smooth="yes"/>
      <point x="1684" y="1309"/>
      <point x="1664" y="1270"/>
      <point x="1649" y="1208" type="curve" smooth="yes"/>
      <point x="1504" y="580" type="line" smooth="yes"/>
      <point x="1499" y="562"/>
      <point x="1496" y="542"/>
      <point x="1496" y="520" type="curve" smooth="yes"/>
      <point x="1496" y="426"/>
      <point x="1557" y="377"/>
      <point x="1659" y="377" type="curve" smooth="yes"/>
      <point x="1950" y="377"/>
      <point x="2059" y="717"/>
      <point x="2059" y="1016" type="curve" smooth="yes"/>
      <point x="2059" y="1467"/>
      <point x="1722" y="1737"/>
      <point x="1258" y="1737" type="curve" smooth="yes"/>
      <point x="666" y="1737"/>
      <point x="224" y="1262"/>
      <point x="224" y="672" type="curve" smooth="yes"/>
      <point x="224" y="154"/>
      <point x="630" y="-176"/>
      <point x="1147" y="-176" type="curve" smooth="yes"/>
      <point x="1540" y="-176"/>
      <point x="1736" y="-22"/>
      <point x="1965" y="125" type="curve"/>
      <point x="1975" y="133"/>
      <point x="1986" y="137"/>
      <point x="2001" y="137" type="curve" smooth="yes"/>
      <point x="2032" y="137"/>
      <point x="2065" y="109"/>
      <point x="2065" y="78" type="curve" smooth="yes"/>
      <point x="2065" y="67"/>
      <point x="2061" y="55"/>
      <point x="2051" y="41" type="curve" smooth="yes"/>
      <point x="1873" y="-186"/>
      <point x="1514" y="-326"/>
      <point x="1117" y="-326" type="curve" smooth="yes"/>
      <point x="792" y="-326"/>
      <point x="530" y="-205"/>
      <point x="352" y="-44" type="curve" smooth="yes"/>
      <point x="176" y="115"/>
      <point x="35" y="355"/>
      <point x="35" y="674" type="curve" smooth="yes"/>
      <point x="35" y="909"/>
      <point x="105" y="1109"/>
      <point x="197" y="1269" type="curve" smooth="yes"/>
      <point x="385" y="1598"/>
      <point x="724" y="1896"/>
      <point x="1231" y="1896" type="curve" smooth="yes"/>
      <point x="1556" y="1896"/>
      <point x="1808" y="1772"/>
      <point x="1974" y="1609" type="curve" smooth="yes"/>
      <point x="2113" y="1472"/>
      <point x="2235" y="1267"/>
      <point x="2235" y="1022" type="curve" smooth="yes"/>
      <point x="2235" y="606"/>
      <point x="2052" y="238"/>
      <point x="1639" y="238" type="curve" smooth="yes"/>
      <point x="1501" y="238"/>
      <point x="1422" y="314"/>
      <point x="1389" y="416" type="curve"/>
      <point x="1318" y="317"/>
      <point x="1203" y="217"/>
      <point x="1035" y="217" type="curve" smooth="yes"/>
      <point x="767" y="217"/>
      <point x="621" y="405"/>
      <point x="621" y="674" type="curve" smooth="yes"/>
      <point x="621" y="985"/>
      <point x="846" y="1315"/>
      <point x="1158" y="1315" type="curve" smooth="yes"/>
      <point x="1290" y="1315"/>
      <point x="1395" y="1266"/>
    </contour>
    <contour>
      <point x="1197" y="1163" type="curve" smooth="yes"/>
      <point x="934" y="1163"/>
      <point x="814" y="927"/>
      <point x="814" y="662" type="curve" smooth="yes"/>
      <point x="814" y="515"/>
      <point x="896" y="377"/>
      <point x="1043" y="377" type="curve" smooth="yes"/>
      <point x="1342" y="377"/>
      <point x="1373" y="650"/>
      <point x="1414" y="907" type="curve" smooth="yes"/>
      <point x="1426" y="981" type="line"/>
      <point x="1426" y="1083"/>
      <point x="1302" y="1163"/>
    </contour>
  </outline>
</glyph>
<glyph name="A" format="1">
  <advance width="2048"/>
  <unicode hex="0041"/>
  <outline>
    <contour>
      <point x="42" y="84" type="curve" smooth="yes"/>
      <point x="42" y="134"/>
      <point x="63" y="176"/>
      <point x="114" y="176" type="curve" smooth="yes"/>
      <point x="253" y="176" type="line"/>
      <point x="915" y="1671" type="line" smooth="yes"/>
      <point x="935" y="1718"/>
      <point x="974" y="1763"/>
      <point x="1038" y="1763" type="curve" smooth="yes"/>
      <point x="1105" y="1763"/>
      <point x="1136" y="1717"/>
      <point x="1156" y="1667" type="curve" smooth="yes"/>
      <point x="1757" y="176" type="line"/>
      <point x="1935" y="176" type="line" smooth="yes"/>
      <point x="1986" y="176"/>
      <point x="2006" y="134"/>
      <point x="2006" y="84" type="curve" smooth="yes"/>
      <point x="2006" y="40"/>
      <point x="1980" y="0"/>
      <point x="1933" y="0" type="curve" smooth="yes"/>
      <point x="1288" y="0" type="line" smooth="yes"/>
      <point x="1241" y="0"/>
      <point x="1214" y="40"/>
      <point x="1214" y="84" type="curve" smooth="yes"/>
      <point x="1214" y="134"/>
      <point x="1235" y="176"/>
      <point x="1286" y="176" type="curve" smooth="yes"/>
      <point x="1505" y="176" type="line"/>
      <point x="1357" y="567" type="line"/>
      <point x="632" y="567" type="line"/>
      <point x="475" y="176" type="line"/>
      <point x="661" y="176" type="line" smooth="yes"/>
      <point x="712" y="176"/>
      <point x="733" y="134"/>
      <point x="733" y="84" type="curve" smooth="yes"/>
      <point x="733" y="40"/>
      <point x="706" y="0"/>
      <point x="659" y="0" type="curve" smooth="yes"/>
      <point x="116" y="0" type="line" smooth="yes"/>
      <point x="69" y="0"/>
      <point x="42" y="40"/>
    </contour>
    <contour>
      <point x="694" y="721" type="line"/>
      <point x="1300" y="721" type="line"/>
      <point x="1007" y="1499" type="line"/>
    </contour>
    <contour>
      <point x="1024" y="1714" type="move" name="top"/>
    </contour>
    <contour>
      <point x="1843" y="10" type="move" name="ogonek"/>
    </contour>
  </outline>
</glyph>
<glyph name="B" format="1">
  <advance width="2048"/>
  <unicode hex="0042"/>
  <outline>
    <contour>
      <point x="1764" y="510" type="curve" smooth="yes"/>
      <point x="1764" y="145"/>
      <point x="1396" y="0"/>
      <point x="1030" y="0" type="curve" smooth="yes"/>
      <point x="123" y="0" type="line" smooth="yes"/>
      <point x="76" y="0"/>
      <point x="49" y="40"/>
      <point x="49" y="84" type="curve" smooth="yes"/>
      <point x="49" y="134"/>
      <point x="70" y="176"/>
      <point x="121" y="176" type="curve" smooth="yes"/>
      <point x="385" y="176" type="line"/>
      <point x="385" y="1538" type="line"/>
      <point x="172" y="1538" type="line" smooth="yes"/>
      <point x="125" y="1538"/>
      <point x="99" y="1578"/>
      <point x="99" y="1622" type="curve" smooth="yes"/>
      <point x="99" y="1672"/>
      <point x="119" y="1714"/>
      <point x="170" y="1714" type="curve" smooth="yes"/>
      <point x="987" y="1714" type="line" smooth="yes"/>
      <point x="1317" y="1714"/>
      <point x="1595" y="1615"/>
      <point x="1595" y="1279" type="curve" smooth="yes"/>
      <point x="1595" y="1111"/>
      <point x="1485" y="1002"/>
      <point x="1354" y="967" type="curve"/>
      <point x="1577" y="936"/>
      <point x="1764" y="803"/>
    </contour>
    <contour>
      <point x="1514" y="532" type="curve" smooth="yes"/>
      <point x="1514" y="835"/>
      <point x="1300" y="866"/>
      <point x="1069" y="866" type="curve" smooth="yes"/>
      <point x="619" y="866" type="line"/>
      <point x="619" y="176" type="line"/>
      <point x="1033" y="176" type="line" smooth="yes"/>
      <point x="1314" y="176"/>
      <point x="1514" y="262"/>
    </contour>
    <contour>
      <point x="1394" y="1267" type="curve" smooth="yes"/>
      <point x="1394" y="1472"/>
      <point x="1238" y="1538"/>
      <point x="1006" y="1538" type="curve" smooth="yes"/>
      <point x="619" y="1538" type="line"/>
      <point x="619" y="995" type="line"/>
      <point x="1069" y="995" type="line" smooth="yes"/>
      <point x="1231" y="995"/>
      <point x="1394" y="1074"/>
    </contour>
  </outline>
</glyph>
<glyph name="D" format="1">
  <advance width="2048"/>
  <unicode hex="0044"/>
  <outline>
    <contour>
      <point x="1618" y="866" type="curve" smooth="yes"/>
      <point x="1618" y="1297"/>
      <point x="1343" y="1538"/>
      <point x="909" y="1538" type="curve" smooth="yes"/>
      <point x="623" y="1538" type="line"/>
      <point x="623" y="176" type="line"/>
      <point x="670" y="173"/>
      <point x="715" y="172"/>
      <point x="760" y="172" type="curve" smooth="yes"/>
      <point x="1268" y="172"/>
      <point x="1618" y="346"/>
    </contour>
    <contour>
      <point x="1860" y="866" type="curve" smooth="yes"/>
      <point x="1860" y="301"/>
      <point x="1448" y="0"/>
      <point x="881" y="0" type="curve" smooth="yes"/>
      <point x="123" y="0" type="line" smooth="yes"/>
      <point x="76" y="0"/>
      <point x="49" y="40"/>
      <point x="49" y="84" type="curve" smooth="yes"/>
      <point x="49" y="134"/>
      <point x="70" y="176"/>
      <point x="121" y="176" type="curve" smooth="yes"/>
      <point x="389" y="176" type="line"/>
      <point x="389" y="1538" type="line"/>
      <point x="186" y="1538" type="line" smooth="yes"/>
      <point x="135" y="1538"/>
      <point x="115" y="1580"/>
      <point x="115" y="1630" type="curve" smooth="yes"/>
      <point x="115" y="1674"/>
      <point x="142" y="1714"/>
      <point x="189" y="1714" type="curve" smooth="yes"/>
      <point x="881" y="1714" type="line" smooth="yes"/>
      <point x="1460" y="1714"/>
      <point x="1860" y="1438"/>
    </contour>
    <contour>
      <point x="1024" y="1714" type="move" name="top"/>
    </contour>
    <contour>
      <point x="1024" y="857" type="move" name="center"/>
    </contour>
  </outline>
</glyph>
<glyph name="F" format="1">
  <advance width="2048"/>
  <unicode hex="0046"/>
  <outline>
    <contour>
      <point x="983" y="0" type="curve" smooth="yes"/>
      <point x="123" y="0" type="line" smooth="yes"/>
      <point x="76" y="0"/>
      <point x="49" y="40"/>
      <point x="49" y="84" type="curve" smooth="yes"/>
      <point x="49" y="134"/>
      <point x="70" y="176"/>
      <point x="121" y="176" type="curve" smooth="yes"/>
      <point x="447" y="176" type="line"/>
      <point x="447" y="1538" type="line"/>
      <point x="203" y="1538" type="line" smooth="yes"/>
      <point x="152" y="1538"/>
      <point x="131" y="1580"/>
      <point x="131" y="1630" type="curve" smooth="yes"/>
      <point x="131" y="1674"/>
      <point x="158" y="1714"/>
      <point x="205" y="1714" type="curve" smooth="yes"/>
      <point x="1655" y="1714" type="line" smooth="yes"/>
      <point x="1703" y="1714"/>
      <point x="1721" y="1683"/>
      <point x="1737" y="1636" type="curve"/>
      <point x="1813" y="1319" type="line" smooth="yes"/>
      <point x="1817" y="1304"/>
      <point x="1819" y="1291"/>
      <point x="1819" y="1280" type="curve" smooth="yes"/>
      <point x="1819" y="1236"/>
      <point x="1788" y="1206"/>
      <point x="1745" y="1206" type="curve" smooth="yes"/>
      <point x="1695" y="1206"/>
      <point x="1660" y="1240"/>
      <point x="1643" y="1282" type="curve"/>
      <point x="1555" y="1538" type="line"/>
      <point x="680" y="1538" type="line"/>
      <point x="680" y="928" type="line"/>
      <point x="1020" y="928" type="line"/>
      <point x="1071" y="1114" type="line" smooth="yes"/>
      <point x="1082" y="1151"/>
      <point x="1109" y="1182"/>
      <point x="1151" y="1182" type="curve" smooth="yes"/>
      <point x="1196" y="1182"/>
      <point x="1221" y="1149"/>
      <point x="1221" y="1102" type="curve"/>
      <point x="1207" y="860" type="line"/>
      <point x="1221" y="610" type="line"/>
      <point x="1221" y="563"/>
      <point x="1196" y="530"/>
      <point x="1151" y="530" type="curve" smooth="yes"/>
      <point x="1109" y="530"/>
      <point x="1082" y="561"/>
      <point x="1071" y="598" type="curve" smooth="yes"/>
      <point x="1020" y="784" type="line"/>
      <point x="680" y="784" type="line"/>
      <point x="680" y="176" type="line"/>
      <point x="985" y="176" type="line" smooth="yes"/>
      <point x="1036" y="176"/>
      <point x="1057" y="134"/>
      <point x="1057" y="84" type="curve" smooth="yes"/>
      <point x="1057" y="40"/>
      <point x="1030" y="0"/>
    </contour>
  </outline>
</glyph>
<glyph name="H" format="1">
  <advance width="2049"/>
  <unicode hex="0048"/>
  <outline>
    <contour>
      <point x="88" y="84" type="curve" smooth="yes"/>
      <point x="88" y="134"/>
      <point x="109" y="176"/>
      <point x="160" y="176" type="curve" smooth="yes"/>
      <point x="383" y="176" type="line"/>
      <point x="383" y="1538" type="line"/>
      <point x="181" y="1538" type="line" smooth="yes"/>
      <point x="130" y="1538"/>
      <point x="109" y="1580"/>
      <point x="109" y="1630" type="curve" smooth="yes"/>
      <point x="109" y="1674"/>
      <point x="136" y="1714"/>
      <point x="183" y="1714" type="curve" smooth="yes"/>
      <point x="818" y="1714" type="line" smooth="yes"/>
      <point x="865" y="1714"/>
      <point x="891" y="1674"/>
      <point x="891" y="1630" type="curve" smooth="yes"/>
      <point x="891" y="1580"/>
      <point x="871" y="1538"/>
      <point x="820" y="1538" type="curve" smooth="yes"/>
      <point x="617" y="1538" type="line"/>
      <point x="617" y="963" type="line"/>
      <point x="1474" y="963" type="line"/>
      <point x="1474" y="1538" type="line"/>
      <point x="1271" y="1538" type="line" smooth="yes"/>
      <point x="1220" y="1538"/>
      <point x="1199" y="1580"/>
      <point x="1199" y="1630" type="curve" smooth="yes"/>
      <point x="1199" y="1674"/>
      <point x="1226" y="1714"/>
      <point x="1273" y="1714" type="curve" smooth="yes"/>
      <point x="1887" y="1714" type="line" smooth="yes"/>
      <point x="1934" y="1714"/>
      <point x="1961" y="1674"/>
      <point x="1961" y="1630" type="curve" smooth="yes"/>
      <point x="1961" y="1580"/>
      <point x="1940" y="1538"/>
      <point x="1889" y="1538" type="curve" smooth="yes"/>
      <point x="1707" y="1538" type="line"/>
      <point x="1707" y="176" type="line"/>
      <point x="1889" y="176" type="line" smooth="yes"/>
      <point x="1940" y="176"/>
      <point x="1961" y="134"/>
      <point x="1961" y="84" type="curve" smooth="yes"/>
      <point x="1961" y="40"/>
      <point x="1934" y="0"/>
      <point x="1887" y="0" type="curve" smooth="yes"/>
      <point x="1273" y="0" type="line" smooth="yes"/>
      <point x="1226" y="0"/>
      <point x="1199" y="40"/>
      <point x="1199" y="84" type="curve" smooth="yes"/>
      <point x="1199" y="134"/>
      <point x="1220" y="176"/>
      <point x="1271" y="176" type="curve" smooth="yes"/>
      <point x="1474" y="176" type="line"/>
      <point x="1474" y="788" type="line"/>
      <point x="617" y="788" type="line"/>
      <point x="617" y="176" type="line"/>
      <point x="820" y="176" type="line" smooth="yes"/>
      <point x="871" y="176"/>
      <point x="891" y="134"/>
      <point x="891" y="84" type="curve" smooth="yes"/>
      <point x="891" y="40"/>
      <point x="865" y="0"/>
      <point x="818" y="0" type="curve" smooth="yes"/>
      <point x="162" y="0" type="line" smooth="yes"/>
      <point x="115" y="0"/>
      <point x="88" y="40"/>
    </contour>
    <contour>
      <point x="987" y="1714" type="move" name="top"/>
    </contour>
    <contour>
      <point x="987" y="857" type="move" name="center"/>
    </contour>
  </outline>
</glyph>
<glyph name="I" format="1">
  <advance width="2048"/>
  <unicode hex="0049"/>
  <outline>
    <contour>
      <point x="592" y="84" type="curve" smooth="yes"/>
      <point x="592" y="134"/>
      <point x="612" y="176"/>
      <point x="663" y="176" type="curve" smooth="yes"/>
      <point x="907" y="176" type="line"/>
      <point x="907" y="1538" type="line"/>
      <point x="663" y="1538" type="line" smooth="yes"/>
      <point x="612" y="1538"/>
      <point x="592" y="1580"/>
      <point x="592" y="1630" type="curve" smooth="yes"/>
      <point x="592" y="1674"/>
      <point x="618" y="1714"/>
      <point x="665" y="1714" type="curve" smooth="yes"/>
      <point x="1382" y="1714" type="line" smooth="yes"/>
      <point x="1429" y="1714"/>
      <point x="1456" y="1674"/>
      <point x="1456" y="1630" type="curve" smooth="yes"/>
      <point x="1456" y="1580"/>
      <point x="1435" y="1538"/>
      <point x="1384" y="1538" type="curve" smooth="yes"/>
      <point x="1141" y="1538" type="line"/>
      <point x="1141" y="176" type="line"/>
      <point x="1384" y="176" type="line" smooth="yes"/>
      <point x="1435" y="176"/>
      <point x="1456" y="134"/>
      <point x="1456" y="84" type="curve" smooth="yes"/>
      <point x="1456" y="40"/>
      <point x="1429" y="0"/>
      <point x="1382" y="0" type="curve" smooth="yes"/>
      <point x="665" y="0" type="line" smooth="yes"/>
      <point x="618" y="0"/>
      <point x="592" y="40"/>
    </contour>
    <contour>
      <point x="1024" y="1714" type="move" name="top"/>
    </contour>
    <contour>
      <point x="1843" y="10" type="move" name="ogonek"/>
    </contour>
  </outline>
</glyph>
<glyph name="J" format="1">
  <advance width="2048"/>
  <unicode hex="004A"/>
  <outline>
    <contour>
      <point x="965" y="443" type="line" smooth="yes"/>
      <point x="965" y="24"/>
      <point x="745" y="-158"/>
      <point x="461" y="-158" type="curve" smooth="yes"/>
      <point x="257" y="-158"/>
      <point x="85" y="-47"/>
      <point x="85" y="93" type="curve" smooth="yes"/>
      <point x="85" y="226" type="line" smooth="yes"/>
      <point x="85" y="303"/>
      <point x="118" y="343"/>
      <point x="202" y="343" type="curve" smooth="yes"/>
      <point x="266" y="343"/>
      <point x="323" y="311"/>
      <point x="323" y="249" type="curve" smooth="yes"/>
      <point x="323" y="122" type="line"/>
      <point x="324" y="73"/>
      <point x="394" y="31"/>
      <point x="476" y="31" type="curve" smooth="yes"/>
      <point x="592" y="31"/>
      <point x="732" y="123"/>
      <point x="732" y="417" type="curve" smooth="yes"/>
      <point x="732" y="1538" type="line"/>
      <point x="410" y="1538" type="line" smooth="yes"/>
      <point x="359" y="1538"/>
      <point x="339" y="1580"/>
      <point x="339" y="1630" type="curve" smooth="yes"/>
      <point x="339" y="1674"/>
      <point x="365" y="1714"/>
      <point x="412" y="1714" type="curve" smooth="yes"/>
      <point x="1228" y="1714" type="line" smooth="yes"/>
      <point x="1275" y="1714"/>
      <point x="1301" y="1674"/>
      <point x="1301" y="1630" type="curve" smooth="yes"/>
      <point x="1301" y="1580"/>
      <point x="1281" y="1538"/>
      <point x="1230" y="1538" type="curve" smooth="yes"/>
      <point x="965" y="1538" type="line"/>
    </contour>
    <contour>
      <point x="1024" y="1714" type="move" name="top"/>
    </contour>
  </outline>
</glyph>
<glyph name="K" format="1">
  <advance width="2048"/>
  <unicode hex="004B"/>
  <outline>
    <contour>
      <point x="49" y="84" type="curve" smooth="yes"/>
      <point x="49" y="134"/>
      <point x="70" y="176"/>
      <point x="121" y="176" type="curve" smooth="yes"/>
      <point x="340" y="176" type="line"/>
      <point x="340" y="1538" type="line"/>
      <point x="121" y="1538" type="line" smooth="yes"/>
      <point x="70" y="1538"/>
      <point x="49" y="1580"/>
      <point x="49" y="1630" type="curve" smooth="yes"/>
      <point x="49" y="1674"/>
      <point x="76" y="1714"/>
      <point x="123" y="1714" type="curve" smooth="yes"/>
      <point x="774" y="1714" type="line" smooth="yes"/>
      <point x="821" y="1714"/>
      <point x="848" y="1674"/>
      <point x="848" y="1630" type="curve" smooth="yes"/>
      <point x="848" y="1580"/>
      <point x="828" y="1538"/>
      <point x="777" y="1538" type="curve" smooth="yes"/>
      <point x="574" y="1538" type="line"/>
      <point x="574" y="842" type="line"/>
      <point x="1366" y="1499" type="line" smooth="yes"/>
      <point x="1372" y="1505"/>
      <point x="1381" y="1517"/>
      <point x="1381" y="1530" type="curve" smooth="yes"/>
      <point x="1381" y="1545"/>
      <point x="1370" y="1552"/>
      <point x="1348" y="1552" type="curve" smooth="yes"/>
      <point x="1278" y="1552" type="line" smooth="yes"/>
      <point x="1230" y="1552"/>
      <point x="1207" y="1578"/>
      <point x="1207" y="1630" type="curve" smooth="yes"/>
      <point x="1207" y="1674"/>
      <point x="1233" y="1714"/>
      <point x="1280" y="1714" type="curve" smooth="yes"/>
      <point x="1809" y="1714" type="line" smooth="yes"/>
      <point x="1856" y="1714"/>
      <point x="1882" y="1674"/>
      <point x="1882" y="1630" type="curve" smooth="yes"/>
      <point x="1882" y="1580"/>
      <point x="1862" y="1538"/>
      <point x="1811" y="1538" type="curve" smooth="yes"/>
      <point x="1653" y="1538" type="line"/>
      <point x="1047" y="1016" type="line"/>
      <point x="1833" y="176" type="line"/>
      <point x="1975" y="176" type="line" smooth="yes"/>
      <point x="2026" y="176"/>
      <point x="2046" y="134"/>
      <point x="2046" y="84" type="curve" smooth="yes"/>
      <point x="2046" y="40"/>
      <point x="2020" y="0"/>
      <point x="1973" y="0" type="curve" smooth="yes"/>
      <point x="1362" y="0" type="line" smooth="yes"/>
      <point x="1315" y="0"/>
      <point x="1289" y="40"/>
      <point x="1289" y="84" type="curve" smooth="yes"/>
      <point x="1289" y="134"/>
      <point x="1309" y="176"/>
      <point x="1360" y="176" type="curve" smooth="yes"/>
      <point x="1559" y="176" type="line"/>
      <point x="897" y="911" type="line"/>
      <point x="574" y="662" type="line"/>
      <point x="574" y="176" type="line"/>
      <point x="858" y="176" type="line" smooth="yes"/>
      <point x="909" y="176"/>
      <point x="930" y="134"/>
      <point x="930" y="84" type="curve" smooth="yes"/>
      <point x="930" y="40"/>
      <point x="903" y="0"/>
      <point x="856" y="0" type="curve" smooth="yes"/>
      <point x="123" y="0" type="line" smooth="yes"/>
      <point x="76" y="0"/>
      <point x="49" y="40"/>
    </contour>
    <contour>
      <point x="1024" y="1714" type="move" name="top"/>
    </contour>
    <contour>
      <point x="1024" y="0" type="move" name="bottom"/>
    </contour>
  </outline>
</glyph>
<glyph name="N" format="1">
  <advance width="2048"/>
  <unicode hex="004E"/>
  <outline>
    <contour>
      <point x="48" y="1630" type="curve" smooth="yes"/>
      <point x="48" y="1674"/>
      <point x="75" y="1714"/>
      <point x="122" y="1714" type="curve" smooth="yes"/>
      <point x="585" y="1714" type="line" smooth="yes"/>
      <point x="617" y="1714"/>
      <point x="632" y="1704"/>
      <point x="644" y="1679" type="curve"/>
      <point x="1523" y="426" type="line"/>
      <point x="1523" y="1538" type="line"/>
      <point x="1343" y="1538" type="line" smooth="yes"/>
      <point x="1292" y="1538"/>
      <point x="1271" y="1580"/>
      <point x="1271" y="1630" type="curve" smooth="yes"/>
      <point x="1271" y="1674"/>
      <point x="1298" y="1714"/>
      <point x="1345" y="1714" type="curve" smooth="yes"/>
      <point x="1927" y="1714" type="line" smooth="yes"/>
      <point x="1974" y="1714"/>
      <point x="2000" y="1674"/>
      <point x="2000" y="1630" type="curve" smooth="yes"/>
      <point x="2000" y="1580"/>
      <point x="1980" y="1538"/>
      <point x="1929" y="1538" type="curve" smooth="yes"/>
      <point x="1730" y="1538" type="line"/>
      <point x="1730" y="53" type="line" smooth="yes"/>
      <point x="1730" y="2"/>
      <point x="1689" y="-37"/>
      <point x="1640" y="-37" type="curve" smooth="yes"/>
      <point x="1597" y="-37"/>
      <point x="1568" y="-13"/>
      <point x="1548" y="16" type="curve" smooth="yes"/>
      <point x="530" y="1456" type="line"/>
      <point x="530" y="176" type="line"/>
      <point x="706" y="176" type="line" smooth="yes"/>
      <point x="757" y="176"/>
      <point x="778" y="134"/>
      <point x="778" y="84" type="curve" smooth="yes"/>
      <point x="778" y="40"/>
      <point x="751" y="0"/>
      <point x="704" y="0" type="curve" smooth="yes"/>
      <point x="122" y="0" type="line" smooth="yes"/>
      <point x="75" y="0"/>
      <point x="48" y="40"/>
      <point x="48" y="84" type="curve" smooth="yes"/>
      <point x="48" y="134"/>
      <point x="69" y="176"/>
      <point x="120" y="176" type="curve" smooth="yes"/>
      <point x="319" y="176" type="line"/>
      <point x="319" y="1538" type="line"/>
      <point x="120" y="1538" type="line" smooth="yes"/>
      <point x="69" y="1538"/>
      <point x="48" y="1580"/>
    </contour>
    <contour>
      <point x="1024" y="1714" type="move" name="top"/>
    </contour>
    <contour>
      <point x="1024" y="0" type="move" name="bottom"/>
    </contour>
  </outline>
</glyph>
<glyph name="O" format="1">
  <advance width="2048"/>
  <unicode hex="004F"/>
  <outline>
    <contour>
      <point x="496" y="-25"/>
      <point x="171" y="320"/>
      <point x="171" y="850" type="curve" smooth="yes"/>
      <point x="171" y="1382"/>
      <point x="496" y="1739"/>
      <point x="1020" y="1739" type="curve" smooth="yes"/>
      <point x="1550" y="1739"/>
      <point x="1867" y="1382"/>
      <point x="1867" y="850" type="curve" smooth="yes"/>
      <point x="1867" y="320"/>
      <point x="1548" y="-25"/>
      <point x="1020" y="-25" type="curve" smooth="yes"/>
    </contour>
    <contour>
      <point x="421" y="843" type="curve" smooth="yes"/>
      <point x="421" y="501"/>
      <point x="615" y="164"/>
      <point x="1004" y="164" type="curve" smooth="yes"/>
      <point x="1012" y="164"/>
      <point x="1020" y="164"/>
      <point x="1028" y="164" type="curve"/>
      <point x="1226" y="164"/>
      <point x="1220" y="1550"/>
      <point x="1011" y="1550" type="curve"/>
      <point x="617" y="1536"/>
      <point x="421" y="1188"/>
    </contour>
    <contour>
      <point x="1024" y="1714" type="move" name="top"/>
    </contour>
  </outline>
</glyph>
<glyph name="Q" format="1">
  <advance width="2048"/>
  <unicode hex="0051"/>
  <outline>
    <contour>
      <point x="1024" y="1550" type="curve" smooth="yes"/>
      <point x="621" y="1550"/>
      <point x="389" y="1255"/>
      <point x="389" y="850" type="curve" smooth="yes"/>
      <point x="389" y="444"/>
      <point x="622" y="164"/>
      <point x="1024" y="164" type="curve" smooth="yes"/>
      <point x="1434" y="164"/>
      <point x="1679" y="439"/>
      <point x="1679" y="850" type="curve" smooth="yes"/>
      <point x="1679" y="1263"/>
      <point x="1434" y="1550"/>
    </contour>
    <contour>
      <point x="1190" y="-13" type="curve"/>
      <point x="1418" y="-161" type="line"/>
      <point x="1451" y="-178"/>
      <point x="1488" y="-183"/>
      <point x="1526" y="-183" type="curve" smooth="yes"/>
      <point x="1586" y="-183"/>
      <point x="1657" y="-154"/>
      <point x="1739" y="-95" type="curve" smooth="yes"/>
      <point x="1751" y="-87"/>
      <point x="1765" y="-83"/>
      <point x="1780" y="-83" type="curve" smooth="yes"/>
      <point x="1836" y="-83"/>
      <point x="1889" y="-136"/>
      <point x="1889" y="-191" type="curve" smooth="yes"/>
      <point x="1889" y="-314"/>
      <point x="1618" y="-384"/>
      <point x="1514" y="-384" type="curve" smooth="yes"/>
      <point x="1247" y="-384"/>
      <point x="1127" y="-91"/>
      <point x="928" y="-21" type="curve"/>
      <point x="451" y="18"/>
      <point x="127" y="352"/>
      <point x="127" y="850" type="curve" smooth="yes"/>
      <point x="127" y="1382"/>
      <point x="494" y="1739"/>
      <point x="1024" y="1739" type="curve" smooth="yes"/>
      <point x="1554" y="1739"/>
      <point x="1921" y="1382"/>
      <point x="1921" y="850" type="curve" smooth="yes"/>
      <point x="1921" y="377"/>
      <point x="1629" y="52"/>
    </contour>
  </outline>
</glyph>
<glyph name="R" format="1">
  <advance width="2048"/>
  <unicode hex="0052"/>
  <outline>
    <contour>
      <point x="762" y="942" type="line" smooth="yes"/>
      <point x="1067" y="942"/>
      <point x="1338" y="947"/>
      <point x="1338" y="1239" type="curve" smooth="yes"/>
      <point x="1338" y="1537"/>
      <point x="1022" y="1538"/>
      <point x="725" y="1538" type="curve" smooth="yes"/>
      <point x="578" y="1538" type="line"/>
      <point x="578" y="942" type="line"/>
    </contour>
    <contour>
      <point x="1581" y="1249" type="curve" smooth="yes"/>
      <point x="1581" y="976"/>
      <point x="1361" y="861"/>
      <point x="1101" y="816" type="curve"/>
      <point x="1268" y="774"/>
      <point x="1343" y="686"/>
      <point x="1403" y="540" type="curve" smooth="yes"/>
      <point x="1553" y="177" type="line"/>
      <point x="1700" y="177" type="line" smooth="yes"/>
      <point x="1780" y="177"/>
      <point x="1808" y="153"/>
      <point x="1808" y="84" type="curve" smooth="yes"/>
      <point x="1808" y="9"/>
      <point x="1764" y="0"/>
      <point x="1701" y="0" type="curve" smooth="yes"/>
      <point x="1187" y="0" type="line" smooth="yes"/>
      <point x="1140" y="0"/>
      <point x="1113" y="40"/>
      <point x="1113" y="84" type="curve" smooth="yes"/>
      <point x="1113" y="134"/>
      <point x="1134" y="177"/>
      <point x="1185" y="177" type="curve" smooth="yes"/>
      <point x="1314" y="177" type="line"/>
      <point x="1202" y="460" type="line" smooth="yes"/>
      <point x="1142" y="611"/>
      <point x="1059" y="764"/>
      <point x="805" y="764" type="curve" smooth="yes"/>
      <point x="578" y="764" type="line"/>
      <point x="578" y="177" type="line"/>
      <point x="842" y="177" type="line" smooth="yes"/>
      <point x="893" y="177"/>
      <point x="914" y="134"/>
      <point x="914" y="84" type="curve" smooth="yes"/>
      <point x="914" y="40"/>
      <point x="887" y="0"/>
      <point x="840" y="0" type="curve" smooth="yes"/>
      <point x="123" y="0" type="line" smooth="yes"/>
      <point x="76" y="0"/>
      <point x="49" y="40"/>
      <point x="49" y="84" type="curve" smooth="yes"/>
      <point x="49" y="134"/>
      <point x="70" y="177"/>
      <point x="121" y="177" type="curve" smooth="yes"/>
      <point x="344" y="177" type="line"/>
      <point x="344" y="1538" type="line"/>
      <point x="162" y="1538" type="line" smooth="yes"/>
      <point x="111" y="1538"/>
      <point x="90" y="1580"/>
      <point x="90" y="1630" type="curve" smooth="yes"/>
      <point x="90" y="1674"/>
      <point x="117" y="1714"/>
      <point x="164" y="1714" type="curve" smooth="yes"/>
      <point x="756" y="1714" type="line" smooth="yes"/>
      <point x="1191" y="1714"/>
      <point x="1581" y="1678"/>
    </contour>
    <contour>
      <point x="1024" y="1714" type="move" name="top"/>
    </contour>
    <contour>
      <point x="1024" y="0" type="move" name="bottom"/>
    </contour>
  </outline>
</glyph>
<glyph name="Y" format="1">
  <advance width="2048"/>
  <unicode hex="0059"/>
  <outline>
    <contour>
      <point x="1874" y="1630" type="curve" smooth="yes"/>
      <point x="1874" y="1580"/>
      <point x="1853" y="1538"/>
      <point x="1802" y="1538" type="curve" smooth="yes"/>
      <point x="1663" y="1538" type="line"/>
      <point x="1166" y="723" type="line"/>
      <point x="1166" y="176" type="line"/>
      <point x="1389" y="176" type="line" smooth="yes"/>
      <point x="1440" y="176"/>
      <point x="1460" y="134"/>
      <point x="1460" y="84" type="curve" smooth="yes"/>
      <point x="1460" y="40"/>
      <point x="1434" y="0"/>
      <point x="1387" y="0" type="curve" smooth="yes"/>
      <point x="670" y="0" type="line" smooth="yes"/>
      <point x="623" y="0"/>
      <point x="596" y="40"/>
      <point x="596" y="84" type="curve" smooth="yes"/>
      <point x="596" y="134"/>
      <point x="617" y="176"/>
      <point x="668" y="176" type="curve" smooth="yes"/>
      <point x="932" y="176" type="line"/>
      <point x="932" y="739" type="line"/>
      <point x="457" y="1538" type="line"/>
      <point x="246" y="1538" type="line" smooth="yes"/>
      <point x="195" y="1538"/>
      <point x="174" y="1580"/>
      <point x="174" y="1630" type="curve" smooth="yes"/>
      <point x="174" y="1674"/>
      <point x="201" y="1714"/>
      <point x="248" y="1714" type="curve" smooth="yes"/>
      <point x="842" y="1714" type="line" smooth="yes"/>
      <point x="889" y="1714"/>
      <point x="916" y="1674"/>
      <point x="916" y="1630" type="curve" smooth="yes"/>
      <point x="916" y="1580"/>
      <point x="895" y="1538"/>
      <point x="844" y="1538" type="curve" smooth="yes"/>
      <point x="703" y="1538" type="line"/>
      <point x="1088" y="891" type="line"/>
      <point x="1469" y="1538" type="line"/>
      <point x="1307" y="1538" type="line" smooth="yes"/>
      <point x="1256" y="1538"/>
      <point x="1235" y="1580"/>
      <point x="1235" y="1630" type="curve" smooth="yes"/>
      <point x="1235" y="1674"/>
      <point x="1262" y="1714"/>
      <point x="1309" y="1714" type="curve" smooth="yes"/>
      <point x="1800" y="1714" type="line" smooth="yes"/>
      <point x="1847" y="1714"/>
      <point x="1874" y="1674"/>
    </contour>
    <contour>
      <point x="1024" y="1714" type="move" name="top"/>
    </contour>
  </outline>
</glyph>
<glyph name="Z" format="1">
  <advance width="2048"/>
  <unicode hex="005A"/>
  <outline>
    <contour>
      <point x="163" y="1239" type="curve" smooth="yes"/>
      <point x="162" y="1634" type="line"/>
      <point x="163" y="1675"/>
      <point x="187" y="1714"/>
      <point x="265" y="1714" type="curve" smooth="yes"/>
      <point x="1395" y="1714" type="line" smooth="yes"/>
      <point x="1442" y="1714"/>
      <point x="1469" y="1674"/>
      <point x="1469" y="1630" type="curve" smooth="yes"/>
      <point x="1469" y="1603"/>
      <point x="1465" y="1579"/>
      <point x="1453" y="1565" type="curve"/>
      <point x="390" y="176" type="line"/>
      <point x="1326" y="176" type="line"/>
      <point x="1402" y="547" type="line"/>
      <point x="1415" y="591"/>
      <point x="1454" y="623"/>
      <point x="1504" y="623" type="curve" smooth="yes"/>
      <point x="1546" y="623"/>
      <point x="1578" y="594"/>
      <point x="1578" y="549" type="curve" smooth="yes"/>
      <point x="1578" y="535"/>
      <point x="1576" y="522"/>
      <point x="1572" y="510" type="curve"/>
      <point x="1529" y="78" type="line"/>
      <point x="1515" y="30"/>
      <point x="1494" y="0"/>
      <point x="1447" y="0" type="curve" smooth="yes"/>
      <point x="167" y="0" type="line" smooth="yes"/>
      <point x="124" y="0"/>
      <point x="91" y="53"/>
      <point x="91" y="102" type="curve" smooth="yes"/>
      <point x="91" y="137"/>
      <point x="106" y="175"/>
      <point x="136" y="213" type="curve" smooth="yes"/>
      <point x="1154" y="1538" type="line"/>
      <point x="357" y="1538" type="line"/>
      <point x="318" y="1241" type="line"/>
      <point x="304" y="1202"/>
      <point x="278" y="1165"/>
      <point x="236" y="1165" type="curve" smooth="yes"/>
      <point x="195" y="1165"/>
      <point x="163" y="1196"/>
    </contour>
    <contour>
      <point x="1024" y="1714" type="move" name="top"/>
    </contour>
  </outline>
</glyph>
<glyph name="backslash" format="1">
  <advance width="2048"/>
  <unicode hex="005C"/>
  <outline>
    <contour>
      <point x="-49" y="1804" type="curve" smooth="yes"/>
      <point x="-49" y="1854"/>
      <point x="7" y="1890"/>
      <point x="54" y="1890" type="curve" smooth="yes"/>
      <point x="81" y="1890"/>
      <point x="101" y="1877"/>
      <point x="115" y="1851" type="curve"/>
      <point x="1223" y="-463" type="line" smooth="yes"/>
      <point x="1228" y="-473"/>
      <point x="1231" y="-483"/>
      <point x="1231" y="-494" type="curve" smooth="yes"/>
      <point x="1231" y="-542"/>
      <point x="1174" y="-580"/>
      <point x="1127" y="-580" type="curve" smooth="yes"/>
      <point x="1092" y="-580"/>
      <point x="1074" y="-561"/>
      <point x="1059" y="-532" type="curve"/>
      <point x="-43" y="1776" type="line" smooth="yes"/>
      <point x="-47" y="1786"/>
      <point x="-49" y="1794"/>
    </contour>
  </outline>
</glyph>
<glyph name="underscore" format="1">
  <advance width="2048"/>
  <unicode hex="005F"/>
  <outline>
    <contour>
      <point x="1072" y="213" type="line" smooth="yes"/>
      <point x="1130" y="213"/>
      <point x="1178" y="165"/>
      <point x="1178" y="107" type="curve" smooth="yes"/>
      <point x="1178" y="48"/>
      <point x="1130" y="1"/>
      <point x="1072" y="1" type="curve" smooth="yes"/>
      <point x="165" y="1" type="line" smooth="yes"/>
      <point x="106" y="1"/>
      <point x="59" y="48"/>
      <point x="59" y="107" type="curve" smooth="yes"/>
      <point x="59" y="165"/>
      <point x="106" y="213"/>
      <point x="165" y="213" type="curve" smooth="yes"/>
    </contour>
  </outline>
</glyph>
<glyph name="grave" format="1">
  <advance width="2048"/>
  <unicode hex="0060"/>
  <outline>
    <contour>
      <point x="601" y="1479" type="curve" smooth="yes"/>
      <point x="601" y="1454"/>
      <point x="578" y="1427"/>
      <point x="552" y="1427" type="curve" smooth="yes"/>
      <point x="545" y="1427"/>
      <point x="539" y="1430"/>
      <point x="534" y="1434" type="curve" smooth="yes"/>
      <point x="372" y="1527"/>
      <point x="193" y="1643"/>
      <point x="36" y="1741" type="curve" smooth="yes"/>
      <point x="18" y="1753"/>
      <point x="9" y="1768"/>
      <point x="9" y="1786" type="curve" smooth="yes"/>
      <point x="9" y="1827"/>
      <point x="51" y="1870"/>
      <point x="93" y="1870" type="curve" smooth="yes"/>
      <point x="109" y="1870"/>
      <point x="123" y="1865"/>
      <point x="134" y="1855" type="curve" smooth="yes"/>
      <point x="270" y="1738"/>
      <point x="435" y="1609"/>
      <point x="585" y="1509" type="curve" smooth="yes"/>
      <point x="596" y="1502"/>
      <point x="601" y="1493"/>
    </contour>
    <contour>
      <point x="305" y="1160" type="move" name="_top"/>
    </contour>
  </outline>
</glyph>
<glyph name="a" format="1">
  <advance width="2048"/>
  <unicode hex="0061"/>
  <outline>
    <contour>
      <point x="1370" y="168" type="curve" smooth="yes"/>
      <point x="1370" y="61"/>
      <point x="1181" y="-25"/>
      <point x="1090" y="-25" type="curve" smooth="yes"/>
      <point x="980" y="-25"/>
      <point x="914" y="27"/>
      <point x="890" y="137" type="curve"/>
      <point x="792" y="24"/>
      <point x="626" y="-28"/>
      <point x="447" y="-28" type="curve" smooth="yes"/>
      <point x="242" y="-28"/>
      <point x="89" y="107"/>
      <point x="89" y="307" type="curve" smooth="yes"/>
      <point x="89" y="666"/>
      <point x="528" y="688"/>
      <point x="863" y="717" type="curve"/>
      <point x="863" y="879" type="line" smooth="yes"/>
      <point x="863" y="984"/>
      <point x="755" y="1018"/>
      <point x="652" y="1018" type="curve" smooth="yes"/>
      <point x="464" y="1018"/>
      <point x="399" y="979"/>
      <point x="271" y="897" type="curve" smooth="yes"/>
      <point x="259" y="890"/>
      <point x="248" y="886"/>
      <point x="236" y="886" type="curve" smooth="yes"/>
      <point x="190" y="886"/>
      <point x="148" y="938"/>
      <point x="148" y="985" type="curve" smooth="yes"/>
      <point x="148" y="1146"/>
      <point x="457" y="1188"/>
      <point x="623" y="1188" type="curve" smooth="yes"/>
      <point x="962" y="1188"/>
      <point x="1062" y="1058"/>
      <point x="1062" y="723" type="curve" smooth="yes"/>
      <point x="1062" y="219" type="line" smooth="yes"/>
      <point x="1062" y="178"/>
      <point x="1075" y="147"/>
      <point x="1106" y="147" type="curve" smooth="yes"/>
      <point x="1166" y="147"/>
      <point x="1251" y="255"/>
      <point x="1299" y="255" type="curve" smooth="yes"/>
      <point x="1329" y="255"/>
      <point x="1370" y="205"/>
    </contour>
    <contour>
      <point x="863" y="567" type="line"/>
      <point x="651" y="544"/>
      <point x="304" y="538"/>
      <point x="304" y="313" type="curve" smooth="yes"/>
      <point x="304" y="199"/>
      <point x="401" y="145"/>
      <point x="517" y="145" type="curve" smooth="yes"/>
      <point x="657" y="145"/>
      <point x="771" y="203"/>
      <point x="863" y="276" type="curve"/>
    </contour>
    <contour>
      <point x="1024" y="1160" type="move" name="top"/>
    </contour>
    <contour>
      <point x="1843" y="10" type="move" name="ogonek"/>
    </contour>
  </outline>
</glyph>
<glyph name="b" format="1">
  <advance width="2048"/>
  <unicode hex="0062"/>
  <outline>
    <contour>
      <point x="1103" y="582" type="curve" smooth="yes"/>
      <point x="1103" y="814"/>
      <point x="989" y="1018"/>
      <point x="763" y="1018" type="curve" smooth="yes"/>
      <point x="601" y="1018"/>
      <point x="488" y="965"/>
      <point x="407" y="881" type="curve"/>
      <point x="407" y="324" type="line"/>
      <point x="478" y="221"/>
      <point x="590" y="145"/>
      <point x="753" y="145" type="curve" smooth="yes"/>
      <point x="986" y="145"/>
      <point x="1103" y="347"/>
    </contour>
    <contour>
      <point x="1324" y="582" type="curve" smooth="yes"/>
      <point x="1324" y="227"/>
      <point x="1117" y="-25"/>
      <point x="767" y="-25" type="curve" smooth="yes"/>
      <point x="602" y="-25"/>
      <point x="470" y="55"/>
      <point x="386" y="150" type="curve"/>
      <point x="386" y="68"/>
      <point x="367" y="-8"/>
      <point x="290" y="-8" type="curve" smooth="yes"/>
      <point x="222" y="-8"/>
      <point x="202" y="51"/>
      <point x="202" y="117" type="curve" smooth="yes"/>
      <point x="202" y="1524" type="line"/>
      <point x="-34" y="1462" type="line"/>
      <point x="-40" y="1462"/>
      <point x="-38" y="1460"/>
      <point x="-44" y="1460" type="curve" smooth="yes"/>
      <point x="-86" y="1460"/>
      <point x="-124" y="1505"/>
      <point x="-124" y="1546" type="curve" smooth="yes"/>
      <point x="-124" y="1603"/>
      <point x="-90" y="1613"/>
      <point x="-46" y="1626" type="curve" smooth="yes"/>
      <point x="339" y="1737" type="line" smooth="yes"/>
      <point x="342" y="1738"/>
      <point x="346" y="1739"/>
      <point x="353" y="1739" type="curve" smooth="yes"/>
      <point x="381" y="1739"/>
      <point x="407" y="1720"/>
      <point x="407" y="1690" type="curve" smooth="yes"/>
      <point x="407" y="1035" type="line"/>
      <point x="502" y="1127"/>
      <point x="606" y="1188"/>
      <point x="771" y="1188" type="curve" smooth="yes"/>
      <point x="1112" y="1188"/>
      <point x="1324" y="929"/>
    </contour>
  </outline>
</glyph>
<glyph name="c" format="1">
  <advance width="2048"/>
  <unicode hex="0063"/>
  <outline>
    <contour>
      <point x="750" y="1188" type="curve" smooth="yes"/>
      <point x="953" y="1188"/>
      <point x="1180" y="1128"/>
      <point x="1180" y="878" type="curve" smooth="yes"/>
      <point x="1180" y="799"/>
      <point x="1151" y="738"/>
      <point x="1083" y="738" type="curve" smooth="yes"/>
      <point x="983" y="738"/>
      <point x="973" y="886"/>
      <point x="947" y="993" type="curve"/>
      <point x="882" y="1010"/>
      <point x="818" y="1018"/>
      <point x="757" y="1018" type="curve" smooth="yes"/>
      <point x="499" y="1018"/>
      <point x="304" y="860"/>
      <point x="304" y="596" type="curve" smooth="yes"/>
      <point x="304" y="310"/>
      <point x="503" y="174"/>
      <point x="722" y="174" type="curve" smooth="yes"/>
      <point x="836" y="174"/>
      <point x="955" y="217"/>
      <point x="1050" y="302" type="curve" smooth="yes"/>
      <point x="1069" y="318"/>
      <point x="1090" y="328"/>
      <point x="1113" y="328" type="curve" smooth="yes"/>
      <point x="1168" y="328"/>
      <point x="1209" y="299"/>
      <point x="1209" y="250" type="curve" smooth="yes"/>
      <point x="1209" y="78"/>
      <point x="909" y="-25"/>
      <point x="734" y="-25" type="curve" smooth="yes"/>
      <point x="350" y="-25"/>
      <point x="82" y="207"/>
      <point x="82" y="596" type="curve" smooth="yes"/>
      <point x="82" y="977"/>
      <point x="389" y="1188"/>
    </contour>
    <contour>
      <point x="1024" y="1160" type="move" name="top"/>
    </contour>
    <contour>
      <point x="1024" y="0" type="move" name="bottom"/>
    </contour>
  </outline>
</glyph>
<glyph name="d" format="1">
  <advance width="2048"/>
  <unicode hex="0064"/>
  <outline>
    <contour>
      <point x="333" y="582" type="curve" smooth="yes"/>
      <point x="333" y="349"/>
      <point x="451" y="145"/>
      <point x="683" y="145" type="curve" smooth="yes"/>
      <point x="842" y="145"/>
      <point x="958" y="224"/>
      <point x="1029" y="324" type="curve"/>
      <point x="1029" y="881" type="line"/>
      <point x="945" y="967"/>
      <point x="829" y="1018"/>
      <point x="673" y="1018" type="curve" smooth="yes"/>
      <point x="447" y="1018"/>
      <point x="333" y="808"/>
    </contour>
    <contour>
      <point x="111" y="582" type="curve" smooth="yes"/>
      <point x="111" y="924"/>
      <point x="323" y="1188"/>
      <point x="664" y="1188" type="curve" smooth="yes"/>
      <point x="823" y="1188"/>
      <point x="933" y="1132"/>
      <point x="1029" y="1055" type="curve"/>
      <point x="1029" y="1524" type="line"/>
      <point x="793" y="1462" type="line"/>
      <point x="787" y="1462"/>
      <point x="789" y="1460"/>
      <point x="783" y="1460" type="curve" smooth="yes"/>
      <point x="741" y="1460"/>
      <point x="703" y="1505"/>
      <point x="703" y="1546" type="curve" smooth="yes"/>
      <point x="703" y="1603"/>
      <point x="737" y="1613"/>
      <point x="781" y="1626" type="curve" smooth="yes"/>
      <point x="1166" y="1737" type="line" smooth="yes"/>
      <point x="1169" y="1738"/>
      <point x="1174" y="1739"/>
      <point x="1181" y="1739" type="curve" smooth="yes"/>
      <point x="1209" y="1739"/>
      <point x="1234" y="1720"/>
      <point x="1234" y="1690" type="curve" smooth="yes"/>
      <point x="1234" y="176" type="line"/>
      <point x="1379" y="197" type="line" smooth="yes"/>
      <point x="1386" y="198"/>
      <point x="1395" y="199"/>
      <point x="1406" y="199" type="curve" smooth="yes"/>
      <point x="1459" y="199"/>
      <point x="1494" y="172"/>
      <point x="1494" y="125" type="curve" smooth="yes"/>
      <point x="1494" y="16"/>
      <point x="1341" y="22"/>
      <point x="1254" y="12" type="curve"/>
      <point x="1202" y="4"/>
      <point x="1129" y="-10"/>
      <point x="1086" y="-10" type="curve" smooth="yes"/>
      <point x="1039" y="-10"/>
      <point x="1029" y="32"/>
      <point x="1029" y="78" type="curve" smooth="yes"/>
      <point x="1029" y="150" type="line"/>
      <point x="953" y="58"/>
      <point x="826" y="-25"/>
      <point x="669" y="-25" type="curve" smooth="yes"/>
      <point x="316" y="-25"/>
      <point x="111" y="231"/>
    </contour>
    <contour>
      <point x="1024" y="580" type="move" name="center"/>
    </contour>
  </outline>
</glyph>
<glyph name="e" format="1">
  <advance width="2048"/>
  <unicode hex="0065"/>
  <outline>
    <contour>
      <point x="283" y="559" type="line"/>
      <point x="283" y="297"/>
      <point x="467" y="158"/>
      <point x="707" y="158" type="curve" smooth="yes"/>
      <point x="877" y="158"/>
      <point x="957" y="232"/>
      <point x="1045" y="314" type="curve"/>
      <point x="1065" y="331"/>
      <point x="1088" y="340"/>
      <point x="1111" y="340" type="curve" smooth="yes"/>
      <point x="1165" y="340"/>
      <point x="1207" y="305"/>
      <point x="1207" y="250" type="curve" smooth="yes"/>
      <point x="1207" y="79"/>
      <point x="883" y="-25"/>
      <point x="699" y="-25" type="curve" smooth="yes"/>
      <point x="332" y="-25"/>
      <point x="70" y="207"/>
      <point x="70" y="575" type="curve" smooth="yes"/>
      <point x="70" y="939"/>
      <point x="301" y="1188"/>
      <point x="675" y="1188" type="curve" smooth="yes"/>
      <point x="943" y="1188"/>
      <point x="1205" y="985"/>
      <point x="1205" y="692" type="curve" smooth="yes"/>
      <point x="1205" y="592"/>
      <point x="1136" y="590"/>
      <point x="1041" y="580" type="curve"/>
    </contour>
    <contour>
      <point x="954" y="756" type="curve" smooth="yes"/>
      <point x="954" y="947"/>
      <point x="815" y="1018"/>
      <point x="675" y="1018" type="curve" smooth="yes"/>
      <point x="439" y="1018"/>
      <point x="296" y="893"/>
      <point x="279" y="700" type="curve"/>
      <point x="880" y="713" type="line"/>
      <point x="917" y="715"/>
      <point x="954" y="725"/>
    </contour>
    <contour>
      <point x="1024" y="1160" type="move" name="top"/>
    </contour>
    <contour>
      <point x="1024" y="0" type="move" name="bottom"/>
    </contour>
    <contour>
      <point x="1843" y="10" type="move" name="ogonek"/>
    </contour>
  </outline>
</glyph>
<glyph name="f" format="1">
  <advance width="2048"/>
  <unicode hex="0066"/>
  <outline>
    <contour>
      <point x="926" y="1411" type="curve" smooth="yes"/>
      <point x="877" y="1411"/>
      <point x="835" y="1435"/>
      <point x="835" y="1487" type="curve" smooth="yes"/>
      <point x="835" y="1556" type="line"/>
      <point x="622" y="1537"/>
      <point x="562" y="1449"/>
      <point x="562" y="1231" type="curve" smooth="yes"/>
      <point x="562" y="1218"/>
      <point x="563" y="1205"/>
      <point x="563" y="1191" type="curve" smooth="yes"/>
      <point x="565" y="1122" type="line"/>
      <point x="784" y="1122" type="line" smooth="yes"/>
      <point x="835" y="1122"/>
      <point x="856" y="1080"/>
      <point x="856" y="1030" type="curve" smooth="yes"/>
      <point x="856" y="986"/>
      <point x="829" y="946"/>
      <point x="782" y="946" type="curve" smooth="yes"/>
      <point x="563" y="946" type="line"/>
      <point x="565" y="176" type="line"/>
      <point x="817" y="176" type="line" smooth="yes"/>
      <point x="868" y="176"/>
      <point x="889" y="134"/>
      <point x="889" y="84" type="curve" smooth="yes"/>
      <point x="889" y="40"/>
      <point x="862" y="0"/>
      <point x="815" y="0" type="curve" smooth="yes"/>
      <point x="145" y="0" type="line" smooth="yes"/>
      <point x="89" y="0"/>
      <point x="63" y="35"/>
      <point x="63" y="86" type="curve" smooth="yes"/>
      <point x="63" y="135"/>
      <point x="87" y="176"/>
      <point x="139" y="176" type="curve" smooth="yes"/>
      <point x="360" y="176" type="line"/>
      <point x="360" y="946" type="line"/>
      <point x="182" y="946" type="line" smooth="yes"/>
      <point x="126" y="946"/>
      <point x="100" y="981"/>
      <point x="100" y="1032" type="curve" smooth="yes"/>
      <point x="100" y="1081"/>
      <point x="124" y="1122"/>
      <point x="176" y="1122" type="curve" smooth="yes"/>
      <point x="360" y="1122" type="line"/>
      <point x="360" y="1227" type="line" smooth="yes"/>
      <point x="360" y="1580"/>
      <point x="569" y="1739"/>
      <point x="928" y="1739" type="curve" smooth="yes"/>
      <point x="972" y="1739"/>
      <point x="1012" y="1712"/>
      <point x="1012" y="1665" type="curve" smooth="yes"/>
      <point x="1012" y="1493" type="line" smooth="yes"/>
      <point x="1012" y="1437"/>
      <point x="977" y="1411"/>
    </contour>
  </outline>
</glyph>
<glyph name="i" format="1">
  <advance width="2048"/>
  <unicode hex="0069"/>
  <outline>
    <contour>
      <point x="410" y="1427" type="curve" smooth="yes"/>
      <point x="326" y="1427"/>
      <point x="258" y="1495"/>
      <point x="258" y="1579" type="curve" smooth="yes"/>
      <point x="258" y="1663"/>
      <point x="326" y="1731"/>
      <point x="410" y="1731" type="curve" smooth="yes"/>
      <point x="494" y="1731"/>
      <point x="561" y="1663"/>
      <point x="561" y="1579" type="curve" smooth="yes"/>
      <point x="561" y="1495"/>
      <point x="494" y="1427"/>
    </contour>
    <contour>
      <point x="102" y="83" type="curve" smooth="yes"/>
      <point x="102" y="132"/>
      <point x="126" y="173"/>
      <point x="178" y="173" type="curve" smooth="yes"/>
      <point x="315" y="173" type="line"/>
      <point x="315" y="983" type="line"/>
      <point x="172" y="944" type="line" smooth="yes"/>
      <point x="169" y="943"/>
      <point x="165" y="942"/>
      <point x="158" y="942" type="curve" smooth="yes"/>
      <point x="118" y="942"/>
      <point x="76" y="981"/>
      <point x="76" y="1022" type="curve" smooth="yes"/>
      <point x="76" y="1065"/>
      <point x="95" y="1096"/>
      <point x="133" y="1106" type="curve" smooth="yes"/>
      <point x="453" y="1186" type="line" smooth="yes"/>
      <point x="457" y="1187"/>
      <point x="462" y="1188"/>
      <point x="469" y="1188" type="curve" smooth="yes"/>
      <point x="499" y="1188"/>
      <point x="520" y="1171"/>
      <point x="520" y="1141" type="curve" smooth="yes"/>
      <point x="520" y="173" type="line"/>
      <point x="674" y="173" type="line" smooth="yes"/>
      <point x="725" y="173"/>
      <point x="746" y="131"/>
      <point x="746" y="81" type="curve" smooth="yes"/>
      <point x="746" y="37"/>
      <point x="719" y="0"/>
      <point x="672" y="0" type="curve" smooth="yes"/>
      <point x="184" y="0" type="line" smooth="yes"/>
      <point x="128" y="0"/>
      <point x="102" y="32"/>
    </contour>
  </outline>
</glyph>
<glyph name="j" format="1">
  <advance width="2048"/>
  <unicode hex="006A"/>
  <outline>
    <contour>
      <point x="214" y="-323" type="curve" smooth="yes"/>
      <point x="397" y="-323"/>
      <point x="445" y="-126"/>
      <point x="445" y="115" type="curve" smooth="yes"/>
      <point x="445" y="983" type="line"/>
      <point x="301" y="944" type="line" smooth="yes"/>
      <point x="298" y="943"/>
      <point x="294" y="942"/>
      <point x="287" y="942" type="curve" smooth="yes"/>
      <point x="247" y="942"/>
      <point x="205" y="981"/>
      <point x="205" y="1022" type="curve" smooth="yes"/>
      <point x="205" y="1065"/>
      <point x="224" y="1096"/>
      <point x="262" y="1106" type="curve" smooth="yes"/>
      <point x="582" y="1186" type="line" smooth="yes"/>
      <point x="586" y="1187"/>
      <point x="591" y="1188"/>
      <point x="598" y="1188" type="curve" smooth="yes"/>
      <point x="628" y="1188"/>
      <point x="650" y="1174"/>
      <point x="650" y="1143" type="curve" smooth="yes"/>
      <point x="650" y="115" type="line" smooth="yes"/>
      <point x="650" y="-191"/>
      <point x="562" y="-496"/>
      <point x="203" y="-496" type="curve" smooth="yes"/>
      <point x="48" y="-496"/>
      <point x="-75" y="-436"/>
      <point x="-75" y="-243" type="curve" smooth="yes"/>
      <point x="-75" y="-164"/>
      <point x="-57" y="-120"/>
      <point x="23" y="-120" type="curve" smooth="yes"/>
      <point x="79" y="-120"/>
      <point x="113" y="-157"/>
      <point x="113" y="-220" type="curve"/>
      <point x="131" y="-283"/>
      <point x="89" y="-323"/>
    </contour>
    <contour>
      <point x="346" y="1579" type="curve" smooth="yes"/>
      <point x="346" y="1655"/>
      <point x="397" y="1735"/>
      <point x="473" y="1735" type="curve" smooth="yes"/>
      <point x="560" y="1735"/>
      <point x="633" y="1680"/>
      <point x="633" y="1593" type="curve" smooth="yes"/>
      <point x="633" y="1507"/>
      <point x="575" y="1450"/>
      <point x="490" y="1450" type="curve" smooth="yes"/>
      <point x="414" y="1450"/>
      <point x="346" y="1503"/>
    </contour>
  </outline>
</glyph>
<glyph name="l" format="1">
  <advance width="2048"/>
  <unicode hex="006C"/>
  <outline>
    <contour>
      <point x="517" y="1735" type="curve" smooth="yes"/>
      <point x="545" y="1735"/>
      <point x="570" y="1716"/>
      <point x="570" y="1686" type="curve" smooth="yes"/>
      <point x="570" y="176" type="line"/>
      <point x="814" y="176" type="line" smooth="yes"/>
      <point x="865" y="176"/>
      <point x="886" y="134"/>
      <point x="886" y="84" type="curve" smooth="yes"/>
      <point x="886" y="40"/>
      <point x="859" y="0"/>
      <point x="812" y="0" type="curve" smooth="yes"/>
      <point x="144" y="0" type="line" smooth="yes"/>
      <point x="88" y="0"/>
      <point x="62" y="35"/>
      <point x="62" y="86" type="curve" smooth="yes"/>
      <point x="62" y="135"/>
      <point x="86" y="176"/>
      <point x="138" y="176" type="curve" smooth="yes"/>
      <point x="365" y="176" type="line"/>
      <point x="365" y="1520" type="line"/>
      <point x="130" y="1458" type="line"/>
      <point x="124" y="1458"/>
      <point x="126" y="1456"/>
      <point x="120" y="1456" type="curve" smooth="yes"/>
      <point x="78" y="1456"/>
      <point x="40" y="1501"/>
      <point x="40" y="1542" type="curve" smooth="yes"/>
      <point x="40" y="1599"/>
      <point x="74" y="1609"/>
      <point x="118" y="1622" type="curve" smooth="yes"/>
      <point x="503" y="1733" type="line" smooth="yes"/>
      <point x="506" y="1734"/>
      <point x="510" y="1735"/>
    </contour>
    <contour>
      <point x="1024" y="1160" type="move" name="top"/>
    </contour>
    <contour>
      <point x="1024" y="0" type="move" name="bottom"/>
    </contour>
    <contour>
      <point x="2028" y="1160" type="move" name="topright"/>
    </contour>
  </outline>
</glyph>
<glyph name="o" format="1">
  <advance width="2048"/>
  <unicode hex="006F"/>
  <outline>
    <contour>
      <point x="1030.5" y="1018" type="curve" smooth="yes"/>
      <point x="776.5" y="1018"/>
      <point x="631.5" y="836"/>
      <point x="631.5" y="582" type="curve" smooth="yes"/>
      <point x="631.5" y="326"/>
      <point x="776.5" y="145"/>
      <point x="1030.5" y="145" type="curve" smooth="yes"/>
      <point x="1278.5" y="145"/>
      <point x="1417.5" y="332"/>
      <point x="1417.5" y="582" type="curve" smooth="yes"/>
      <point x="1417.5" y="833"/>
      <point x="1278.5" y="1018"/>
    </contour>
    <contour>
      <point x="1030.5" y="-25" type="curve" smooth="yes"/>
      <point x="659.5" y="-25"/>
      <point x="409.5" y="211"/>
      <point x="409.5" y="582" type="curve" smooth="yes"/>
      <point x="409.5" y="955"/>
      <point x="660.5" y="1188"/>
      <point x="1030.5" y="1188" type="curve" smooth="yes"/>
      <point x="1395.5" y="1188"/>
      <point x="1638.5" y="948"/>
      <point x="1638.5" y="582" type="curve" smooth="yes"/>
      <point x="1638.5" y="216"/>
      <point x="1394.5" y="-25"/>
    </contour>
    <contour>
      <point x="1024" y="1160" type="move" name="top"/>
    </contour>
  </outline>
</glyph>
<glyph name="p" format="1">
  <advance width="2048"/>
  <unicode hex="0070"/>
  <outline>
    <contour>
      <point x="1186" y="582" type="curve" smooth="yes"/>
      <point x="1186" y="819"/>
      <point x="1068" y="1018"/>
      <point x="836" y="1018" type="curve" smooth="yes"/>
      <point x="659" y="1018"/>
      <point x="533" y="945"/>
      <point x="453" y="840" type="curve"/>
      <point x="453" y="283" type="line"/>
      <point x="538" y="198"/>
      <point x="662" y="145"/>
      <point x="830" y="145" type="curve" smooth="yes"/>
      <point x="1064" y="145"/>
      <point x="1186" y="346"/>
    </contour>
    <contour>
      <point x="1407" y="582" type="curve" smooth="yes"/>
      <point x="1407" y="225"/>
      <point x="1182" y="-25"/>
      <point x="830" y="-25" type="curve" smooth="yes"/>
      <point x="665" y="-25"/>
      <point x="548" y="29"/>
      <point x="453" y="109" type="curve"/>
      <point x="453" y="-399" type="line"/>
      <point x="655" y="-399" type="line" smooth="yes"/>
      <point x="706" y="-399"/>
      <point x="727" y="-442"/>
      <point x="727" y="-492" type="curve" smooth="yes"/>
      <point x="727" y="-536"/>
      <point x="700" y="-575"/>
      <point x="653" y="-575" type="curve" smooth="yes"/>
      <point x="129" y="-575" type="line" smooth="yes"/>
      <point x="73" y="-575"/>
      <point x="47" y="-540"/>
      <point x="47" y="-489" type="curve" smooth="yes"/>
      <point x="47" y="-440"/>
      <point x="71" y="-399"/>
      <point x="123" y="-399" type="curve" smooth="yes"/>
      <point x="248" y="-399" type="line"/>
      <point x="248" y="979" type="line"/>
      <point x="105" y="944" type="line" smooth="yes"/>
      <point x="102" y="943"/>
      <point x="97" y="942"/>
      <point x="90" y="942" type="curve" smooth="yes"/>
      <point x="50" y="942"/>
      <point x="8" y="981"/>
      <point x="8" y="1022" type="curve" smooth="yes"/>
      <point x="8" y="1067"/>
      <point x="28" y="1094"/>
      <point x="66" y="1106" type="curve"/>
      <point x="344" y="1186" type="line"/>
      <point x="350" y="1186"/>
      <point x="348" y="1188"/>
      <point x="354" y="1188" type="curve" smooth="yes"/>
      <point x="361" y="1188" type="line" smooth="yes"/>
      <point x="389" y="1188"/>
      <point x="412" y="1170"/>
      <point x="412" y="1141" type="curve"/>
      <point x="432" y="952" type="line"/>
      <point x="496" y="1089"/>
      <point x="654" y="1188"/>
      <point x="850" y="1188" type="curve" smooth="yes"/>
      <point x="1201" y="1188"/>
      <point x="1407" y="935"/>
    </contour>
  </outline>
</glyph>
<glyph name="r" format="1">
  <advance width="2048"/>
  <unicode hex="0072"/>
  <outline>
    <contour>
      <point x="895" y="1006" type="line"/>
      <point x="734" y="1006"/>
      <point x="603" y="925"/>
      <point x="538" y="827" type="curve"/>
      <point x="538" y="176" type="line"/>
      <point x="806" y="176" type="line" smooth="yes"/>
      <point x="857" y="176"/>
      <point x="878" y="134"/>
      <point x="878" y="84" type="curve" smooth="yes"/>
      <point x="878" y="40"/>
      <point x="851" y="0"/>
      <point x="804" y="0" type="curve" smooth="yes"/>
      <point x="143" y="0" type="line" smooth="yes"/>
      <point x="87" y="0"/>
      <point x="61" y="35"/>
      <point x="61" y="86" type="curve" smooth="yes"/>
      <point x="61" y="135"/>
      <point x="85" y="176"/>
      <point x="137" y="176" type="curve" smooth="yes"/>
      <point x="333" y="176" type="line"/>
      <point x="333" y="979" type="line"/>
      <point x="190" y="944" type="line" smooth="yes"/>
      <point x="187" y="943"/>
      <point x="183" y="942"/>
      <point x="176" y="942" type="curve" smooth="yes"/>
      <point x="136" y="942"/>
      <point x="94" y="981"/>
      <point x="94" y="1022" type="curve" smooth="yes"/>
      <point x="94" y="1067"/>
      <point x="113" y="1094"/>
      <point x="151" y="1106" type="curve"/>
      <point x="430" y="1186" type="line"/>
      <point x="436" y="1186"/>
      <point x="434" y="1188"/>
      <point x="440" y="1188" type="curve" smooth="yes"/>
      <point x="446" y="1188" type="line" smooth="yes"/>
      <point x="474" y="1188"/>
      <point x="497" y="1170"/>
      <point x="497" y="1141" type="curve"/>
      <point x="518" y="952" type="line"/>
      <point x="610" y="1093"/>
      <point x="753" y="1188"/>
      <point x="987" y="1188" type="curve" smooth="yes"/>
      <point x="1031" y="1188"/>
      <point x="1071" y="1161"/>
      <point x="1071" y="1114" type="curve" smooth="yes"/>
      <point x="1071" y="901" type="line" smooth="yes"/>
      <point x="1071" y="845"/>
      <point x="1036" y="819"/>
      <point x="985" y="819" type="curve" smooth="yes"/>
      <point x="936" y="819"/>
      <point x="895" y="843"/>
      <point x="895" y="895" type="curve" smooth="yes"/>
    </contour>
    <contour>
      <point x="1024" y="1160" type="move" name="top"/>
    </contour>
    <contour>
      <point x="1024" y="0" type="move" name="bottom"/>
    </contour>
  </outline>
</glyph>
<glyph name="w" format="1">
  <advance width="2048"/>
  <unicode hex="0077"/>
  <outline>
    <contour>
      <point x="1322.5" y="1049" type="curve" smooth="yes"/>
      <point x="1322.5" y="999"/>
      <point x="1301.5" y="956"/>
      <point x="1250.5" y="956" type="curve" smooth="yes"/>
      <point x="1088.5" y="956" type="line"/>
      <point x="1393.5" y="299" type="line"/>
      <point x="1692.5" y="956" type="line"/>
      <point x="1592.5" y="956" type="line" smooth="yes"/>
      <point x="1541.5" y="956"/>
      <point x="1520.5" y="999"/>
      <point x="1520.5" y="1049" type="curve" smooth="yes"/>
      <point x="1520.5" y="1093"/>
      <point x="1547.5" y="1133"/>
      <point x="1594.5" y="1133" type="curve" smooth="yes"/>
      <point x="1940.5" y="1133" type="line" smooth="yes"/>
      <point x="1996.5" y="1133"/>
      <point x="2022.5" y="1098"/>
      <point x="2022.5" y="1047" type="curve" smooth="yes"/>
      <point x="2022.5" y="998"/>
      <point x="1998.5" y="956"/>
      <point x="1946.5" y="956" type="curve" smooth="yes"/>
      <point x="1844.5" y="956" type="line"/>
      <point x="1471.5" y="117" type="line" smooth="yes"/>
      <point x="1448.5" y="66"/>
      <point x="1422.5" y="-2"/>
      <point x="1373.5" y="-2" type="curve" smooth="yes"/>
      <point x="1327.5" y="-2"/>
      <point x="1290.5" y="79"/>
      <point x="1268.5" y="125" type="curve" smooth="yes"/>
      <point x="1033.5" y="608" type="line"/>
      <point x="814.5" y="117" type="line" smooth="yes"/>
      <point x="781.5" y="42"/>
      <point x="745.5" y="4"/>
      <point x="707.5" y="4" type="curve" smooth="yes"/>
      <point x="670.5" y="4"/>
      <point x="632.5" y="44"/>
      <point x="592.5" y="125" type="curve" smooth="yes"/>
      <point x="185.5" y="956" type="line"/>
      <point x="101.5" y="956" type="line" smooth="yes"/>
      <point x="49.5" y="956"/>
      <point x="25.5" y="997"/>
      <point x="25.5" y="1047" type="curve" smooth="yes"/>
      <point x="25.5" y="1098"/>
      <point x="51.5" y="1133"/>
      <point x="107.5" y="1133" type="curve" smooth="yes"/>
      <point x="488.5" y="1133" type="line" smooth="yes"/>
      <point x="535.5" y="1133"/>
      <point x="562.5" y="1093"/>
      <point x="562.5" y="1049" type="curve" smooth="yes"/>
      <point x="562.5" y="999"/>
      <point x="541.5" y="956"/>
      <point x="490.5" y="956" type="curve" smooth="yes"/>
      <point x="410.5" y="956" type="line"/>
      <point x="736.5" y="299" type="line"/>
      <point x="951.5" y="774" type="line"/>
      <point x="863.5" y="956" type="line"/>
      <point x="799.5" y="956" type="line" smooth="yes"/>
      <point x="747.5" y="956"/>
      <point x="724.5" y="997"/>
      <point x="724.5" y="1047" type="curve" smooth="yes"/>
      <point x="724.5" y="1098"/>
      <point x="749.5" y="1133"/>
      <point x="805.5" y="1133" type="curve" smooth="yes"/>
      <point x="1248.5" y="1133" type="line" smooth="yes"/>
      <point x="1295.5" y="1133"/>
      <point x="1322.5" y="1093"/>
    </contour>
    <contour>
      <point x="1024" y="1160" type="move" name="top"/>
    </contour>
  </outline>
</glyph>
<glyph name="y" format="1">
  <advance width="2048"/>
  <unicode hex="0079"/>
  <outline>
    <contour>
      <point x="606" y="1049" type="curve" smooth="yes"/>
      <point x="606" y="999"/>
      <point x="585" y="956"/>
      <point x="534" y="956" type="curve" smooth="yes"/>
      <point x="414" y="956" type="line"/>
      <point x="762" y="209" type="line"/>
      <point x="1038" y="956" type="line"/>
      <point x="922" y="956" type="line" smooth="yes"/>
      <point x="871" y="956"/>
      <point x="850" y="999"/>
      <point x="850" y="1049" type="curve" smooth="yes"/>
      <point x="850" y="1093"/>
      <point x="877" y="1133"/>
      <point x="924" y="1133" type="curve" smooth="yes"/>
      <point x="1327" y="1133" type="line" smooth="yes"/>
      <point x="1384" y="1133"/>
      <point x="1409" y="1098"/>
      <point x="1409" y="1047" type="curve" smooth="yes"/>
      <point x="1409" y="998"/>
      <point x="1385" y="956"/>
      <point x="1333" y="956" type="curve" smooth="yes"/>
      <point x="1216" y="956" type="line"/>
      <point x="801" y="-121" type="line"/>
      <point x="729" y="-291"/>
      <point x="628" y="-590"/>
      <point x="375" y="-590" type="curve" smooth="yes"/>
      <point x="294" y="-590"/>
      <point x="248" y="-538"/>
      <point x="248" y="-484" type="curve" smooth="yes"/>
      <point x="248" y="-434"/>
      <point x="277" y="-370"/>
      <point x="363" y="-368" type="curve"/>
      <point x="475" y="-368"/>
      <point x="558" y="-273"/>
      <point x="602" y="-166" type="curve"/>
      <point x="666" y="-6" type="line"/>
      <point x="659" y="-6"/>
      <point x="622" y="72"/>
      <point x="616" y="84" type="curve" smooth="yes"/>
      <point x="188" y="956" type="line"/>
      <point x="67" y="956" type="line" smooth="yes"/>
      <point x="15" y="956"/>
      <point x="-8" y="997"/>
      <point x="-8" y="1047" type="curve" smooth="yes"/>
      <point x="-8" y="1098"/>
      <point x="18" y="1133"/>
      <point x="74" y="1133" type="curve" smooth="yes"/>
      <point x="532" y="1133" type="line" smooth="yes"/>
      <point x="579" y="1133"/>
      <point x="606" y="1093"/>
    </contour>
    <contour>
      <point x="1024" y="1160" type="move" name="top"/>
    </contour>
  </outline>
</glyph>
<glyph name="bar" format="1">
  <advance width="2048"/>
  <unicode hex="007C"/>
  <outline>
    <contour>
      <point x="1026" y="1841" type="curve" smooth="yes"/>
      <point x="1075" y="1841"/>
      <point x="1107" y="1815"/>
      <point x="1112" y="1769" type="curve"/>
      <point x="1112" y="-98" type="line" smooth="yes"/>
      <point x="1112" y="-140"/>
      <point x="1064" y="-164"/>
      <point x="1024" y="-164" type="curve" smooth="yes"/>
      <point x="972" y="-164"/>
      <point x="936" y="-142"/>
      <point x="936" y="-82" type="curve" smooth="yes"/>
      <point x="936" y="1769" type="line" smooth="yes"/>
      <point x="936" y="1817"/>
      <point x="980" y="1841"/>
    </contour>
  </outline>
</glyph>
<glyph name="braceright" format="1">
  <advance width="2048"/>
  <unicode hex="007D"/>
  <outline>
    <contour>
      <point x="459" y="949" type="curve" smooth="yes"/>
      <point x="459" y="1138"/>
      <point x="546" y="1361"/>
      <point x="546" y="1534" type="curve" smooth="yes"/>
      <point x="546" y="1677"/>
      <point x="472" y="1780"/>
      <point x="184" y="1780" type="curve" smooth="yes"/>
      <point x="129" y="1780"/>
      <point x="82" y="1826"/>
      <point x="82" y="1882" type="curve" smooth="yes"/>
      <point x="82" y="1936"/>
      <point x="130" y="1985"/>
      <point x="184" y="1985" type="curve" smooth="yes"/>
      <point x="656" y="1985"/>
      <point x="768" y="1800"/>
      <point x="768" y="1573" type="curve" smooth="yes"/>
      <point x="768" y="1363"/>
      <point x="676" y="1118"/>
      <point x="676" y="948" type="curve" smooth="yes"/>
      <point x="676" y="875"/>
      <point x="713" y="822"/>
      <point x="857" y="822" type="curve" smooth="yes"/>
      <point x="912" y="822"/>
      <point x="959" y="776"/>
      <point x="959" y="720" type="curve" smooth="yes"/>
      <point x="959" y="719" type="line" smooth="yes"/>
      <point x="959" y="663"/>
      <point x="912" y="617"/>
      <point x="857" y="617" type="curve" smooth="yes"/>
      <point x="713" y="617"/>
      <point x="676" y="564"/>
      <point x="676" y="491" type="curve" smooth="yes"/>
      <point x="676" y="321"/>
      <point x="768" y="76"/>
      <point x="768" y="-134" type="curve" smooth="yes"/>
      <point x="768" y="-361"/>
      <point x="656" y="-546"/>
      <point x="184" y="-546" type="curve" smooth="yes"/>
      <point x="130" y="-546"/>
      <point x="82" y="-497"/>
      <point x="82" y="-443" type="curve" smooth="yes"/>
      <point x="82" y="-387"/>
      <point x="129" y="-341"/>
      <point x="184" y="-341" type="curve" smooth="yes"/>
      <point x="472" y="-341"/>
      <point x="546" y="-238"/>
      <point x="546" y="-95" type="curve" smooth="yes"/>
      <point x="546" y="78"/>
      <point x="459" y="301"/>
      <point x="459" y="490" type="curve" smooth="yes"/>
      <point x="459" y="579"/>
      <point x="484" y="690"/>
      <point x="642" y="720" type="curve"/>
      <point x="484" y="749"/>
      <point x="459" y="860"/>
    </contour>
  </outline>
</glyph>
<glyph name="exclamdown" format="1">
  <advance width="2048"/>
  <unicode hex="00A1"/>
  <outline>
    <contour>
      <point x="1161.5" y="127" type="curve" smooth="yes"/>
      <point x="1161.5" y="29"/>
      <point x="1107.5" y="-25"/>
      <point x="1026.5" y="-25" type="curve" smooth="yes"/>
      <point x="947.5" y="-25"/>
      <point x="890.5" y="29"/>
      <point x="890.5" y="123" type="curve" smooth="yes"/>
      <point x="890.5" y="465"/>
      <point x="964.5" y="794"/>
      <point x="964.5" y="1157" type="curve" smooth="yes"/>
      <point x="964.5" y="1191"/>
      <point x="992.5" y="1219"/>
      <point x="1026.5" y="1219" type="curve" smooth="yes"/>
      <point x="1059.5" y="1219"/>
      <point x="1087.5" y="1191"/>
      <point x="1087.5" y="1157" type="curve" smooth="yes"/>
      <point x="1087.5" y="797"/>
      <point x="1161.5" y="465"/>
    </contour>
    <contour>
      <point x="1024.5" y="1739" type="curve" smooth="yes"/>
      <point x="1124.5" y="1739"/>
      <point x="1200.5" y="1662"/>
      <point x="1200.5" y="1562" type="curve" smooth="yes"/>
      <point x="1200.5" y="1462"/>
      <point x="1124.5" y="1386"/>
      <point x="1024.5" y="1386" type="curve" smooth="yes"/>
      <point x="924.5" y="1386"/>
      <point x="847.5" y="1462"/>
      <point x="847.5" y="1562" type="curve" smooth="yes"/>
      <point x="847.5" y="1662"/>
      <point x="924.5" y="1739"/>
    </contour>
  </outline>
</glyph>
<glyph name="cent" format="1">
  <advance width="2048"/>
  <unicode hex="00A2"/>
  <outline>
    <contour>
      <point x="723" y="1623" type="curve" smooth="yes"/>
      <point x="762" y="1623"/>
      <point x="791" y="1603"/>
      <point x="791" y="1566" type="curve" smooth="yes"/>
      <point x="791" y="1328" type="line"/>
      <point x="986" y="1322"/>
      <point x="1192" y="1256"/>
      <point x="1192" y="1018" type="curve" smooth="yes"/>
      <point x="1192" y="939"/>
      <point x="1163" y="878"/>
      <point x="1095" y="878" type="curve" smooth="yes"/>
      <point x="995" y="878"/>
      <point x="985" y="1026"/>
      <point x="959" y="1133" type="curve"/>
      <point x="902" y="1148"/>
      <point x="845" y="1156"/>
      <point x="791" y="1158" type="curve"/>
      <point x="791" y="317" type="line"/>
      <point x="886" y="329"/>
      <point x="983" y="371"/>
      <point x="1062" y="442" type="curve" smooth="yes"/>
      <point x="1081" y="458"/>
      <point x="1102" y="468"/>
      <point x="1125" y="468" type="curve" smooth="yes"/>
      <point x="1180" y="468"/>
      <point x="1221" y="439"/>
      <point x="1221" y="390" type="curve" smooth="yes"/>
      <point x="1221" y="232"/>
      <point x="967" y="132"/>
      <point x="791" y="117" type="curve"/>
      <point x="791" y="-113" type="line" smooth="yes"/>
      <point x="791" y="-152"/>
      <point x="757" y="-172"/>
      <point x="724" y="-172" type="curve" smooth="yes"/>
      <point x="689" y="-172"/>
      <point x="655" y="-151"/>
      <point x="655" y="-104" type="curve" smooth="yes"/>
      <point x="655" y="120" type="line"/>
      <point x="320" y="154"/>
      <point x="94" y="379"/>
      <point x="94" y="736" type="curve" smooth="yes"/>
      <point x="94" y="1079"/>
      <point x="342" y="1284"/>
      <point x="655" y="1322" type="curve"/>
      <point x="655" y="1566" type="line" smooth="yes"/>
      <point x="655" y="1604"/>
      <point x="688" y="1623"/>
    </contour>
    <contour>
      <point x="655" y="1147" type="line"/>
      <point x="455" y="1107"/>
      <point x="316" y="959"/>
      <point x="316" y="736" type="curve" smooth="yes"/>
      <point x="316" y="485"/>
      <point x="469" y="350"/>
      <point x="655" y="320" type="curve"/>
    </contour>
  </outline>
</glyph>
<glyph name="sterling" format="1">
  <advance width="2048"/>
  <unicode hex="00A3"/>
  <outline>
    <contour>
      <point x="47" y="227" type="curve" smooth="yes"/>
      <point x="47" y="399"/>
      <point x="185" y="502"/>
      <point x="356" y="502" type="curve" smooth="yes"/>
      <point x="447" y="502"/>
      <point x="512" y="474"/>
      <point x="571" y="438" type="curve"/>
      <point x="574" y="456"/>
      <point x="575" y="474"/>
      <point x="575" y="494" type="curve" smooth="yes"/>
      <point x="575" y="631"/>
      <point x="520" y="733"/>
      <point x="467" y="840" type="curve"/>
      <point x="450" y="870" type="line"/>
      <point x="178" y="870" type="line" smooth="yes"/>
      <point x="131" y="870"/>
      <point x="104" y="902"/>
      <point x="104" y="946" type="curve" smooth="yes"/>
      <point x="104" y="990"/>
      <point x="129" y="1018"/>
      <point x="176" y="1018" type="curve" smooth="yes"/>
      <point x="383" y="1018" type="line"/>
      <point x="340" y="1119"/>
      <point x="297" y="1236"/>
      <point x="297" y="1378" type="curve" smooth="yes"/>
      <point x="297" y="1610"/>
      <point x="500" y="1778"/>
      <point x="731" y="1778" type="curve" smooth="yes"/>
      <point x="904" y="1778"/>
      <point x="1032" y="1714"/>
      <point x="1114" y="1616" type="curve" smooth="yes"/>
      <point x="1136" y="1590"/>
      <point x="1147" y="1580"/>
      <point x="1147" y="1542" type="curve" smooth="yes"/>
      <point x="1147" y="1475"/>
      <point x="1088" y="1430"/>
      <point x="1024" y="1430" type="curve" smooth="yes"/>
      <point x="950" y="1430"/>
      <point x="890" y="1532"/>
      <point x="849" y="1559" type="curve" smooth="yes"/>
      <point x="814" y="1582"/>
      <point x="775" y="1593"/>
      <point x="733" y="1593" type="curve" smooth="yes"/>
      <point x="597" y="1593"/>
      <point x="524" y="1490"/>
      <point x="524" y="1352" type="curve" smooth="yes"/>
      <point x="524" y="1231"/>
      <point x="573" y="1116"/>
      <point x="618" y="1018" type="curve"/>
      <point x="962" y="1018" type="line" smooth="yes"/>
      <point x="1009" y="1018"/>
      <point x="1034" y="990"/>
      <point x="1034" y="946" type="curve" smooth="yes"/>
      <point x="1034" y="902"/>
      <point x="1007" y="870"/>
      <point x="960" y="870" type="curve" smooth="yes"/>
      <point x="684" y="870" type="line"/>
      <point x="718" y="775"/>
      <point x="755" y="668"/>
      <point x="755" y="549" type="curve" smooth="yes"/>
      <point x="755" y="470"/>
      <point x="741" y="393"/>
      <point x="714" y="319" type="curve"/>
      <point x="787" y="244"/>
      <point x="870" y="145"/>
      <point x="999" y="145" type="curve" smooth="yes"/>
      <point x="1106" y="145"/>
      <point x="1147" y="252"/>
      <point x="1237" y="252" type="curve" smooth="yes"/>
      <point x="1277" y="252"/>
      <point x="1314" y="209"/>
      <point x="1314" y="168" type="curve" smooth="yes"/>
      <point x="1314" y="34"/>
      <point x="1129" y="-27"/>
      <point x="993" y="-27" type="curve" smooth="yes"/>
      <point x="827" y="-27"/>
      <point x="718" y="74"/>
      <point x="628" y="154" type="curve"/>
      <point x="560" y="62"/>
      <point x="456" y="-29"/>
      <point x="311" y="-29" type="curve" smooth="yes"/>
      <point x="157" y="-29"/>
      <point x="47" y="77"/>
    </contour>
    <contour>
      <point x="512" y="256" type="curve"/>
      <point x="465" y="297"/>
      <point x="410" y="348"/>
      <point x="338" y="348" type="curve" smooth="yes"/>
      <point x="253" y="348"/>
      <point x="192" y="311"/>
      <point x="192" y="231" type="curve" smooth="yes"/>
      <point x="192" y="163"/>
      <point x="255" y="133"/>
      <point x="319" y="133" type="curve" smooth="yes"/>
      <point x="412" y="133"/>
      <point x="473" y="194"/>
    </contour>
  </outline>
</glyph>
<glyph name="yen" format="1">
  <advance width="2048"/>
  <unicode hex="00A5"/>
  <outline>
    <contour>
      <point x="1874" y="1630" type="curve" smooth="yes"/>
      <point x="1874" y="1580"/>
      <point x="1853" y="1538"/>
      <point x="1802" y="1538" type="curve" smooth="yes"/>
      <point x="1663" y="1538" type="line"/>
      <point x="1241" y="846" type="line"/>
      <point x="1517" y="846" type="line" smooth="yes"/>
      <point x="1558" y="846"/>
      <point x="1591" y="812"/>
      <point x="1591" y="771" type="curve" smooth="yes"/>
      <point x="1591" y="730"/>
      <point x="1558" y="697"/>
      <point x="1517" y="697" type="curve" smooth="yes"/>
      <point x="1166" y="697" type="line"/>
      <point x="1166" y="584" type="line"/>
      <point x="1517" y="584" type="line" smooth="yes"/>
      <point x="1558" y="584"/>
      <point x="1591" y="551"/>
      <point x="1591" y="510" type="curve" smooth="yes"/>
      <point x="1591" y="469"/>
      <point x="1558" y="435"/>
      <point x="1517" y="435" type="curve" smooth="yes"/>
      <point x="1166" y="435" type="line"/>
      <point x="1166" y="176" type="line"/>
      <point x="1389" y="176" type="line" smooth="yes"/>
      <point x="1440" y="176"/>
      <point x="1460" y="134"/>
      <point x="1460" y="84" type="curve" smooth="yes"/>
      <point x="1460" y="40"/>
      <point x="1434" y="0"/>
      <point x="1387" y="0" type="curve" smooth="yes"/>
      <point x="670" y="0" type="line" smooth="yes"/>
      <point x="623" y="0"/>
      <point x="596" y="40"/>
      <point x="596" y="84" type="curve" smooth="yes"/>
      <point x="596" y="134"/>
      <point x="617" y="176"/>
      <point x="668" y="176" type="curve" smooth="yes"/>
      <point x="932" y="176" type="line"/>
      <point x="932" y="435" type="line"/>
      <point x="582" y="435" type="line" smooth="yes"/>
      <point x="541" y="435"/>
      <point x="508" y="469"/>
      <point x="508" y="510" type="curve" smooth="yes"/>
      <point x="508" y="551"/>
      <point x="541" y="584"/>
      <point x="582" y="584" type="curve" smooth="yes"/>
      <point x="932" y="584" type="line"/>
      <point x="932" y="697" type="line"/>
      <point x="582" y="697" type="line" smooth="yes"/>
      <point x="541" y="697"/>
      <point x="508" y="730"/>
      <point x="508" y="771" type="curve" smooth="yes"/>
      <point x="508" y="812"/>
      <point x="541" y="846"/>
      <point x="582" y="846" type="curve" smooth="yes"/>
      <point x="868" y="846" type="line"/>
      <point x="457" y="1538" type="line"/>
      <point x="246" y="1538" type="line" smooth="yes"/>
      <point x="195" y="1538"/>
      <point x="174" y="1580"/>
      <point x="174" y="1630" type="curve" smooth="yes"/>
      <point x="174" y="1674"/>
      <point x="201" y="1714"/>
      <point x="248" y="1714" type="curve" smooth="yes"/>
      <point x="842" y="1714" type="line" smooth="yes"/>
      <point x="889" y="1714"/>
      <point x="916" y="1674"/>
      <point x="916" y="1630" type="curve" smooth="yes"/>
      <point x="916" y="1580"/>
      <point x="895" y="1538"/>
      <point x="844" y="1538" type="curve" smooth="yes"/>
      <point x="703" y="1538" type="line"/>
      <point x="1088" y="891" type="line"/>
      <point x="1469" y="1538" type="line"/>
      <point x="1307" y="1538" type="line" smooth="yes"/>
      <point x="1256" y="1538"/>
      <point x="1235" y="1580"/>
      <point x="1235" y="1630" type="curve" smooth="yes"/>
      <point x="1235" y="1674"/>
      <point x="1262" y="1714"/>
      <point x="1309" y="1714" type="curve" smooth="yes"/>
      <point x="1800" y="1714" type="line" smooth="yes"/>
      <point x="1847" y="1714"/>
      <point x="1874" y="1674"/>
    </contour>
  </outline>
</glyph>
<glyph name="brokenbar" format="1">
  <advance width="2048"/>
  <unicode hex="00A6"/>
  <outline>
    <contour>
      <point x="1026" y="714" type="curve" smooth="yes"/>
      <point x="1075" y="714"/>
      <point x="1107" y="688"/>
      <point x="1112" y="642" type="curve"/>
      <point x="1112" y="-98" type="line" smooth="yes"/>
      <point x="1112" y="-140"/>
      <point x="1064" y="-164"/>
      <point x="1024" y="-164" type="curve" smooth="yes"/>
      <point x="972" y="-164"/>
      <point x="936" y="-142"/>
      <point x="936" y="-82" type="curve" smooth="yes"/>
      <point x="936" y="642" type="line" smooth="yes"/>
      <point x="936" y="690"/>
      <point x="980" y="714"/>
    </contour>
    <contour>
      <point x="1026" y="1891" type="curve" smooth="yes"/>
      <point x="1075" y="1891"/>
      <point x="1107" y="1865"/>
      <point x="1112" y="1819" type="curve"/>
      <point x="1112" y="1079" type="line" smooth="yes"/>
      <point x="1112" y="1037"/>
      <point x="1064" y="1013"/>
      <point x="1024" y="1013" type="curve" smooth="yes"/>
      <point x="972" y="1013"/>
      <point x="936" y="1035"/>
      <point x="936" y="1095" type="curve" smooth="yes"/>
      <point x="936" y="1819" type="line" smooth="yes"/>
      <point x="936" y="1867"/>
      <point x="980" y="1891"/>
    </contour>
  </outline>
</glyph>
<glyph name="section" format="1">
  <advance width="2048"/>
  <unicode hex="00A7"/>
  <outline>
    <contour>
      <point x="100" y="1593" type="curve" smooth="yes"/>
      <point x="100" y="1794"/>
      <point x="253" y="1937"/>
      <point x="460" y="1937" type="curve" smooth="yes"/>
      <point x="638" y="1937"/>
      <point x="847" y="1833"/>
      <point x="847" y="1661" type="curve" smooth="yes"/>
      <point x="847" y="1616"/>
      <point x="816" y="1587"/>
      <point x="774" y="1587" type="curve" smooth="yes"/>
      <point x="733" y="1587"/>
      <point x="702" y="1612"/>
      <point x="690" y="1645" type="curve" smooth="yes"/>
      <point x="655" y="1738"/>
      <point x="580" y="1802"/>
      <point x="468" y="1802" type="curve" smooth="yes"/>
      <point x="359" y="1802"/>
      <point x="268" y="1729"/>
      <point x="268" y="1622" type="curve" smooth="yes"/>
      <point x="268" y="1569"/>
      <point x="282" y="1518"/>
      <point x="309" y="1470" type="curve" smooth="yes"/>
      <point x="403" y="1306"/>
      <point x="561" y="1184"/>
      <point x="677" y="1039" type="curve" smooth="yes"/>
      <point x="748" y="950"/>
      <point x="821" y="842"/>
      <point x="821" y="694" type="curve" smooth="yes"/>
      <point x="821" y="553"/>
      <point x="762" y="419"/>
      <point x="655" y="366" type="curve"/>
      <point x="715" y="282"/>
      <point x="784" y="167"/>
      <point x="784" y="35" type="curve" smooth="yes"/>
      <point x="784" y="-168"/>
      <point x="632" y="-309"/>
      <point x="423" y="-309" type="curve" smooth="yes"/>
      <point x="245" y="-309"/>
      <point x="36" y="-205"/>
      <point x="36" y="-33" type="curve" smooth="yes"/>
      <point x="36" y="12"/>
      <point x="68" y="41"/>
      <point x="110" y="41" type="curve" smooth="yes"/>
      <point x="151" y="41"/>
      <point x="182" y="17"/>
      <point x="194" y="-16" type="curve" smooth="yes"/>
      <point x="229" y="-109"/>
      <point x="303" y="-174"/>
      <point x="415" y="-174" type="curve" smooth="yes"/>
      <point x="524" y="-174"/>
      <point x="616" y="-101"/>
      <point x="616" y="6" type="curve" smooth="yes"/>
      <point x="616" y="59"/>
      <point x="602" y="110"/>
      <point x="575" y="158" type="curve" smooth="yes"/>
      <point x="481" y="322"/>
      <point x="322" y="444"/>
      <point x="206" y="589" type="curve" smooth="yes"/>
      <point x="135" y="678"/>
      <point x="63" y="786"/>
      <point x="63" y="934" type="curve" smooth="yes"/>
      <point x="63" y="1075"/>
      <point x="121" y="1209"/>
      <point x="229" y="1262" type="curve"/>
      <point x="169" y="1347"/>
      <point x="100" y="1459"/>
    </contour>
    <contour>
      <point x="294" y="1177" type="curve"/>
      <point x="249" y="1140"/>
      <point x="225" y="1067"/>
      <point x="225" y="1006" type="curve" smooth="yes"/>
      <point x="225" y="960"/>
      <point x="239" y="911"/>
      <point x="266" y="862" type="curve" smooth="yes"/>
      <point x="350" y="710"/>
      <point x="479" y="587"/>
      <point x="590" y="451" type="curve"/>
      <point x="635" y="488"/>
      <point x="659" y="561"/>
      <point x="659" y="623" type="curve" smooth="yes"/>
      <point x="659" y="669"/>
      <point x="645" y="717"/>
      <point x="618" y="766" type="curve" smooth="yes"/>
      <point x="534" y="918"/>
      <point x="405" y="1040"/>
    </contour>
  </outline>
</glyph>
<glyph name="ordfeminine" format="1">
  <advance width="2048"/>
  <unicode hex="00AA"/>
  <outline>
    <contour>
      <point x="1122" y="96" type="curve" smooth="yes"/>
      <point x="1122" y="30"/>
      <point x="1006" y="-23"/>
      <point x="949" y="-23" type="curve" smooth="yes"/>
      <point x="882" y="-23"/>
      <point x="841" y="10"/>
      <point x="826" y="77" type="curve"/>
      <point x="766" y="7"/>
      <point x="664" y="-25"/>
      <point x="553" y="-25" type="curve" smooth="yes"/>
      <point x="427" y="-25"/>
      <point x="332" y="59"/>
      <point x="332" y="183" type="curve" smooth="yes"/>
      <point x="332" y="404"/>
      <point x="603" y="417"/>
      <point x="810" y="435" type="curve"/>
      <point x="810" y="535" type="line" smooth="yes"/>
      <point x="810" y="600"/>
      <point x="743" y="621"/>
      <point x="679" y="621" type="curve" smooth="yes"/>
      <point x="564" y="621"/>
      <point x="523" y="597"/>
      <point x="445" y="547" type="curve" smooth="yes"/>
      <point x="437" y="542"/>
      <point x="430" y="539"/>
      <point x="423" y="539" type="curve" smooth="yes"/>
      <point x="395" y="539"/>
      <point x="369" y="572"/>
      <point x="369" y="601" type="curve" smooth="yes"/>
      <point x="369" y="700"/>
      <point x="559" y="726"/>
      <point x="662" y="726" type="curve" smooth="yes"/>
      <point x="871" y="726"/>
      <point x="933" y="646"/>
      <point x="933" y="439" type="curve" smooth="yes"/>
      <point x="933" y="128" type="line" smooth="yes"/>
      <point x="933" y="102"/>
      <point x="941" y="84"/>
      <point x="960" y="84" type="curve" smooth="yes"/>
      <point x="996" y="84"/>
      <point x="1049" y="150"/>
      <point x="1079" y="150" type="curve" smooth="yes"/>
      <point x="1097" y="150"/>
      <point x="1122" y="119"/>
    </contour>
    <contour>
      <point x="810" y="342" type="line"/>
      <point x="679" y="329"/>
      <point x="464" y="324"/>
      <point x="464" y="186" type="curve" smooth="yes"/>
      <point x="464" y="116"/>
      <point x="525" y="83"/>
      <point x="596" y="83" type="curve" smooth="yes"/>
      <point x="682" y="83"/>
      <point x="753" y="118"/>
      <point x="810" y="163" type="curve"/>
    </contour>
  </outline>
</glyph>
<glyph name="guillemotleft" format="1">
  <advance width="2048"/>
  <unicode hex="00AB"/>
  <outline>
    <contour>
      <point x="706" y="273" type="curve"/>
      <point x="143" y="676" type="line"/>
      <point x="105" y="700"/>
      <point x="77" y="723"/>
      <point x="77" y="755" type="curve" smooth="yes"/>
      <point x="77" y="788"/>
      <point x="104" y="812"/>
      <point x="143" y="837" type="curve"/>
      <point x="693" y="1240" type="line"/>
      <point x="720" y="1253"/>
      <point x="745" y="1259"/>
      <point x="766" y="1259" type="curve" smooth="yes"/>
      <point x="821" y="1259"/>
      <point x="854" y="1221"/>
      <point x="854" y="1175" type="curve" smooth="yes"/>
      <point x="854" y="1137"/>
      <point x="831" y="1094"/>
      <point x="780" y="1064" type="curve"/>
      <point x="371" y="751" type="line"/>
      <point x="782" y="440" type="line"/>
      <point x="838" y="406"/>
      <point x="864" y="361"/>
      <point x="864" y="324" type="curve" smooth="yes"/>
      <point x="864" y="285"/>
      <point x="835" y="254"/>
      <point x="784" y="254" type="curve" smooth="yes"/>
      <point x="762" y="254"/>
      <point x="736" y="260"/>
    </contour>
    <contour>
      <point x="1336" y="273" type="curve"/>
      <point x="773" y="676" type="line"/>
      <point x="735" y="700"/>
      <point x="707" y="723"/>
      <point x="707" y="755" type="curve" smooth="yes"/>
      <point x="707" y="788"/>
      <point x="734" y="812"/>
      <point x="773" y="837" type="curve"/>
      <point x="1323" y="1240" type="line"/>
      <point x="1350" y="1253"/>
      <point x="1375" y="1259"/>
      <point x="1396" y="1259" type="curve" smooth="yes"/>
      <point x="1451" y="1259"/>
      <point x="1484" y="1221"/>
      <point x="1484" y="1175" type="curve" smooth="yes"/>
      <point x="1484" y="1137"/>
      <point x="1461" y="1094"/>
      <point x="1410" y="1064" type="curve"/>
      <point x="1001" y="751" type="line"/>
      <point x="1412" y="440" type="line"/>
      <point x="1468" y="406"/>
      <point x="1494" y="361"/>
      <point x="1494" y="324" type="curve" smooth="yes"/>
      <point x="1494" y="285"/>
      <point x="1465" y="254"/>
      <point x="1414" y="254" type="curve" smooth="yes"/>
      <point x="1392" y="254"/>
      <point x="1366" y="260"/>
    </contour>
  </outline>
</glyph>
<glyph name="logicalnot" format="1">
  <advance width="2048"/>
  <unicode hex="00AC"/>
  <outline>
    <contour>
      <point x="171" y="715" type="curve" smooth="yes"/>
      <point x="171" y="770"/>
      <point x="217" y="817"/>
      <point x="273" y="817" type="curve" smooth="yes"/>
      <point x="1015" y="817" type="line" smooth="yes"/>
      <point x="1071" y="817"/>
      <point x="1117" y="770"/>
      <point x="1117" y="715" type="curve" smooth="yes"/>
      <point x="1117" y="711" type="line"/>
      <point x="1117" y="409" type="line" smooth="yes"/>
      <point x="1117" y="353"/>
      <point x="1077" y="326"/>
      <point x="1038" y="326" type="curve" smooth="yes"/>
      <point x="999" y="326"/>
      <point x="961" y="352"/>
      <point x="961" y="403" type="curve" smooth="yes"/>
      <point x="961" y="612" type="line"/>
      <point x="273" y="612" type="line" smooth="yes"/>
      <point x="216" y="612"/>
      <point x="171" y="658"/>
    </contour>
  </outline>
</glyph>
<glyph name="plusminus" format="1">
  <advance width="2048"/>
  <unicode hex="00B1"/>
  <outline>
    <contour>
      <point x="662" y="78" type="curve" smooth="yes"/>
      <point x="662" y="120"/>
      <point x="696" y="155"/>
      <point x="739" y="155" type="curve" smooth="yes"/>
      <point x="1303" y="155" type="line" smooth="yes"/>
      <point x="1346" y="155"/>
      <point x="1380" y="120"/>
      <point x="1380" y="78" type="curve" smooth="yes"/>
      <point x="1380" y="35"/>
      <point x="1346" y="0"/>
      <point x="1303" y="0" type="curve" smooth="yes"/>
      <point x="739" y="0" type="line" smooth="yes"/>
      <point x="696" y="0"/>
      <point x="662" y="35"/>
    </contour>
    <contour>
      <point x="1478" y="847" type="line" smooth="yes"/>
      <point x="1519" y="847"/>
      <point x="1551" y="815"/>
      <point x="1551" y="774" type="curve" smooth="yes"/>
      <point x="1551" y="733"/>
      <point x="1519" y="700"/>
      <point x="1478" y="700" type="curve" smooth="yes"/>
      <point x="1104" y="700" type="line"/>
      <point x="1104" y="377" type="line" smooth="yes"/>
      <point x="1104" y="333"/>
      <point x="1069" y="298"/>
      <point x="1025" y="298" type="curve" smooth="yes"/>
      <point x="981" y="298"/>
      <point x="946" y="333"/>
      <point x="946" y="377" type="curve" smooth="yes"/>
      <point x="946" y="700" type="line"/>
      <point x="570" y="700" type="line" smooth="yes"/>
      <point x="529" y="700"/>
      <point x="497" y="733"/>
      <point x="497" y="774" type="curve" smooth="yes"/>
      <point x="497" y="815"/>
      <point x="529" y="847"/>
      <point x="570" y="847" type="curve" smooth="yes"/>
      <point x="946" y="847" type="line"/>
      <point x="946" y="1177" type="line" smooth="yes"/>
      <point x="946" y="1221"/>
      <point x="981" y="1256"/>
      <point x="1025" y="1256" type="curve" smooth="yes"/>
      <point x="1069" y="1256"/>
      <point x="1104" y="1221"/>
      <point x="1104" y="1177" type="curve" smooth="yes"/>
      <point x="1104" y="847" type="line"/>
    </contour>
  </outline>
</glyph>
<glyph name="uni00B3" format="1">
  <advance width="2048"/>
  <unicode hex="00B3"/>
  <outline>
    <contour>
      <point x="743" y="926" type="curve" smooth="yes"/>
      <point x="743" y="1048"/>
      <point x="670" y="1132"/>
      <point x="548" y="1132" type="curve" smooth="yes"/>
      <point x="516" y="1132"/>
      <point x="489" y="1123"/>
      <point x="457" y="1123" type="curve" smooth="yes"/>
      <point x="421" y="1123"/>
      <point x="396" y="1146"/>
      <point x="396" y="1186" type="curve" smooth="yes"/>
      <point x="396" y="1198"/>
      <point x="404" y="1210"/>
      <point x="419" y="1222" type="curve" smooth="yes"/>
      <point x="502" y="1290"/>
      <point x="697" y="1344"/>
      <point x="697" y="1487" type="curve" smooth="yes"/>
      <point x="697" y="1564"/>
      <point x="632" y="1620"/>
      <point x="552" y="1620" type="curve" smooth="yes"/>
      <point x="452" y="1620"/>
      <point x="382" y="1569"/>
      <point x="319" y="1529" type="curve" smooth="yes"/>
      <point x="308" y="1522"/>
      <point x="295" y="1518"/>
      <point x="281" y="1518" type="curve" smooth="yes"/>
      <point x="252" y="1518"/>
      <point x="229" y="1538"/>
      <point x="229" y="1567" type="curve" smooth="yes"/>
      <point x="229" y="1669"/>
      <point x="445" y="1745"/>
      <point x="554" y="1745" type="curve" smooth="yes"/>
      <point x="712" y="1745"/>
      <point x="837" y="1658"/>
      <point x="837" y="1505" type="curve" smooth="yes"/>
      <point x="837" y="1342"/>
      <point x="720" y="1292"/>
      <point x="614" y="1231" type="curve"/>
      <point x="599" y="1222" type="line"/>
      <point x="786" y="1210"/>
      <point x="908" y="1114"/>
      <point x="908" y="920" type="curve" smooth="yes"/>
      <point x="908" y="687"/>
      <point x="725" y="523"/>
      <point x="485" y="523" type="curve" smooth="yes"/>
      <point x="376" y="523"/>
      <point x="166" y="556"/>
      <point x="166" y="658" type="curve" smooth="yes"/>
      <point x="166" y="690"/>
      <point x="191" y="711"/>
      <point x="224" y="711" type="curve" smooth="yes"/>
      <point x="238" y="711"/>
      <point x="251" y="708"/>
      <point x="265" y="701" type="curve" smooth="yes"/>
      <point x="322" y="673"/>
      <point x="397" y="650"/>
      <point x="482" y="650" type="curve" smooth="yes"/>
      <point x="640" y="650"/>
      <point x="743" y="770"/>
    </contour>
  </outline>
</glyph>
<glyph name="acute" format="1">
  <advance width="2048"/>
  <unicode hex="00B4"/>
  <outline>
    <contour>
      <point x="517" y="1870" type="curve" smooth="yes"/>
      <point x="559" y="1870"/>
      <point x="601" y="1827"/>
      <point x="601" y="1786" type="curve" smooth="yes"/>
      <point x="601" y="1768"/>
      <point x="593" y="1753"/>
      <point x="575" y="1741" type="curve" smooth="yes"/>
      <point x="417" y="1642"/>
      <point x="240" y="1527"/>
      <point x="77" y="1434" type="curve" smooth="yes"/>
      <point x="70" y="1430"/>
      <point x="63" y="1427"/>
      <point x="58" y="1427" type="curve" smooth="yes"/>
      <point x="32" y="1427"/>
      <point x="9" y="1454"/>
      <point x="9" y="1479" type="curve" smooth="yes"/>
      <point x="9" y="1493"/>
      <point x="15" y="1502"/>
      <point x="26" y="1509" type="curve" smooth="yes"/>
      <point x="176" y="1609"/>
      <point x="340" y="1738"/>
      <point x="476" y="1855" type="curve" smooth="yes"/>
      <point x="487" y="1865"/>
      <point x="501" y="1870"/>
    </contour>
    <contour>
      <point x="305" y="1160" type="move" name="_top"/>
    </contour>
  </outline>
</glyph>
<glyph name="paragraph" format="1">
  <advance width="2048"/>
  <unicode hex="00B6"/>
  <outline>
    <contour>
      <point x="995" y="176" type="line"/>
      <point x="1154" y="176" type="line"/>
      <point x="1154" y="1538" type="line"/>
      <point x="995" y="1538" type="line"/>
    </contour>
    <contour>
      <point x="1367" y="1714" type="line"/>
      <point x="1371" y="176" type="line"/>
      <point x="1635" y="176" type="line" smooth="yes"/>
      <point x="1686" y="176"/>
      <point x="1707" y="134"/>
      <point x="1707" y="84" type="curve" smooth="yes"/>
      <point x="1707" y="40"/>
      <point x="1680" y="0"/>
      <point x="1633" y="0" type="curve" smooth="yes"/>
      <point x="458" y="0" type="line" smooth="yes"/>
      <point x="411" y="0"/>
      <point x="384" y="40"/>
      <point x="384" y="84" type="curve" smooth="yes"/>
      <point x="384" y="134"/>
      <point x="405" y="176"/>
      <point x="456" y="176" type="curve" smooth="yes"/>
      <point x="761" y="176" type="line"/>
      <point x="761" y="725" type="line"/>
      <point x="302" y="725"/>
      <point x="80" y="976"/>
      <point x="80" y="1232" type="curve" smooth="yes"/>
      <point x="80" y="1470"/>
      <point x="295" y="1714"/>
      <point x="708" y="1714" type="curve" smooth="yes"/>
    </contour>
  </outline>
</glyph>
<glyph name="periodcentered" format="1">
  <advance width="2048"/>
  <unicode hex="00B7"/>
  <outline>
    <contour>
      <point x="1024" y="711" type="curve" smooth="yes"/>
      <point x="902" y="711"/>
      <point x="813" y="801"/>
      <point x="813" y="922" type="curve" smooth="yes"/>
      <point x="813" y="1044"/>
      <point x="903" y="1133"/>
      <point x="1024" y="1133" type="curve" smooth="yes"/>
      <point x="1146" y="1133"/>
      <point x="1235" y="1043"/>
      <point x="1235" y="922" type="curve" smooth="yes"/>
      <point x="1235" y="800"/>
      <point x="1145" y="711"/>
    </contour>
  </outline>
</glyph>
<glyph name="ordmasculine" format="1">
  <advance width="2048"/>
  <unicode hex="00BA"/>
  <outline>
    <contour>
      <point x="1028" y="661" type="curve" smooth="yes"/>
      <point x="860" y="661"/>
      <point x="764" y="541"/>
      <point x="764" y="373" type="curve" smooth="yes"/>
      <point x="764" y="203"/>
      <point x="860" y="83"/>
      <point x="1028" y="83" type="curve" smooth="yes"/>
      <point x="1193" y="83"/>
      <point x="1285" y="207"/>
      <point x="1285" y="373" type="curve" smooth="yes"/>
      <point x="1285" y="539"/>
      <point x="1193" y="661"/>
    </contour>
    <contour>
      <point x="1028" y="-30" type="curve" smooth="yes"/>
      <point x="783" y="-30"/>
      <point x="617" y="127"/>
      <point x="617" y="373" type="curve" smooth="yes"/>
      <point x="617" y="620"/>
      <point x="783" y="774"/>
      <point x="1028" y="774" type="curve" smooth="yes"/>
      <point x="1270" y="774"/>
      <point x="1431" y="615"/>
      <point x="1431" y="373" type="curve" smooth="yes"/>
      <point x="1431" y="130"/>
      <point x="1270" y="-30"/>
    </contour>
  </outline>
</glyph>
<glyph name="onehalf" format="1">
  <advance width="2048"/>
  <unicode hex="00BD"/>
  <outline>
    <contour>
      <point x="74" y="541" type="curve" smooth="yes"/>
      <point x="74" y="575"/>
      <point x="91" y="603"/>
      <point x="127" y="603" type="curve" smooth="yes"/>
      <point x="299" y="603" type="line"/>
      <point x="299" y="1580" type="line"/>
      <point x="181" y="1570" type="line"/>
      <point x="143" y="1570"/>
      <point x="122" y="1597"/>
      <point x="122" y="1634" type="curve" smooth="yes"/>
      <point x="122" y="1666"/>
      <point x="139" y="1693"/>
      <point x="169" y="1695" type="curve" smooth="yes"/>
      <point x="406" y="1716" type="line"/>
      <point x="439" y="1716"/>
      <point x="454" y="1709"/>
      <point x="454" y="1669" type="curve" smooth="yes"/>
      <point x="454" y="603" type="line"/>
      <point x="579" y="603" type="line" smooth="yes"/>
      <point x="614" y="603"/>
      <point x="630" y="574"/>
      <point x="630" y="539" type="curve" smooth="yes"/>
      <point x="630" y="509"/>
      <point x="610" y="480"/>
      <point x="578" y="480" type="curve" smooth="yes"/>
      <point x="131" y="480" type="line" smooth="yes"/>
      <point x="91" y="480"/>
      <point x="74" y="506"/>
    </contour>
    <contour>
      <point x="566" y="-93" type="curve" smooth="yes"/>
      <point x="531" y="-93"/>
      <point x="490" y="-58"/>
      <point x="490" y="-15" type="curve" smooth="yes"/>
      <point x="490" y="-6"/>
      <point x="492" y="1"/>
      <point x="498" y="9" type="curve" smooth="yes"/>
      <point x="1574" y="1757" type="line" smooth="yes"/>
      <point x="1584" y="1774"/>
      <point x="1601" y="1783"/>
      <point x="1626" y="1783" type="curve" smooth="yes"/>
      <point x="1660" y="1783"/>
      <point x="1700" y="1750"/>
      <point x="1700" y="1705" type="curve" smooth="yes"/>
      <point x="1700" y="1697"/>
      <point x="1697" y="1692"/>
      <point x="1693" y="1684" type="curve" smooth="yes"/>
      <point x="624" y="-61" type="line"/>
      <point x="611" y="-80"/>
      <point x="596" y="-93"/>
    </contour>
    <contour>
      <point x="2175" y="948" type="curve" smooth="yes"/>
      <point x="2175" y="561"/>
      <point x="1679" y="410"/>
      <point x="1633" y="139" type="curve"/>
      <point x="2082" y="139" type="line"/>
      <point x="2144" y="281" type="line"/>
      <point x="2155" y="311"/>
      <point x="2179" y="334"/>
      <point x="2214" y="334" type="curve" smooth="yes"/>
      <point x="2244" y="334"/>
      <point x="2266" y="314"/>
      <point x="2266" y="282" type="curve" smooth="yes"/>
      <point x="2266" y="273"/>
      <point x="2263" y="265"/>
      <point x="2262" y="256" type="curve"/>
      <point x="2217" y="56" type="line"/>
      <point x="2208" y="23"/>
      <point x="2193" y="2"/>
      <point x="2160" y="2" type="curve" smooth="yes"/>
      <point x="1487" y="2" type="line"/>
      <point x="1481" y="102" type="line"/>
      <point x="1481" y="154"/>
      <point x="1493" y="207"/>
      <point x="1519" y="260" type="curve" smooth="yes"/>
      <point x="1617" y="464"/>
      <point x="2009" y="749"/>
      <point x="2009" y="941" type="curve" smooth="yes"/>
      <point x="2009" y="1035"/>
      <point x="1902" y="1067"/>
      <point x="1807" y="1067" type="curve" smooth="yes"/>
      <point x="1706" y="1067"/>
      <point x="1653" y="1034"/>
      <point x="1599" y="994" type="curve" smooth="yes"/>
      <point x="1587" y="985"/>
      <point x="1573" y="980"/>
      <point x="1558" y="980" type="curve" smooth="yes"/>
      <point x="1521" y="980"/>
      <point x="1491" y="1004"/>
      <point x="1491" y="1042" type="curve" smooth="yes"/>
      <point x="1491" y="1057"/>
      <point x="1500" y="1075"/>
      <point x="1519" y="1094" type="curve" smooth="yes"/>
      <point x="1581" y="1157"/>
      <point x="1696" y="1204"/>
      <point x="1823" y="1204" type="curve" smooth="yes"/>
      <point x="2004" y="1204"/>
      <point x="2175" y="1129"/>
    </contour>
  </outline>
</glyph>
<glyph name="threequarters" format="1">
  <advance width="2048"/>
  <unicode hex="00BE"/>
  <outline>
    <contour>
      <point x="1864" y="987" type="line"/>
      <point x="1458" y="491" type="line"/>
      <point x="1864" y="491" type="line"/>
    </contour>
    <contour>
      <point x="2201" y="62" type="curve" smooth="yes"/>
      <point x="2201" y="32"/>
      <point x="2182" y="2"/>
      <point x="2150" y="2" type="curve" smooth="yes"/>
      <point x="1668" y="2" type="line" smooth="yes"/>
      <point x="1636" y="2"/>
      <point x="1617" y="32"/>
      <point x="1617" y="62" type="curve" smooth="yes"/>
      <point x="1617" y="97"/>
      <point x="1632" y="124"/>
      <point x="1667" y="124" type="curve" smooth="yes"/>
      <point x="1864" y="124" type="line"/>
      <point x="1864" y="382" type="line"/>
      <point x="1341" y="382" type="line" smooth="yes"/>
      <point x="1312" y="382"/>
      <point x="1296" y="408"/>
      <point x="1296" y="434" type="curve" smooth="yes"/>
      <point x="1296" y="454"/>
      <point x="1302" y="472"/>
      <point x="1311" y="481" type="curve"/>
      <point x="1508" y="726"/>
      <point x="1706" y="966"/>
      <point x="1905" y="1207" type="curve" smooth="yes"/>
      <point x="1912" y="1216"/>
      <point x="1923" y="1223"/>
      <point x="1935" y="1223" type="curve" smooth="yes"/>
      <point x="1965" y="1223"/>
      <point x="1997" y="1193"/>
      <point x="1997" y="1163" type="curve" smooth="yes"/>
      <point x="1997" y="491" type="line"/>
      <point x="2198" y="491" type="line" smooth="yes"/>
      <point x="2230" y="491"/>
      <point x="2242" y="466"/>
      <point x="2242" y="434" type="curve" smooth="yes"/>
      <point x="2242" y="408"/>
      <point x="2225" y="382"/>
      <point x="2196" y="382" type="curve" smooth="yes"/>
      <point x="1997" y="382" type="line"/>
      <point x="1997" y="124" type="line"/>
      <point x="2152" y="124" type="line" smooth="yes"/>
      <point x="2187" y="124"/>
      <point x="2201" y="97"/>
    </contour>
    <contour>
      <point x="647" y="-93" type="curve" smooth="yes"/>
      <point x="612" y="-93"/>
      <point x="571" y="-58"/>
      <point x="571" y="-15" type="curve" smooth="yes"/>
      <point x="571" y="-6"/>
      <point x="573" y="1"/>
      <point x="579" y="9" type="curve" smooth="yes"/>
      <point x="1655" y="1757" type="line" smooth="yes"/>
      <point x="1665" y="1774"/>
      <point x="1682" y="1783"/>
      <point x="1707" y="1783" type="curve" smooth="yes"/>
      <point x="1741" y="1783"/>
      <point x="1781" y="1750"/>
      <point x="1781" y="1705" type="curve" smooth="yes"/>
      <point x="1781" y="1697"/>
      <point x="1778" y="1692"/>
      <point x="1774" y="1684" type="curve" smooth="yes"/>
      <point x="705" y="-61" type="line"/>
      <point x="692" y="-80"/>
      <point x="677" y="-93"/>
    </contour>
    <contour>
      <point x="653" y="919" type="curve" smooth="yes"/>
      <point x="653" y="1041"/>
      <point x="580" y="1125"/>
      <point x="458" y="1125" type="curve" smooth="yes"/>
      <point x="426" y="1125"/>
      <point x="399" y="1116"/>
      <point x="367" y="1116" type="curve" smooth="yes"/>
      <point x="331" y="1116"/>
      <point x="306" y="1139"/>
      <point x="306" y="1179" type="curve" smooth="yes"/>
      <point x="306" y="1191"/>
      <point x="314" y="1203"/>
      <point x="329" y="1215" type="curve" smooth="yes"/>
      <point x="412" y="1283"/>
      <point x="607" y="1337"/>
      <point x="607" y="1480" type="curve" smooth="yes"/>
      <point x="607" y="1557"/>
      <point x="542" y="1613"/>
      <point x="462" y="1613" type="curve" smooth="yes"/>
      <point x="362" y="1613"/>
      <point x="292" y="1562"/>
      <point x="229" y="1522" type="curve" smooth="yes"/>
      <point x="218" y="1515"/>
      <point x="205" y="1511"/>
      <point x="191" y="1511" type="curve" smooth="yes"/>
      <point x="162" y="1511"/>
      <point x="139" y="1531"/>
      <point x="139" y="1560" type="curve" smooth="yes"/>
      <point x="139" y="1662"/>
      <point x="355" y="1738"/>
      <point x="464" y="1738" type="curve" smooth="yes"/>
      <point x="622" y="1738"/>
      <point x="747" y="1651"/>
      <point x="747" y="1498" type="curve" smooth="yes"/>
      <point x="747" y="1335"/>
      <point x="630" y="1285"/>
      <point x="524" y="1224" type="curve"/>
      <point x="509" y="1215" type="line"/>
      <point x="696" y="1203"/>
      <point x="818" y="1107"/>
      <point x="818" y="913" type="curve" smooth="yes"/>
      <point x="818" y="680"/>
      <point x="635" y="516"/>
      <point x="395" y="516" type="curve" smooth="yes"/>
      <point x="286" y="516"/>
      <point x="76" y="549"/>
      <point x="76" y="651" type="curve" smooth="yes"/>
      <point x="76" y="683"/>
      <point x="101" y="704"/>
      <point x="134" y="704" type="curve" smooth="yes"/>
      <point x="148" y="704"/>
      <point x="161" y="701"/>
      <point x="175" y="694" type="curve" smooth="yes"/>
      <point x="232" y="666"/>
      <point x="307" y="643"/>
      <point x="392" y="643" type="curve" smooth="yes"/>
      <point x="550" y="643"/>
      <point x="653" y="763"/>
    </contour>
  </outline>
</glyph>
<glyph name="multiply" format="1">
  <advance width="2048"/>
  <unicode hex="00D7"/>
  <outline>
    <contour>
      <point x="1345" y="1108" type="curve" smooth="yes"/>
      <point x="1384" y="1108"/>
      <point x="1419" y="1073"/>
      <point x="1419" y="1035" type="curve" smooth="yes"/>
      <point x="1419" y="1016"/>
      <point x="1411" y="998"/>
      <point x="1397" y="983" type="curve" smooth="yes"/>
      <point x="1127" y="714" type="line"/>
      <point x="1397" y="444" type="line" smooth="yes"/>
      <point x="1411" y="430"/>
      <point x="1419" y="411"/>
      <point x="1419" y="393" type="curve" smooth="yes"/>
      <point x="1419" y="354"/>
      <point x="1384" y="319"/>
      <point x="1345" y="319" type="curve" smooth="yes"/>
      <point x="1326" y="319"/>
      <point x="1307" y="327"/>
      <point x="1293" y="341" type="curve" smooth="yes"/>
      <point x="1024" y="610" type="line"/>
      <point x="755" y="341" type="line" smooth="yes"/>
      <point x="740" y="327"/>
      <point x="722" y="319"/>
      <point x="703" y="319" type="curve" smooth="yes"/>
      <point x="664" y="319"/>
      <point x="629" y="354"/>
      <point x="629" y="393" type="curve" smooth="yes"/>
      <point x="629" y="411"/>
      <point x="636" y="430"/>
      <point x="651" y="444" type="curve" smooth="yes"/>
      <point x="920" y="714" type="line"/>
      <point x="651" y="983" type="line" smooth="yes"/>
      <point x="636" y="998"/>
      <point x="629" y="1016"/>
      <point x="629" y="1035" type="curve" smooth="yes"/>
      <point x="629" y="1073"/>
      <point x="664" y="1108"/>
      <point x="703" y="1108" type="curve" smooth="yes"/>
      <point x="722" y="1108"/>
      <point x="740" y="1101"/>
      <point x="755" y="1086" type="curve" smooth="yes"/>
      <point x="1024" y="817" type="line"/>
      <point x="1293" y="1086" type="line" smooth="yes"/>
      <point x="1307" y="1101"/>
      <point x="1326" y="1108"/>
    </contour>
  </outline>
</glyph>
<glyph name="ae" format="1">
  <advance width="2048"/>
  <unicode hex="00E6"/>
  <outline>
    <contour>
      <point x="1029" y="967" type="curve"/>
      <point x="1111" y="1104"/>
      <point x="1251" y="1188"/>
      <point x="1454" y="1188" type="curve" smooth="yes"/>
      <point x="1701" y="1188"/>
      <point x="1915" y="996"/>
      <point x="1915" y="728" type="curve" smooth="yes"/>
      <point x="1915" y="637"/>
      <point x="1842" y="636"/>
      <point x="1752" y="627" type="curve"/>
      <point x="1109" y="580" type="line"/>
      <point x="1114" y="338"/>
      <point x="1256" y="174"/>
      <point x="1477" y="174" type="curve" smooth="yes"/>
      <point x="1620" y="174"/>
      <point x="1692" y="243"/>
      <point x="1762" y="314" type="curve" smooth="yes"/>
      <point x="1780" y="331"/>
      <point x="1799" y="340"/>
      <point x="1821" y="340" type="curve" smooth="yes"/>
      <point x="1875" y="340"/>
      <point x="1918" y="305"/>
      <point x="1918" y="250" type="curve" smooth="yes"/>
      <point x="1918" y="85"/>
      <point x="1650" y="-25"/>
      <point x="1477" y="-25" type="curve" smooth="yes"/>
      <point x="1268" y="-25"/>
      <point x="1073" y="86"/>
      <point x="997" y="269" type="curve"/>
      <point x="924" y="54"/>
      <point x="712" y="-25"/>
      <point x="506" y="-25" type="curve" smooth="yes"/>
      <point x="273" y="-25"/>
      <point x="88" y="88"/>
      <point x="88" y="307" type="curve" smooth="yes"/>
      <point x="88" y="661"/>
      <point x="550" y="682"/>
      <point x="902" y="711" type="curve"/>
      <point x="902" y="915"/>
      <point x="861" y="1018"/>
      <point x="651" y="1018" type="curve" smooth="yes"/>
      <point x="449" y="1018"/>
      <point x="428" y="897"/>
      <point x="246" y="897" type="curve" smooth="yes"/>
      <point x="190" y="897"/>
      <point x="148" y="926"/>
      <point x="148" y="985" type="curve" smooth="yes"/>
      <point x="148" y="1146"/>
      <point x="457" y="1188"/>
      <point x="623" y="1188" type="curve" smooth="yes"/>
      <point x="850" y="1188"/>
      <point x="968" y="1123"/>
    </contour>
    <contour>
      <point x="900" y="576" type="line"/>
      <point x="673" y="552"/>
      <point x="303" y="546"/>
      <point x="303" y="313" type="curve" smooth="yes"/>
      <point x="303" y="199"/>
      <point x="400" y="145"/>
      <point x="516" y="145" type="curve" smooth="yes"/>
      <point x="882" y="145"/>
      <point x="900" y="432"/>
      <point x="900" y="540" type="curve" smooth="yes"/>
      <point x="900" y="568" type="line"/>
    </contour>
    <contour>
      <point x="1409" y="1018" type="curve" smooth="yes"/>
      <point x="1246" y="1018"/>
      <point x="1105" y="915"/>
      <point x="1105" y="731" type="curve" smooth="yes"/>
      <point x="1105" y="721"/>
      <point x="1105" y="715"/>
      <point x="1109" y="707" type="curve"/>
      <point x="1615" y="747" type="line"/>
      <point x="1653" y="752"/>
      <point x="1689" y="758"/>
      <point x="1689" y="790" type="curve" smooth="yes"/>
      <point x="1689" y="949"/>
      <point x="1566" y="1018"/>
    </contour>
    <contour>
      <point x="1024" y="1160" type="move" name="top"/>
    </contour>
  </outline>
</glyph>
<glyph name="oslash" format="1">
  <advance width="2048"/>
  <unicode hex="00F8"/>
  <outline>
    <contour>
      <point x="691" y="1018" type="curve" smooth="yes"/>
      <point x="437" y="1018"/>
      <point x="292" y="836"/>
      <point x="292" y="582" type="curve" smooth="yes"/>
      <point x="292" y="423"/>
      <point x="348" y="293"/>
      <point x="451" y="218" type="curve"/>
      <point x="824" y="998" type="line"/>
      <point x="784" y="1011"/>
      <point x="740" y="1018"/>
    </contour>
    <contour>
      <point x="691" y="145" type="curve" smooth="yes"/>
      <point x="939" y="145"/>
      <point x="1078" y="332"/>
      <point x="1078" y="582" type="curve" smooth="yes"/>
      <point x="1078" y="738"/>
      <point x="1024" y="869"/>
      <point x="924" y="945" type="curve"/>
      <point x="552" y="166" type="line"/>
      <point x="594" y="152"/>
      <point x="640" y="145"/>
    </contour>
    <contour>
      <point x="386" y="-181" type="line" smooth="yes"/>
      <point x="377" y="-200"/>
      <point x="366" y="-212"/>
      <point x="343" y="-212" type="curve" smooth="yes"/>
      <point x="313" y="-212"/>
      <point x="276" y="-187"/>
      <point x="276" y="-156" type="curve" smooth="yes"/>
      <point x="276" y="-149"/>
      <point x="278" y="-143"/>
      <point x="281" y="-137" type="curve" smooth="yes"/>
      <point x="369" y="48" type="line"/>
      <point x="183" y="144"/>
      <point x="70" y="333"/>
      <point x="70" y="582" type="curve" smooth="yes"/>
      <point x="70" y="955"/>
      <point x="321" y="1188"/>
      <point x="691" y="1188" type="curve" smooth="yes"/>
      <point x="767" y="1188"/>
      <point x="837" y="1178"/>
      <point x="901" y="1158" type="curve"/>
      <point x="990" y="1344" type="line"/>
      <point x="997" y="1361"/>
      <point x="1011" y="1369"/>
      <point x="1030" y="1369" type="curve" smooth="yes"/>
      <point x="1060" y="1369"/>
      <point x="1095" y="1346"/>
      <point x="1095" y="1314" type="curve" smooth="yes"/>
      <point x="1095" y="1308"/>
      <point x="1094" y="1302"/>
      <point x="1091" y="1296" type="curve" smooth="yes"/>
      <point x="1005" y="1115" type="line"/>
      <point x="1189" y="1018"/>
      <point x="1299" y="829"/>
      <point x="1299" y="582" type="curve" smooth="yes"/>
      <point x="1299" y="216"/>
      <point x="1055" y="-25"/>
      <point x="691" y="-25" type="curve" smooth="yes"/>
      <point x="613" y="-25"/>
      <point x="541" y="-15"/>
      <point x="475" y="5" type="curve"/>
    </contour>
    <contour>
      <point x="1024" y="1160" type="move" name="top"/>
    </contour>
  </outline>
</glyph>
<glyph name="Dcroat" format="1">
  <advance width="2048"/>
  <unicode hex="0110"/>
  <outline>
    <contour>
      <point x="1872" y="866" type="curve" smooth="yes"/>
      <point x="1872" y="301"/>
      <point x="1460" y="0"/>
      <point x="893" y="0" type="curve" smooth="yes"/>
      <point x="135" y="0" type="line" smooth="yes"/>
      <point x="88" y="0"/>
      <point x="61" y="40"/>
      <point x="61" y="84" type="curve" smooth="yes"/>
      <point x="61" y="134"/>
      <point x="82" y="176"/>
      <point x="133" y="176" type="curve" smooth="yes"/>
      <point x="401" y="176" type="line"/>
      <point x="401" y="809" type="line"/>
      <point x="252" y="809" type="line" smooth="yes"/>
      <point x="197" y="809"/>
      <point x="170" y="849"/>
      <point x="170" y="888" type="curve" smooth="yes"/>
      <point x="170" y="927"/>
      <point x="196" y="965"/>
      <point x="246" y="965" type="curve" smooth="yes"/>
      <point x="401" y="965" type="line"/>
      <point x="401" y="1538" type="line"/>
      <point x="198" y="1538" type="line" smooth="yes"/>
      <point x="147" y="1538"/>
      <point x="127" y="1580"/>
      <point x="127" y="1630" type="curve" smooth="yes"/>
      <point x="127" y="1674"/>
      <point x="154" y="1714"/>
      <point x="201" y="1714" type="curve" smooth="yes"/>
      <point x="893" y="1714" type="line" smooth="yes"/>
      <point x="1472" y="1714"/>
      <point x="1872" y="1438"/>
    </contour>
    <contour>
      <point x="1630" y="866" type="curve" smooth="yes"/>
      <point x="1630" y="1297"/>
      <point x="1355" y="1538"/>
      <point x="921" y="1538" type="curve" smooth="yes"/>
      <point x="635" y="1538" type="line"/>
      <point x="635" y="965" type="line"/>
      <point x="888" y="965" type="line" smooth="yes"/>
      <point x="936" y="965"/>
      <point x="960" y="927"/>
      <point x="960" y="888" type="curve" smooth="yes"/>
      <point x="960" y="849"/>
      <point x="935" y="809"/>
      <point x="886" y="809" type="curve" smooth="yes"/>
      <point x="635" y="809" type="line"/>
      <point x="635" y="176" type="line"/>
      <point x="682" y="173"/>
      <point x="727" y="172"/>
      <point x="772" y="172" type="curve" smooth="yes"/>
      <point x="1280" y="172"/>
      <point x="1630" y="346"/>
    </contour>
  </outline>
</glyph>
<glyph name="Hbar" format="1">
  <advance width="2048"/>
  <unicode hex="0126"/>
  <outline>
    <contour>
      <point x="1497" y="1170" type="line"/>
      <point x="565" y="1170" type="line"/>
      <point x="565" y="963" type="line"/>
      <point x="1497" y="963" type="line"/>
    </contour>
    <contour>
      <point x="36" y="84" type="curve" smooth="yes"/>
      <point x="36" y="134"/>
      <point x="57" y="176"/>
      <point x="108" y="176" type="curve" smooth="yes"/>
      <point x="331" y="176" type="line"/>
      <point x="331" y="1170" type="line"/>
      <point x="187" y="1170" type="line" smooth="yes"/>
      <point x="131.003" y="1170"/>
      <point x="104" y="1210"/>
      <point x="104" y="1249" type="curve" smooth="yes"/>
      <point x="104" y="1287"/>
      <point x="130.003" y="1325"/>
      <point x="181" y="1325" type="curve" smooth="yes"/>
      <point x="331" y="1325" type="line"/>
      <point x="331" y="1538" type="line"/>
      <point x="129" y="1538" type="line" smooth="yes"/>
      <point x="78" y="1538"/>
      <point x="57" y="1580"/>
      <point x="57" y="1630" type="curve" smooth="yes"/>
      <point x="57" y="1674"/>
      <point x="84" y="1714"/>
      <point x="131" y="1714" type="curve" smooth="yes"/>
      <point x="766" y="1714" type="line" smooth="yes"/>
      <point x="813" y="1714"/>
      <point x="839" y="1674"/>
      <point x="839" y="1630" type="curve" smooth="yes"/>
      <point x="839" y="1580"/>
      <point x="819" y="1538"/>
      <point x="768" y="1538" type="curve" smooth="yes"/>
      <point x="565" y="1538" type="line"/>
      <point x="565" y="1325" type="line"/>
      <point x="1497" y="1325" type="line"/>
      <point x="1497" y="1538" type="line"/>
      <point x="1294" y="1538" type="line" smooth="yes"/>
      <point x="1243" y="1538"/>
      <point x="1222" y="1580"/>
      <point x="1222" y="1630" type="curve" smooth="yes"/>
      <point x="1222" y="1674"/>
      <point x="1249" y="1714"/>
      <point x="1296" y="1714" type="curve" smooth="yes"/>
      <point x="1910" y="1714" type="line" smooth="yes"/>
      <point x="1957" y="1714"/>
      <point x="1984" y="1674"/>
      <point x="1984" y="1630" type="curve" smooth="yes"/>
      <point x="1984" y="1580"/>
      <point x="1963" y="1538"/>
      <point x="1912" y="1538" type="curve" smooth="yes"/>
      <point x="1730" y="1538" type="line"/>
      <point x="1730" y="1325" type="line"/>
      <point x="1871.5" y="1325" type="line" smooth="yes"/>
      <point x="1919.5" y="1325"/>
      <point x="1943.5" y="1287"/>
      <point x="1943.5" y="1249" type="curve" smooth="yes"/>
      <point x="1943.5" y="1210"/>
      <point x="1918.5" y="1170"/>
      <point x="1869.5" y="1170" type="curve" smooth="yes"/>
      <point x="1730" y="1170" type="line"/>
      <point x="1730" y="176" type="line"/>
      <point x="1912" y="176" type="line" smooth="yes"/>
      <point x="1963" y="176"/>
      <point x="1984" y="134"/>
      <point x="1984" y="84" type="curve" smooth="yes"/>
      <point x="1984" y="40"/>
      <point x="1957" y="0"/>
      <point x="1910" y="0" type="curve" smooth="yes"/>
      <point x="1296" y="0" type="line" smooth="yes"/>
      <point x="1249" y="0"/>
      <point x="1222" y="40"/>
      <point x="1222" y="84" type="curve" smooth="yes"/>
      <point x="1222" y="134"/>
      <point x="1243" y="176"/>
      <point x="1294" y="176" type="curve" smooth="yes"/>
      <point x="1497" y="176" type="line"/>
      <point x="1497" y="788" type="line"/>
      <point x="565" y="788" type="line"/>
      <point x="565" y="176" type="line"/>
      <point x="768" y="176" type="line" smooth="yes"/>
      <point x="819" y="176"/>
      <point x="839" y="134"/>
      <point x="839" y="84" type="curve" smooth="yes"/>
      <point x="839" y="40"/>
      <point x="813" y="0"/>
      <point x="766" y="0" type="curve" smooth="yes"/>
      <point x="110" y="0" type="line" smooth="yes"/>
      <point x="63" y="0"/>
      <point x="36" y="40"/>
    </contour>
  </outline>
</glyph>
<glyph name="dotlessi" format="1">
  <advance width="2048"/>
  <unicode hex="0131"/>
  <outline>
    <contour>
      <point x="60" y="86" type="curve" smooth="yes"/>
      <point x="60" y="135"/>
      <point x="84" y="176"/>
      <point x="136" y="176" type="curve" smooth="yes"/>
      <point x="273" y="176" type="line"/>
      <point x="273" y="928" type="line"/>
      <point x="129" y="889" type="line" smooth="yes"/>
      <point x="126" y="888"/>
      <point x="122" y="887"/>
      <point x="115" y="887" type="curve" smooth="yes"/>
      <point x="75" y="887"/>
      <point x="33" y="926"/>
      <point x="33" y="967" type="curve" smooth="yes"/>
      <point x="33" y="1010"/>
      <point x="53" y="1041"/>
      <point x="91" y="1051" type="curve" smooth="yes"/>
      <point x="410" y="1130" type="line" smooth="yes"/>
      <point x="414" y="1131"/>
      <point x="419" y="1133"/>
      <point x="426" y="1133" type="curve" smooth="yes"/>
      <point x="456" y="1133"/>
      <point x="478" y="1115"/>
      <point x="478" y="1085" type="curve" smooth="yes"/>
      <point x="478" y="176" type="line"/>
      <point x="631" y="176" type="line" smooth="yes"/>
      <point x="682" y="176"/>
      <point x="703" y="134"/>
      <point x="703" y="84" type="curve" smooth="yes"/>
      <point x="703" y="40"/>
      <point x="676" y="0"/>
      <point x="629" y="0" type="curve" smooth="yes"/>
      <point x="142" y="0" type="line" smooth="yes"/>
      <point x="86" y="0"/>
      <point x="60" y="35"/>
    </contour>
    <contour>
      <point x="1024" y="1160" type="move" name="top"/>
    </contour>
    <contour>
      <point x="1843" y="10" type="move" name="ogonek"/>
    </contour>
  </outline>
</glyph>
<glyph name="kgreenlandic" format="1">
  <advance width="2048"/>
  <unicode hex="0138"/>
  <outline>
    <contour>
      <point x="520" y="1082" type="curve" smooth="yes"/>
      <point x="520" y="619" type="line"/>
      <point x="983" y="957" type="line"/>
      <point x="885" y="957" type="line" smooth="yes"/>
      <point x="833" y="957"/>
      <point x="809" y="997"/>
      <point x="809" y="1047" type="curve" smooth="yes"/>
      <point x="809" y="1098"/>
      <point x="835" y="1133"/>
      <point x="891" y="1133" type="curve" smooth="yes"/>
      <point x="1366" y="1133" type="line" smooth="yes"/>
      <point x="1413" y="1133"/>
      <point x="1440" y="1094"/>
      <point x="1440" y="1050" type="curve" smooth="yes"/>
      <point x="1440" y="1000"/>
      <point x="1419" y="957"/>
      <point x="1368" y="957" type="curve" smooth="yes"/>
      <point x="1270" y="957" type="line" smooth="yes"/>
      <point x="1217" y="957"/>
      <point x="1180" y="920"/>
      <point x="1145" y="894" type="curve" smooth="yes"/>
      <point x="845" y="677" type="line"/>
      <point x="1132" y="291" type="line" smooth="yes"/>
      <point x="1206" y="192"/>
      <point x="1256" y="188"/>
      <point x="1384" y="188" type="curve" smooth="yes"/>
      <point x="1399" y="188" type="line" smooth="yes"/>
      <point x="1488" y="188"/>
      <point x="1515" y="173"/>
      <point x="1515" y="96" type="curve" smooth="yes"/>
      <point x="1515" y="17"/>
      <point x="1466" y="0"/>
      <point x="1376" y="0" type="curve" smooth="yes"/>
      <point x="940" y="0" type="line" smooth="yes"/>
      <point x="889" y="0"/>
      <point x="864" y="40"/>
      <point x="864" y="90" type="curve" smooth="yes"/>
      <point x="864" y="141"/>
      <point x="889" y="176"/>
      <point x="946" y="176" type="curve" smooth="yes"/>
      <point x="1005" y="176" type="line"/>
      <point x="704" y="584" type="line"/>
      <point x="520" y="452" type="line"/>
      <point x="520" y="176" type="line"/>
      <point x="672" y="176" type="line" smooth="yes"/>
      <point x="723" y="176"/>
      <point x="743" y="134"/>
      <point x="743" y="84" type="curve" smooth="yes"/>
      <point x="743" y="40"/>
      <point x="717" y="0"/>
      <point x="670" y="0" type="curve" smooth="yes"/>
      <point x="166" y="0" type="line" smooth="yes"/>
      <point x="110" y="0"/>
      <point x="84" y="35"/>
      <point x="84" y="86" type="curve" smooth="yes"/>
      <point x="84" y="135"/>
      <point x="108" y="176"/>
      <point x="160" y="176" type="curve" smooth="yes"/>
      <point x="315" y="176" type="line"/>
      <point x="315" y="940" type="line"/>
      <point x="80" y="940" type="line" smooth="yes"/>
      <point x="20" y="940"/>
      <point x="-7" y="985"/>
      <point x="-7" y="1032" type="curve" smooth="yes"/>
      <point x="-7" y="1081"/>
      <point x="23" y="1131"/>
      <point x="77" y="1131" type="curve" smooth="yes"/>
      <point x="452" y="1131" type="line" smooth="yes"/>
      <point x="489" y="1131"/>
      <point x="520" y="1120"/>
    </contour>
  </outline>
</glyph>
<glyph name="lslash" format="1">
  <advance width="2048"/>
  <unicode hex="0142"/>
  <outline>
    <contour>
      <point x="527" y="1735" type="curve" smooth="yes"/>
      <point x="555" y="1735"/>
      <point x="580" y="1716"/>
      <point x="580" y="1686" type="curve" smooth="yes"/>
      <point x="580" y="1175" type="line"/>
      <point x="757" y="1250" type="line"/>
      <point x="778" y="1256"/>
      <point x="796" y="1259"/>
      <point x="812" y="1259" type="curve" smooth="yes"/>
      <point x="862" y="1259"/>
      <point x="880" y="1228"/>
      <point x="880" y="1195" type="curve" smooth="yes"/>
      <point x="880" y="1160"/>
      <point x="860" y="1122"/>
      <point x="836" y="1115" type="curve"/>
      <point x="580" y="1006" type="line"/>
      <point x="580" y="176" type="line"/>
      <point x="824" y="176" type="line" smooth="yes"/>
      <point x="875" y="176"/>
      <point x="896" y="134"/>
      <point x="896" y="84" type="curve" smooth="yes"/>
      <point x="896" y="40"/>
      <point x="869" y="0"/>
      <point x="822" y="0" type="curve" smooth="yes"/>
      <point x="154" y="0" type="line" smooth="yes"/>
      <point x="98" y="0"/>
      <point x="72" y="35"/>
      <point x="72" y="86" type="curve" smooth="yes"/>
      <point x="72" y="135"/>
      <point x="96" y="176"/>
      <point x="148" y="176" type="curve" smooth="yes"/>
      <point x="375" y="176" type="line"/>
      <point x="375" y="919" type="line"/>
      <point x="220" y="853" type="line"/>
      <point x="196" y="846"/>
      <point x="176" y="843"/>
      <point x="159" y="843" type="curve" smooth="yes"/>
      <point x="107" y="843"/>
      <point x="88" y="874"/>
      <point x="88" y="907" type="curve" smooth="yes"/>
      <point x="88" y="941"/>
      <point x="107" y="977"/>
      <point x="133" y="985" type="curve"/>
      <point x="375" y="1088" type="line"/>
      <point x="375" y="1520" type="line"/>
      <point x="140" y="1458" type="line"/>
      <point x="134" y="1458"/>
      <point x="136" y="1456"/>
      <point x="130" y="1456" type="curve" smooth="yes"/>
      <point x="88" y="1456"/>
      <point x="50" y="1501"/>
      <point x="50" y="1542" type="curve" smooth="yes"/>
      <point x="50" y="1599"/>
      <point x="84" y="1609"/>
      <point x="128" y="1622" type="curve" smooth="yes"/>
      <point x="513" y="1733" type="line" smooth="yes"/>
      <point x="516" y="1734"/>
      <point x="520" y="1735"/>
    </contour>
  </outline>
</glyph>
<glyph name="Eng" format="1">
  <advance width="2048"/>
  <unicode hex="014A"/>
  <outline>
    <contour>
      <point x="68" y="1630" type="curve" smooth="yes"/>
      <point x="68" y="1674"/>
      <point x="95" y="1714"/>
      <point x="142" y="1714" type="curve" smooth="yes"/>
      <point x="605" y="1714" type="line" smooth="yes"/>
      <point x="637" y="1714"/>
      <point x="652" y="1704"/>
      <point x="664" y="1679" type="curve"/>
      <point x="1543" y="426" type="line"/>
      <point x="1543" y="1538" type="line"/>
      <point x="1363" y="1538" type="line" smooth="yes"/>
      <point x="1312" y="1538"/>
      <point x="1291" y="1580"/>
      <point x="1291" y="1630" type="curve" smooth="yes"/>
      <point x="1291" y="1674"/>
      <point x="1318" y="1714"/>
      <point x="1365" y="1714" type="curve" smooth="yes"/>
      <point x="1947" y="1714" type="line" smooth="yes"/>
      <point x="1994" y="1714"/>
      <point x="2020" y="1674"/>
      <point x="2020" y="1630" type="curve" smooth="yes"/>
      <point x="2020" y="1580"/>
      <point x="2000" y="1538"/>
      <point x="1949" y="1538" type="curve" smooth="yes"/>
      <point x="1750" y="1538" type="line"/>
      <point x="1750" y="-52" type="line" smooth="yes"/>
      <point x="1750" y="-425"/>
      <point x="1555" y="-587"/>
      <point x="1302" y="-587" type="curve" smooth="yes"/>
      <point x="1121" y="-587"/>
      <point x="967" y="-489"/>
      <point x="967" y="-364" type="curve" smooth="yes"/>
      <point x="967" y="-245" type="line" smooth="yes"/>
      <point x="967" y="-176"/>
      <point x="997" y="-141"/>
      <point x="1071" y="-141" type="curve" smooth="yes"/>
      <point x="1128" y="-141"/>
      <point x="1179" y="-170"/>
      <point x="1179" y="-225" type="curve" smooth="yes"/>
      <point x="1179" y="-338" type="line"/>
      <point x="1180" y="-381"/>
      <point x="1242" y="-419"/>
      <point x="1315" y="-419" type="curve" smooth="yes"/>
      <point x="1418" y="-419"/>
      <point x="1543" y="-336"/>
      <point x="1543" y="-75" type="curve" smooth="yes"/>
      <point x="1543" y="51" type="line"/>
      <point x="550" y="1456" type="line"/>
      <point x="550" y="176" type="line"/>
      <point x="726" y="176" type="line" smooth="yes"/>
      <point x="777" y="176"/>
      <point x="798" y="134"/>
      <point x="798" y="84" type="curve" smooth="yes"/>
      <point x="798" y="40"/>
      <point x="771" y="0"/>
      <point x="724" y="0" type="curve" smooth="yes"/>
      <point x="142" y="0" type="line" smooth="yes"/>
      <point x="95" y="0"/>
      <point x="68" y="40"/>
      <point x="68" y="84" type="curve" smooth="yes"/>
      <point x="68" y="134"/>
      <point x="89" y="176"/>
      <point x="140" y="176" type="curve" smooth="yes"/>
      <point x="339" y="176" type="line"/>
      <point x="339" y="1538" type="line"/>
      <point x="140" y="1538" type="line" smooth="yes"/>
      <point x="89" y="1538"/>
      <point x="68" y="1580"/>
    </contour>
  </outline>
</glyph>
<glyph name="eng" format="1">
  <advance width="2048"/>
  <unicode hex="014B"/>
  <outline>
    <contour>
      <point x="1111" y="118" type="curve" smooth="yes"/>
      <point x="1111" y="762" type="line" smooth="yes"/>
      <point x="1111" y="922"/>
      <point x="1031" y="1018"/>
      <point x="869" y="1018" type="curve" smooth="yes"/>
      <point x="690" y="1018"/>
      <point x="494" y="886"/>
      <point x="494" y="707" type="curve" smooth="yes"/>
      <point x="494" y="176" type="line"/>
      <point x="640" y="176" type="line" smooth="yes"/>
      <point x="691" y="176"/>
      <point x="711" y="134"/>
      <point x="711" y="84" type="curve" smooth="yes"/>
      <point x="711" y="40"/>
      <point x="685" y="0"/>
      <point x="638" y="0" type="curve" smooth="yes"/>
      <point x="171" y="0" type="line" smooth="yes"/>
      <point x="115" y="0"/>
      <point x="89" y="35"/>
      <point x="89" y="86" type="curve" smooth="yes"/>
      <point x="89" y="135"/>
      <point x="113" y="176"/>
      <point x="165" y="176" type="curve" smooth="yes"/>
      <point x="289" y="176" type="line"/>
      <point x="289" y="979" type="line"/>
      <point x="146" y="944" type="line" smooth="yes"/>
      <point x="143" y="943"/>
      <point x="139" y="942"/>
      <point x="132" y="942" type="curve" smooth="yes"/>
      <point x="92" y="942"/>
      <point x="50" y="981"/>
      <point x="50" y="1022" type="curve" smooth="yes"/>
      <point x="50" y="1067"/>
      <point x="69" y="1094"/>
      <point x="107" y="1106" type="curve"/>
      <point x="386" y="1186" type="line"/>
      <point x="392" y="1186"/>
      <point x="390" y="1188"/>
      <point x="396" y="1188" type="curve" smooth="yes"/>
      <point x="402" y="1188" type="line" smooth="yes"/>
      <point x="430" y="1188"/>
      <point x="453" y="1170"/>
      <point x="453" y="1141" type="curve"/>
      <point x="474" y="952" type="line"/>
      <point x="542" y="1075"/>
      <point x="718" y="1188"/>
      <point x="906" y="1188" type="curve" smooth="yes"/>
      <point x="1156" y="1188"/>
      <point x="1313" y="1032"/>
      <point x="1313" y="780" type="curve" smooth="yes"/>
      <point x="1313" y="118" type="line" smooth="yes"/>
      <point x="1313" y="-182"/>
      <point x="1227" y="-481"/>
      <point x="875" y="-481" type="curve" smooth="yes"/>
      <point x="724" y="-481"/>
      <point x="602" y="-429"/>
      <point x="602" y="-263" type="curve" smooth="yes"/>
      <point x="602" y="-186"/>
      <point x="620" y="-142"/>
      <point x="698" y="-142" type="curve" smooth="yes"/>
      <point x="753" y="-142"/>
      <point x="787" y="-178"/>
      <point x="787" y="-240" type="curve"/>
      <point x="805" y="-284"/>
      <point x="763" y="-312"/>
      <point x="886" y="-312" type="curve" smooth="yes"/>
      <point x="1064" y="-312"/>
      <point x="1111" y="-119"/>
    </contour>
  </outline>
</glyph>
<glyph name="OE" format="1">
  <advance width="2048"/>
  <unicode hex="0152"/>
  <outline>
    <contour>
      <point x="950" y="-25" type="curve" smooth="yes"/>
      <point x="434" y="-25"/>
      <point x="74" y="320"/>
      <point x="74" y="850" type="curve" smooth="yes"/>
      <point x="74" y="1382"/>
      <point x="434" y="1739"/>
      <point x="950" y="1739" type="curve" smooth="yes"/>
      <point x="1222" y="1739"/>
      <point x="1485" y="1609"/>
      <point x="1589" y="1387" type="curve"/>
      <point x="1589" y="1714" type="line"/>
      <point x="2786" y="1714" type="line" smooth="yes"/>
      <point x="2834" y="1714"/>
      <point x="2852" y="1683"/>
      <point x="2868" y="1636" type="curve"/>
      <point x="2964" y="1319" type="line" smooth="yes"/>
      <point x="2968" y="1304"/>
      <point x="2970" y="1291"/>
      <point x="2970" y="1280" type="curve" smooth="yes"/>
      <point x="2970" y="1236"/>
      <point x="2940" y="1206"/>
      <point x="2897" y="1206" type="curve" smooth="yes"/>
      <point x="2847" y="1206"/>
      <point x="2811" y="1240"/>
      <point x="2794" y="1282" type="curve" smooth="yes"/>
      <point x="2686" y="1538" type="line"/>
      <point x="1822" y="1538" type="line"/>
      <point x="1822" y="967" type="line"/>
      <point x="2156" y="967" type="line"/>
      <point x="2207" y="1153" type="line" smooth="yes"/>
      <point x="2218" y="1190"/>
      <point x="2245" y="1221"/>
      <point x="2287" y="1221" type="curve" smooth="yes"/>
      <point x="2332" y="1221"/>
      <point x="2357" y="1188"/>
      <point x="2357" y="1141" type="curve"/>
      <point x="2342" y="899" type="line"/>
      <point x="2357" y="649" type="line"/>
      <point x="2357" y="602"/>
      <point x="2332" y="569"/>
      <point x="2287" y="569" type="curve" smooth="yes"/>
      <point x="2245" y="569"/>
      <point x="2218" y="600"/>
      <point x="2207" y="637" type="curve" smooth="yes"/>
      <point x="2156" y="823" type="line"/>
      <point x="1822" y="823" type="line"/>
      <point x="1822" y="176" type="line"/>
      <point x="2686" y="176" type="line"/>
      <point x="2802" y="506" type="line"/>
      <point x="2821" y="548"/>
      <point x="2853" y="582"/>
      <point x="2905" y="582" type="curve" smooth="yes"/>
      <point x="2949" y="582"/>
      <point x="2978" y="554"/>
      <point x="2978" y="508" type="curve" smooth="yes"/>
      <point x="2978" y="494"/>
      <point x="2976" y="481"/>
      <point x="2972" y="469" type="curve"/>
      <point x="2909" y="78" type="line"/>
      <point x="2895" y="30"/>
      <point x="2875" y="0"/>
      <point x="2827" y="0" type="curve" smooth="yes"/>
      <point x="1589" y="0" type="line"/>
      <point x="1589" y="311" type="line"/>
      <point x="1505" y="108"/>
      <point x="1221" y="-25"/>
    </contour>
    <contour>
      <point x="941" y="1550" type="curve" smooth="yes"/>
      <point x="550" y="1550"/>
      <point x="324" y="1256"/>
      <point x="324" y="850" type="curve" smooth="yes"/>
      <point x="324" y="444"/>
      <point x="556" y="164"/>
      <point x="958" y="164" type="curve" smooth="yes"/>
      <point x="1353" y="164"/>
      <point x="1589" y="438"/>
      <point x="1589" y="848" type="curve" smooth="yes"/>
      <point x="1589" y="1262"/>
      <point x="1347" y="1550"/>
    </contour>
    <contour>
      <point x="1024" y="1714" type="move" name="top"/>
    </contour>
  </outline>
</glyph>
<glyph name="circumflex" format="1">
  <advance width="2048"/>
  <unicode hex="02C6"/>
  <outline>
    <contour>
      <point x="1024" y="1932" type="curve" smooth="yes"/>
      <point x="1043" y="1932"/>
      <point x="1062" y="1926"/>
      <point x="1070" y="1915" type="curve" smooth="yes"/>
      <point x="1340" y="1501" type="line"/>
      <point x="1347" y="1493"/>
      <point x="1350" y="1484"/>
      <point x="1350" y="1476" type="curve" smooth="yes"/>
      <point x="1350" y="1452"/>
      <point x="1323" y="1433"/>
      <point x="1296" y="1433" type="curve" smooth="yes"/>
      <point x="1284" y="1433"/>
      <point x="1270" y="1435"/>
      <point x="1262" y="1446" type="curve" smooth="yes"/>
      <point x="1024" y="1752" type="line"/>
      <point x="786" y="1446" type="line" smooth="yes"/>
      <point x="778" y="1435"/>
      <point x="764" y="1433"/>
      <point x="752" y="1433" type="curve" smooth="yes"/>
      <point x="725" y="1433"/>
      <point x="698" y="1452"/>
      <point x="698" y="1476" type="curve" smooth="yes"/>
      <point x="698" y="1484"/>
      <point x="701" y="1493"/>
      <point x="708" y="1501" type="curve"/>
      <point x="978" y="1915" type="line" smooth="yes"/>
      <point x="986" y="1926"/>
      <point x="1005" y="1932"/>
    </contour>
    <contour>
      <point x="1024" y="1160" type="move" name="_top"/>
    </contour>
  </outline>
</glyph>
<glyph name="caron" format="1">
  <advance width="2048"/>
  <unicode hex="02C7"/>
  <outline>
    <contour>
      <point x="1024" y="1433" type="curve" smooth="yes"/>
      <point x="1005" y="1433"/>
      <point x="986" y="1439"/>
      <point x="978" y="1450" type="curve" smooth="yes"/>
      <point x="708" y="1864" type="line"/>
      <point x="701" y="1872"/>
      <point x="698" y="1881"/>
      <point x="698" y="1889" type="curve" smooth="yes"/>
      <point x="698" y="1913"/>
      <point x="725" y="1932"/>
      <point x="752" y="1932" type="curve" smooth="yes"/>
      <point x="764" y="1932"/>
      <point x="778" y="1930"/>
      <point x="786" y="1919" type="curve" smooth="yes"/>
      <point x="1024" y="1613" type="line"/>
      <point x="1262" y="1919" type="line" smooth="yes"/>
      <point x="1270" y="1930"/>
      <point x="1284" y="1932"/>
      <point x="1296" y="1932" type="curve" smooth="yes"/>
      <point x="1323" y="1932"/>
      <point x="1350" y="1913"/>
      <point x="1350" y="1889" type="curve" smooth="yes"/>
      <point x="1350" y="1881"/>
      <point x="1347" y="1872"/>
      <point x="1340" y="1864" type="curve"/>
      <point x="1070" y="1450" type="line" smooth="yes"/>
      <point x="1062" y="1439"/>
      <point x="1043" y="1433"/>
    </contour>
    <contour>
      <point x="1024" y="1160" type="move" name="_top"/>
    </contour>
  </outline>
</glyph>
<glyph name="breve" format="1">
  <advance width="2048"/>
  <unicode hex="02D8"/>
  <outline>
    <contour>
      <point x="816" y="1767" type="curve" smooth="yes"/>
      <point x="862" y="1647"/>
      <point x="943" y="1587"/>
      <point x="1024" y="1587" type="curve" smooth="yes"/>
      <point x="1105" y="1587"/>
      <point x="1186" y="1647"/>
      <point x="1232" y="1767" type="curve" smooth="yes"/>
      <point x="1238" y="1783"/>
      <point x="1252" y="1788"/>
      <point x="1265" y="1788" type="curve" smooth="yes"/>
      <point x="1291" y="1788"/>
      <point x="1320" y="1763"/>
      <point x="1320" y="1741" type="curve" smooth="yes"/>
      <point x="1320" y="1530"/>
      <point x="1172" y="1424"/>
      <point x="1024" y="1424" type="curve" smooth="yes"/>
      <point x="876" y="1424"/>
      <point x="728" y="1530"/>
      <point x="728" y="1741" type="curve" smooth="yes"/>
      <point x="728" y="1763"/>
      <point x="757" y="1788"/>
      <point x="783" y="1788" type="curve" smooth="yes"/>
      <point x="796" y="1788"/>
      <point x="810" y="1783"/>
    </contour>
    <contour>
      <point x="1024" y="1160" type="move" name="_top"/>
    </contour>
  </outline>
</glyph>
<glyph name="dotaccent" format="1">
  <advance width="2048"/>
  <unicode hex="02D9"/>
  <outline>
    <contour>
      <point x="1173.5" y="396" type="curve" smooth="yes"/>
      <point x="1173.5" y="319"/>
      <point x="1113.5" y="240"/>
      <point x="1024.5" y="240" type="curve" smooth="yes"/>
      <point x="927.5" y="240"/>
      <point x="874.5" y="319"/>
      <point x="874.5" y="396" type="curve" smooth="yes"/>
      <point x="874.5" y="469"/>
      <point x="922.5" y="541"/>
      <point x="1026.5" y="541" type="curve" smooth="yes"/>
      <point x="1118.5" y="541"/>
      <point x="1173.5" y="470"/>
    </contour>
    <contour>
      <point x="1024" y="1160" type="move" name="_top"/>
    </contour>
  </outline>
</glyph>
<glyph name="ring" format="1">
  <advance width="2048"/>
  <unicode hex="02DA"/>
  <outline>
    <contour>
      <point x="1028" y="1975.8" type="curve" smooth="yes"/>
      <point x="1193" y="1975.8"/>
      <point x="1275" y="1851.8"/>
      <point x="1275" y="1727.8" type="curve" smooth="yes"/>
      <point x="1275" y="1603.8"/>
      <point x="1189" y="1477.8"/>
      <point x="1023" y="1477.8" type="curve" smooth="yes"/>
      <point x="857" y="1477.8"/>
      <point x="773" y="1599.8"/>
      <point x="773" y="1722.8" type="curve" smooth="yes"/>
      <point x="773" y="1848.8"/>
      <point x="861" y="1975.8"/>
    </contour>
    <contour>
      <point x="1031" y="1572.8" type="curve" smooth="yes"/>
      <point x="1125" y="1572.8"/>
      <point x="1169" y="1642.8"/>
      <point x="1169" y="1724.8" type="curve" smooth="yes"/>
      <point x="1169" y="1806.8"/>
      <point x="1122" y="1878.8"/>
      <point x="1027" y="1878.8" type="curve" smooth="yes"/>
      <point x="931" y="1878.8"/>
      <point x="885" y="1806.8"/>
      <point x="885" y="1724.8" type="curve" smooth="yes"/>
      <point x="885" y="1643.8"/>
      <point x="939" y="1572.8"/>
    </contour>
    <contour>
      <point x="1024" y="1160" type="move" name="_top"/>
    </contour>
  </outline>
</glyph>
<glyph name="uni0311" format="1">
  <advance width="2048"/>
  <unicode hex="0311"/>
  <outline>
    <contour>
      <point x="781" y="1382" type="curve" smooth="yes"/>
      <point x="755" y="1382"/>
      <point x="728" y="1399"/>
      <point x="728" y="1423" type="curve" smooth="yes"/>
      <point x="728" y="1635"/>
      <point x="876" y="1745"/>
      <point x="1024" y="1745" type="curve" smooth="yes"/>
      <point x="1172" y="1745"/>
      <point x="1320" y="1634"/>
      <point x="1320" y="1423" type="curve" smooth="yes"/>
      <point x="1320" y="1399"/>
      <point x="1293" y="1382"/>
      <point x="1267" y="1382" type="curve" smooth="yes"/>
      <point x="1249" y="1382"/>
      <point x="1231" y="1390"/>
      <point x="1224" y="1410" type="curve" smooth="yes"/>
      <point x="1178" y="1531"/>
      <point x="1105" y="1583"/>
      <point x="1024" y="1583" type="curve" smooth="yes"/>
      <point x="943" y="1583"/>
      <point x="870" y="1531"/>
      <point x="824" y="1410" type="curve" smooth="yes"/>
      <point x="817" y="1390"/>
      <point x="799" y="1382"/>
    </contour>
  </outline>
</glyph>
<glyph name="uni0326" format="1">
  <advance width="2048"/>
  <unicode hex="0326"/>
  <outline>
    <contour>
      <point x="81" y="-676.8" type="curve" smooth="yes"/>
      <point x="40" y="-676.8"/>
      <point x="20" y="-648.8"/>
      <point x="20" y="-613.8" type="curve" smooth="yes"/>
      <point x="20" y="-485.8"/>
      <point x="304" y="-562.8"/>
      <point x="304" y="-374.8" type="curve"/>
      <point x="274" y="-384.8"/>
      <point x="246" y="-388.8"/>
      <point x="220" y="-388.8" type="curve" smooth="yes"/>
      <point x="117" y="-388.8"/>
      <point x="58" y="-315.8"/>
      <point x="58" y="-251.8" type="curve" smooth="yes"/>
      <point x="58" y="-137.8"/>
      <point x="136" y="-68.7998"/>
      <point x="279" y="-68.7998" type="curve" smooth="yes"/>
      <point x="404" y="-68.7998"/>
      <point x="467" y="-170.8"/>
      <point x="467" y="-292.8" type="curve" smooth="yes"/>
      <point x="467" y="-509.8"/>
      <point x="320" y="-676.8"/>
    </contour>
    <contour>
      <point x="243.5" y="0" type="move" name="_bottom"/>
    </contour>
  </outline>
</glyph>
<glyph name="endash" format="1">
  <advance width="2048"/>
  <unicode hex="2013"/>
  <outline>
    <contour>
      <point x="1477.5" y="781" type="line" smooth="yes"/>
      <point x="1535.5" y="781"/>
      <point x="1583.5" y="733"/>
      <point x="1583.5" y="675" type="curve" smooth="yes"/>
      <point x="1583.5" y="616"/>
      <point x="1535.5" y="569"/>
      <point x="1477.5" y="569" type="curve" smooth="yes"/>
      <point x="570.5" y="569" type="line" smooth="yes"/>
      <point x="511.5" y="569"/>
      <point x="464.5" y="616"/>
      <point x="464.5" y="675" type="curve" smooth="yes"/>
      <point x="464.5" y="733"/>
      <point x="511.5" y="781"/>
      <point x="570.5" y="781" type="curve" smooth="yes"/>
    </contour>
  </outline>
</glyph>
<glyph name="emdash" format="1">
  <advance width="2048"/>
  <unicode hex="2014"/>
  <outline>
    <contour>
      <point x="1641.5" y="781" type="line" smooth="yes"/>
      <point x="1699.5" y="781"/>
      <point x="1747.5" y="733"/>
      <point x="1747.5" y="675" type="curve" smooth="yes"/>
      <point x="1747.5" y="616"/>
      <point x="1699.5" y="569"/>
      <point x="1641.5" y="569" type="curve" smooth="yes"/>
      <point x="406.5" y="569" type="line" smooth="yes"/>
      <point x="347.5" y="569"/>
      <point x="300.5" y="616"/>
      <point x="300.5" y="675" type="curve" smooth="yes"/>
      <point x="300.5" y="733"/>
      <point x="347.5" y="781"/>
      <point x="406.5" y="781" type="curve" smooth="yes"/>
    </contour>
  </outline>
</glyph>
<glyph name="quoteright" format="1">
  <advance width="2048"/>
  <unicode hex="2019"/>
  <outline>
    <contour>
      <point x="353" y="1714" type="curve" smooth="yes"/>
      <point x="463" y="1714"/>
      <point x="558" y="1640"/>
      <point x="558" y="1492" type="curve" smooth="yes"/>
      <point x="558" y="1281"/>
      <point x="435" y="1147"/>
      <point x="284" y="1071" type="curve" smooth="yes"/>
      <point x="268" y="1062"/>
      <point x="251" y="1058"/>
      <point x="237" y="1058" type="curve" smooth="yes"/>
      <point x="194" y="1058"/>
      <point x="162" y="1091"/>
      <point x="162" y="1126" type="curve" smooth="yes"/>
      <point x="162" y="1144"/>
      <point x="171" y="1163"/>
      <point x="193" y="1178" type="curve" smooth="yes"/>
      <point x="270" y="1229"/>
      <point x="371" y="1295"/>
      <point x="371" y="1409" type="curve"/>
      <point x="263" y="1409"/>
      <point x="183" y="1457"/>
      <point x="183" y="1559" type="curve" smooth="yes"/>
      <point x="183" y="1662"/>
      <point x="265" y="1714"/>
    </contour>
  </outline>
</glyph>
<glyph name="quotesinglbase" format="1">
  <advance width="2048"/>
  <unicode hex="201A"/>
  <outline>
    <contour>
      <point x="81" y="-288" type="curve" smooth="yes"/>
      <point x="40" y="-288"/>
      <point x="20" y="-260"/>
      <point x="20" y="-225" type="curve" smooth="yes"/>
      <point x="20" y="-97"/>
      <point x="304" y="-174"/>
      <point x="304" y="14" type="curve"/>
      <point x="274" y="4"/>
      <point x="246" y="-0"/>
      <point x="220" y="-0" type="curve" smooth="yes"/>
      <point x="117" y="-0"/>
      <point x="58" y="73"/>
      <point x="58" y="137" type="curve" smooth="yes"/>
      <point x="58" y="251"/>
      <point x="136" y="320"/>
      <point x="279" y="320" type="curve" smooth="yes"/>
      <point x="404" y="320"/>
      <point x="467" y="218"/>
      <point x="467" y="96" type="curve" smooth="yes"/>
      <point x="467" y="-121"/>
      <point x="320" y="-288"/>
    </contour>
  </outline>
</glyph>
<glyph name="quotedblleft" format="1">
  <advance width="2048"/>
  <unicode hex="201C"/>
  <outline>
    <contour>
      <point x="655" y="1279" type="curve" smooth="yes"/>
      <point x="655" y="1490"/>
      <point x="778" y="1624"/>
      <point x="929" y="1700" type="curve" smooth="yes"/>
      <point x="945" y="1709"/>
      <point x="962" y="1713"/>
      <point x="976" y="1713" type="curve" smooth="yes"/>
      <point x="1019" y="1713"/>
      <point x="1051" y="1680"/>
      <point x="1051" y="1645" type="curve" smooth="yes"/>
      <point x="1051" y="1627"/>
      <point x="1042" y="1608"/>
      <point x="1020" y="1593" type="curve" smooth="yes"/>
      <point x="943" y="1542"/>
      <point x="842" y="1476"/>
      <point x="842" y="1362" type="curve"/>
      <point x="950" y="1362"/>
      <point x="1030" y="1314"/>
      <point x="1030" y="1212" type="curve" smooth="yes"/>
      <point x="1030" y="1109"/>
      <point x="948" y="1057"/>
      <point x="860" y="1057" type="curve" smooth="yes"/>
      <point x="750" y="1057"/>
      <point x="655" y="1131"/>
    </contour>
    <contour>
      <point x="350" y="1057" type="curve" smooth="yes"/>
      <point x="240" y="1057"/>
      <point x="145" y="1131"/>
      <point x="145" y="1279" type="curve" smooth="yes"/>
      <point x="145" y="1490"/>
      <point x="268" y="1624"/>
      <point x="419" y="1700" type="curve" smooth="yes"/>
      <point x="435" y="1709"/>
      <point x="452" y="1713"/>
      <point x="466" y="1713" type="curve" smooth="yes"/>
      <point x="509" y="1713"/>
      <point x="541" y="1680"/>
      <point x="541" y="1645" type="curve" smooth="yes"/>
      <point x="541" y="1627"/>
      <point x="532" y="1608"/>
      <point x="510" y="1593" type="curve" smooth="yes"/>
      <point x="433" y="1542"/>
      <point x="332" y="1476"/>
      <point x="332" y="1362" type="curve"/>
      <point x="440" y="1362"/>
      <point x="520" y="1314"/>
      <point x="520" y="1212" type="curve" smooth="yes"/>
      <point x="520" y="1109"/>
      <point x="438" y="1057"/>
    </contour>
  </outline>
</glyph>
<glyph name="quotedblright" format="1">
  <advance width="2048"/>
  <unicode hex="201D"/>
  <outline>
    <contour>
      <point x="1020" y="1492" type="curve" smooth="yes"/>
      <point x="1020" y="1281"/>
      <point x="897" y="1147"/>
      <point x="746" y="1071" type="curve" smooth="yes"/>
      <point x="730" y="1062"/>
      <point x="713" y="1058"/>
      <point x="699" y="1058" type="curve" smooth="yes"/>
      <point x="656" y="1058"/>
      <point x="624" y="1091"/>
      <point x="624" y="1126" type="curve" smooth="yes"/>
      <point x="624" y="1144"/>
      <point x="633" y="1163"/>
      <point x="655" y="1178" type="curve" smooth="yes"/>
      <point x="732" y="1229"/>
      <point x="833" y="1295"/>
      <point x="833" y="1409" type="curve"/>
      <point x="725" y="1409"/>
      <point x="645" y="1457"/>
      <point x="645" y="1559" type="curve" smooth="yes"/>
      <point x="645" y="1662"/>
      <point x="727" y="1714"/>
      <point x="815" y="1714" type="curve" smooth="yes"/>
      <point x="925" y="1714"/>
      <point x="1020" y="1640"/>
    </contour>
    <contour>
      <point x="353" y="1714" type="curve" smooth="yes"/>
      <point x="463" y="1714"/>
      <point x="558" y="1640"/>
      <point x="558" y="1492" type="curve" smooth="yes"/>
      <point x="558" y="1281"/>
      <point x="435" y="1147"/>
      <point x="284" y="1071" type="curve" smooth="yes"/>
      <point x="268" y="1062"/>
      <point x="251" y="1058"/>
      <point x="237" y="1058" type="curve" smooth="yes"/>
      <point x="194" y="1058"/>
      <point x="162" y="1091"/>
      <point x="162" y="1126" type="curve" smooth="yes"/>
      <point x="162" y="1144"/>
      <point x="171" y="1163"/>
      <point x="193" y="1178" type="curve" smooth="yes"/>
      <point x="270" y="1229"/>
      <point x="371" y="1295"/>
      <point x="371" y="1409" type="curve"/>
      <point x="263" y="1409"/>
      <point x="183" y="1457"/>
      <point x="183" y="1559" type="curve" smooth="yes"/>
      <point x="183" y="1662"/>
      <point x="265" y="1714"/>
    </contour>
  </outline>
</glyph>
<glyph name="daggerdbl" format="1">
  <advance width="2048"/>
  <unicode hex="2021"/>
  <outline>
    <contour>
      <point x="1369" y="1255" type="line" smooth="yes"/>
      <point x="1413" y="1255"/>
      <point x="1449" y="1219"/>
      <point x="1449" y="1175" type="curve" smooth="yes"/>
      <point x="1449" y="1131"/>
      <point x="1413" y="1094"/>
      <point x="1369" y="1094" type="curve" smooth="yes"/>
      <point x="1101" y="1094" type="line"/>
      <point x="1101" y="538" type="line"/>
      <point x="1369" y="538" type="line" smooth="yes"/>
      <point x="1413" y="538"/>
      <point x="1449" y="501"/>
      <point x="1449" y="457" type="curve" smooth="yes"/>
      <point x="1449" y="413"/>
      <point x="1413" y="377"/>
      <point x="1369" y="377" type="curve" smooth="yes"/>
      <point x="1101" y="377" type="line"/>
      <point x="1101" y="-98" type="line" smooth="yes"/>
      <point x="1101" y="-140"/>
      <point x="1053" y="-164"/>
      <point x="1013" y="-164" type="curve" smooth="yes"/>
      <point x="961" y="-164"/>
      <point x="925" y="-142"/>
      <point x="925" y="-82" type="curve" smooth="yes"/>
      <point x="925" y="377" type="line"/>
      <point x="679" y="377" type="line" smooth="yes"/>
      <point x="635" y="377"/>
      <point x="599" y="413"/>
      <point x="599" y="457" type="curve" smooth="yes"/>
      <point x="599" y="501"/>
      <point x="635" y="538"/>
      <point x="679" y="538" type="curve" smooth="yes"/>
      <point x="925" y="538" type="line"/>
      <point x="925" y="1094" type="line"/>
      <point x="679" y="1094" type="line" smooth="yes"/>
      <point x="635" y="1094"/>
      <point x="599" y="1131"/>
      <point x="599" y="1175" type="curve" smooth="yes"/>
      <point x="599" y="1219"/>
      <point x="635" y="1255"/>
      <point x="679" y="1255" type="curve" smooth="yes"/>
      <point x="925" y="1255" type="line"/>
      <point x="925" y="1769" type="line" smooth="yes"/>
      <point x="925" y="1817"/>
      <point x="969" y="1841"/>
      <point x="1015" y="1841" type="curve" smooth="yes"/>
      <point x="1064" y="1841"/>
      <point x="1096" y="1815"/>
      <point x="1101" y="1769" type="curve"/>
      <point x="1101" y="1255" type="line"/>
    </contour>
  </outline>
</glyph>
